<?xml version="1.0" standalone="no"?>
<!DOCTYPE svg PUBLIC "-//W3C//DTD SVG 1.1//EN" "http://www.w3.org/Graphics/SVG/1.1/DTD/svg11.dtd">
<svg xmlns="http://www.w3.org/2000/svg">
	<metadata>
		Generated by Fontastic.me
	</metadata>
	<defs>
		<font id="font-aurea" horiz-adv-x="512">
			<font-face font-family="font-aurea" units-per-em="512" ascent="480" descent="-32" />
			<missing-glyph horiz-adv-x="512" />
			<glyph glyph-name="add" unicode="&#97;" d="M228 228l-138 0 0 57 138 0 0 138 56 0 0-138 138 0 0-57-138 0 0-138-56 0z" />
			<glyph glyph-name="arrow-back" unicode="&#98;" d="M167 235l119-120-30-30-171 171 171 171 30-30-119-120 260 0 0-42z" />
			<glyph glyph-name="arrow-right" unicode="&#99;" d="M345 235l-119-119 30-30 171 171-171 170-30-30 119-119-260 0 0-43z" />
			<glyph glyph-name="attach" unicode="&#100;" d="M245 28c-36 0-67 12-93 38-26 25-39 56-39 92l0 235c0 26 9 49 28 67 18 19 40 28 67 28 26 0 48-9 67-28 18-18 27-41 27-67l0-213c0-16-5-30-16-41-11-11-25-17-41-17-16 0-30 6-40 18-11 11-17 26-17 42l0 212 34 0 0-213c0-7 2-13 7-18 4-5 10-8 16-8 7 0 13 3 17 7 5 5 7 11 7 18l0 213c0 17-6 32-18 43-12 12-26 18-44 18-17 0-31-6-43-18-12-11-18-26-18-43l0-236c0-27 10-50 29-68 19-19 43-28 70-28 28 0 52 9 71 28 19 18 29 42 29 69l0 236 33 0 0-236c0-36-13-67-39-92-26-26-57-38-94-38z" />
			<glyph glyph-name="cancel" unicode="&#101;" d="M395 320l-118 118c-3 3-7 5-11 5l-95 0c-16 0-31-7-42-18-11-11-17-25-17-41l0-256c0-16 6-30 17-41 11-11 26-18 42-18l170 0c16 0 31 7 42 18 11 11 17 25 17 41l0 181c0 4-2 8-5 11z m-112 68l62-63-62 0z m58-287l-170 0c-7 0-14 3-19 8-5 5-8 12-8 19l0 256c0 7 3 14 8 19 5 5 12 8 19 8l80 0 0-102c0-4 1-8 4-11 3-3 7-5 12-5l101 0 0-165c0-7-3-14-8-19-5-5-12-8-19-8z m-32 157c-4 2-8 4-12 3-4 0-8-2-11-6l-30-37-30 38c-1 2-3 3-5 4-2 1-4 2-6 2-2 0-5 0-7-1-2-1-4-2-5-3-2-1-3-3-4-5-1-2-2-4-2-6 0-2 0-5 1-7 0-2 1-4 3-5l34-43-34-43c-3-3-4-7-4-12 1-4 3-8 6-10 4-3 8-4 12-4 4 1 8 3 11 6l30 37 30-38c2-2 4-3 6-4 2-1 4-2 7-2 3 0 6 0 9 2 3 2 5 4 7 7 1 3 1 7 1 10-1 3-2 6-5 8l-34 43 35 43c1 1 2 3 3 6 0 2 1 4 0 6 0 2-1 4-2 6-1 2-3 4-4 5z" />
			<glyph glyph-name="chat-error" unicode="&#102;" d="M201 213l55 56 55-56 30 30-55 56 55 55-30 30-55-55-55 55-30-30 55-55-55-56z m-158-170l0 384c0 11 4 21 12 30 9 8 19 12 30 12l342 0c11 0 21-4 30-12 8-9 12-19 12-30l0-256c0-12-4-22-12-30-9-9-19-13-30-13l-299 0z m67 128l317 0 0 256-342 0 0-280z m-25 0l0 256z" />
			<glyph glyph-name="check" unicode="&#103;" d="M204 116l-135 135 40 40 95-95 200 200 40-40z" />
			<glyph glyph-name="closed" unicode="&#104;" d="M134 94l-39 40 121 122-121 123 39 40 123-122 121 122 39-40-121-123 121-122-39-40-121 123z" />
			<glyph glyph-name="coin" unicode="&#105;" d="M237 107l37 0 0 26c18 4 33 10 46 21 13 11 19 27 19 48 0 15-4 28-13 41-8 12-25 23-51 32-21 7-36 14-44 19-8 5-12 12-12 22 0 9 3 16 10 22 6 5 16 8 28 8 11 0 20-3 27-9 6-5 11-12 14-20l34 14c-4 12-11 23-22 32-10 9-22 15-35 16l0 26-37 0 0-26c-18-4-32-12-42-24-10-12-15-25-15-39 0-17 5-30 15-41 10-10 25-19 46-26 23-9 38-16 47-22 9-7 13-15 13-25 0-12-4-21-13-26-8-6-18-9-30-9-12 0-22 4-31 11-9 8-16 19-20 33l-35-14c5-17 13-31 23-41 10-10 24-18 41-22z m19-64c-30 0-57 5-83 16-26 12-49 27-68 46-19 19-34 42-46 68-11 26-16 53-16 83 0 30 5 57 16 83 12 26 27 49 46 68 19 19 42 34 68 46 26 11 53 16 83 16 30 0 57-5 83-16 26-12 49-27 68-46 19-19 34-42 46-68 11-26 16-53 16-83 0-30-5-57-16-83-12-26-27-49-46-68-19-19-42-34-68-46-26-11-53-16-83-16z" />
			<glyph glyph-name="content-copy" unicode="&#106;" d="M107 64c-12 0-22 4-30 13-9 8-13 18-13 30l0 298c0 12 4 22 13 30 8 9 18 13 30 13l89 0c4 12 11 23 23 31 11 8 23 12 37 12 14 0 27-4 38-12 11-8 19-19 23-31l88 0c12 0 22-4 30-13 9-8 13-18 13-30l0-298c0-12-4-22-13-30-8-9-18-13-30-13z m0 43l298 0 0 298-42 0 0-64-214 0 0 64-42 0z m149 298c6 0 11 2 15 6 4 5 6 10 6 16 0 6-2 11-6 15-4 4-9 6-15 6-6 0-11-2-15-6-4-4-6-9-6-15 0-6 2-11 6-16 4-4 9-6 15-6z" />
			<glyph glyph-name="contrast-mode" unicode="&#107;" d="M256 43c-30 0-57 5-83 16-26 12-49 27-68 46-19 19-34 42-46 68-11 26-16 53-16 83 0 30 5 57 16 83 12 26 27 49 46 68 19 19 42 34 68 46 26 11 53 16 83 16 30 0 57-5 83-16 26-12 49-27 68-46 19-19 34-42 46-68 11-26 16-53 16-83 0-30-5-57-16-83-12-26-27-49-46-68-19-19-42-34-68-46-26-11-53-16-83-16z m21 44c43 5 78 24 107 56 28 31 43 69 43 113 0 44-15 82-43 113-29 32-64 51-107 56z" />
			<glyph glyph-name="dark-mode-fill" unicode="&#109;" d="M256 64c-53 0-99 19-136 56-37 37-56 83-56 136 0 53 19 99 56 136 37 37 83 56 136 56 5 0 10 0 15-1 4 0 9 0 14-1-15-10-26-24-35-40-9-17-13-35-13-54 0-32 11-59 33-82 23-22 50-33 82-33 20 0 38 4 54 13 16 9 30 20 40 35 1-5 1-10 1-14 1-5 1-10 1-15 0-53-19-99-56-136-37-37-83-56-136-56z" />
			<glyph glyph-name="delete" unicode="&#110;" d="M149 64c-11 0-21 4-30 13-8 8-12 18-12 30l0 277-22 0 0 43 107 0 0 21 128 0 0-21 107 0 0-43-22 0 0-277c0-12-4-22-12-30-9-9-19-13-30-13z m214 320l-214 0 0-277 214 0z m-171-235l43 0 0 192-43 0z m85 0l43 0 0 192-43 0z m-128 235l0-277z" />
			<glyph glyph-name="document" unicode="&#111;" d="M128 43c-12 0-22 4-30 12-8 9-13 19-13 30l0 342c0 11 5 21 13 30 8 8 18 12 30 12l171 0 128-128 0-256c0-11-5-21-13-30-8-8-18-12-30-12z m149 277l0 107-149 0 0-342 256 0 0 235z m-149 107l0-107 0 107 0-342z" />
			<glyph glyph-name="download" unicode="&#112;" d="M256 171l-107 106 30 31 56-55 0 174 42 0 0-174 56 55 30-31z m-128-86c-12 0-22 5-30 13-8 8-13 18-13 30l0 64 43 0 0-64 256 0 0 64 43 0 0-64c0-12-5-22-13-30-8-8-18-13-30-13z" />
			<glyph glyph-name="edit" unicode="&#113;" d="M107 107l30 0 184 184-30 30-184-184z m305 215l-91 89 30 30c8 8 18 12 30 12 12 0 22-4 30-12l30-30c8-8 13-18 13-29 0-12-4-22-12-30z m-31-32l-226-226-91 0 0 91 226 226z m-75 16l-15 15 30-30z" />
			<glyph glyph-name="email" unicode="&#114;" d="M256 43c-30 0-57 5-83 16-26 12-49 27-68 46-19 19-34 42-46 68-11 26-16 53-16 83 0 30 5 57 16 83 12 26 27 49 46 68 19 19 42 34 68 46 26 11 53 16 83 16 30 0 57-5 83-16 26-12 49-27 68-46 19-19 34-42 46-68 11-26 16-53 16-83l0-31c0-21-7-39-21-54-15-14-32-22-53-22-13 0-25 3-36 8-11 6-20 13-27 23-11-10-22-18-35-23-13-5-27-8-41-8-30 0-55 11-75 32-21 20-32 45-32 75 0 30 11 55 32 75 20 21 45 32 75 32 30 0 55-11 75-32 21-20 32-45 32-75l0-31c0-9 3-17 9-23 6-7 13-10 23-10 9 0 17 3 23 10 6 6 9 14 9 23l0 31c0 48-17 88-50 121-33 33-73 50-121 50-48 0-88-17-121-50-33-33-50-73-50-121 0-48 17-88 50-121 33-33 73-50 121-50l107 0 0-42z m0 149c18 0 33 6 45 19 13 12 19 27 19 45 0 18-6 33-19 45-12 13-27 19-45 19-18 0-33-6-45-19-13-12-19-27-19-45 0-18 6-33 19-45 12-13 27-19 45-19z" />
			<glyph glyph-name="empty" unicode="&#115;" d="M107 50c-16 0-29 6-40 17-11 11-17 24-17 40l0 298c0 16 6 29 17 40 11 11 24 17 40 17l298 0c16 0 29-6 40-17 11-11 17-24 17-40l0-298c0-16-6-29-17-40-11-11-24-17-40-17z m0 57l298 0 0 298-298 0z" />
			<glyph glyph-name="error" unicode="&#116;" d="M256 149c6 0 11 2 15 6 4 5 6 10 6 16 0 6-2 11-6 15-4 4-9 6-15 6-6 0-11-2-15-6-4-4-6-9-6-15 0-6 2-11 6-16 4-4 9-6 15-6z m-21 86l42 0 0 128-42 0z m21-192c-30 0-57 5-83 16-26 12-49 27-68 46-19 19-34 42-46 68-11 26-16 53-16 83 0 30 5 57 16 83 12 26 27 49 46 68 19 19 42 34 68 46 26 11 53 16 83 16 30 0 57-5 83-16 26-12 49-27 68-46 19-19 34-42 46-68 11-26 16-53 16-83 0-30-5-57-16-83-12-26-27-49-46-68-19-19-42-34-68-46-26-11-53-16-83-16z" />
			<glyph glyph-name="excel" unicode="&#117;" d="M454 329l-12 0 0 59c0 1 0 1 0 1 0 3-1 5-3 7l-98 113c-1 0-1 0-1 0 0 0-1 1-2 1 0 0 0 1 0 1-1 0-2 0-2 1 0 0-1 0-1 0 0 0-1 0-2 0l-243 0c-11 0-20-9-20-20l0-163-12 0c-16 0-29-13-29-29l0-149c0-16 13-29 29-29l12 0 0-102c0-11 9-20 20-20l332 0c11 0 20 9 20 20l0 102 12 0c16 0 29 13 29 29l0 149c0 16-13 29-29 29z m-364 163l233 0 0-103c0-5 4-10 10-10l89 0 0-50-332 0z m226-309l0-30-96 0 0 154 35 0 0-124z m-247-29l44 77-42 76 39 0 14-28c4-9 8-17 11-26l1 0c4 10 7 17 10 26l13 28 40 0-43-75 45-79-40 0-14 28c-5 11-9 19-13 28l-1 0c-3-9-7-17-12-28l-12-28-40 0z m353-128l-332 0 0 96 332 0 0-96z m-48 125c-18 0-35 5-44 10l7 28c10-5 24-9 39-9 16 0 24 6 24 16 0 10-7 15-26 22-25 9-42 23-42 45 0 26 22 46 58 46 18 0 30-3 39-7l-7-28c-6 3-17 7-32 7-15 0-23-7-23-15 0-10 9-14 29-22 27-10 40-24 40-45 0-26-20-48-62-48z" />
			<glyph glyph-name="expand" unicode="&#118;" d="M256 184l-128 128 30 30 98-98 98 98 30-30z" />
			<glyph glyph-name="expand-less" unicode="&#119;" d="M158 184l-30 30 128 128 128-128-30-30-98 98z" />
			<glyph glyph-name="flag-usa" unicode="&#120;" d="M512 256c0-141-115-256-256-256-141 0-256 115-256 256 0 141 115 256 256 256 141 0 256-115 256-256z m-267 0l267 0c0 23-3 45-9 67l-258 0z m0 134l229 0c-15 25-35 48-59 66l-170 0z m11-390c60 0 116 21 159 56l-318 0c43-35 99-56 159-56z m-218 122l436 0c13 21 23 44 29 67l-494 0c6-23 16-46 29-67z m81 350l23 0-22-16 9-25-22 16-22-16 7 22c-19-16-36-35-49-56l7 0-14-10c-2-3-4-7-6-11l7-20-13 9c-3-6-5-13-8-20l7-22 27 0-22-16 9-25-22 15-13-9c-1-11-2-21-2-32l256 0 0 256c-51 0-98-15-137-40z m10-190l-22 15-22-15 8 25-21 16 27 0 8 25 8-25 27 0-22-16z m-9 100l9-26-22 16-22-16 8 26-21 15 27 0 8 26 8-26 27 0z m100-100l-21 15-22-15 8 25-21 16 26 0 9 25 8-25 27 0-22-16z m-8 100l8-26-21 16-22-16 8 26-21 15 26 0 9 26 8-26 27 0z m0 74l8-25-21 16-22-16 8 25-21 16 26 0 9 26 8-26 27 0z" />
			<glyph glyph-name="help" unicode="&#121;" d="M226 183c0 28 3 50 9 64 5 14 17 28 34 40 16 13 27 23 33 32 7 8 10 21 10 37 0 13-5 24-14 33-9 9-21 14-38 14-14 0-27-5-39-14-12-9-20-22-25-38l-65 28c10 28 26 51 49 68 22 17 49 25 80 25 39 0 69-12 90-35 21-24 31-51 31-81 0-23-3-41-10-56-7-14-20-29-38-45-16-13-26-25-31-35-4-10-7-22-7-37z m34-154c-15 0-29 5-40 16-11 11-16 25-16 40 0 16 5 29 16 40 11 11 25 17 40 17 16 0 29-6 40-17 11-11 17-24 17-40 0-15-6-29-17-40-11-11-24-16-40-16z" />
			<glyph glyph-name="help-fill" unicode="&#122;" d="M255 116c9 0 16 3 23 10 6 6 9 13 9 22 0 9-3 17-9 23-6 6-14 9-23 9-9 0-17-3-23-9-6-6-9-14-9-23 0-9 3-16 9-22 6-7 14-10 23-10z m-26 90l53 0c0 13 1 24 3 32 2 7 11 18 25 32 10 8 17 17 23 26 5 10 8 21 8 34 0 22-8 38-24 50-17 11-36 17-59 17-23 0-42-6-56-18-15-12-24-27-29-45l46-18c0 6 4 13 10 21 5 9 15 13 29 13 10 0 18-3 24-9 5-5 8-11 8-18 0-7-2-14-7-20-4-6-10-12-16-17-18-16-29-27-32-34-4-7-6-23-6-46z m27-180c-32 0-62 6-90 18-28 12-52 28-73 49-21 21-37 45-49 73-12 28-18 58-18 90 0 32 6 62 18 90 12 28 28 53 49 73 21 21 45 38 73 50 28 11 58 17 90 17 32 0 62-6 90-17 28-12 53-29 73-50 21-20 38-45 50-73 11-28 17-58 17-90 0-32-6-62-17-90-12-28-29-52-50-73-20-21-45-37-73-49-28-12-58-18-90-18z" />
			<glyph glyph-name="hoy" unicode="&#65;" d="M369 0l-226 0c-79 0-143 64-143 143l0 226c0 79 64 143 143 143l226 0c79 0 143-64 143-143l0-226c0-79-64-143-143-143z m-226 469c-56 0-100-44-100-100l0-226c0-56 44-101 100-101l226 0c56 0 101 45 101 101l0 226c0 56-45 100-101 100z m6-340l0 254 44 0 0-111 127 0 0 111 44 0 0-256-44 0 0 105-127 0 0-105-44 0z" />
			<glyph glyph-name="info" unicode="&#66;" d="M227 141l58 0 0 136-58 0z m29 168c9 0 17 3 23 10 6 6 9 13 9 22 0 9-3 17-9 23-6 6-14 9-23 9-9 0-17-3-23-9-6-6-9-14-9-23 0-9 3-16 9-22 6-7 14-10 23-10z m0-284c-32 0-63 6-91 18-28 12-52 28-73 49-21 21-37 45-49 73-12 28-18 59-18 91 0 32 6 63 18 91 12 28 28 52 49 73 21 21 45 37 73 49 28 12 59 18 91 18 32 0 63-6 91-18 28-12 52-28 73-49 21-21 37-45 49-73 12-28 18-59 18-91 0-32-6-63-18-91-12-28-28-52-49-73-21-21-45-37-73-49-28-12-59-18-91-18z" />
			<glyph glyph-name="light-mode-fill" unicode="&#67;" d="M256 142c-32 0-58 11-81 33-22 23-33 49-33 81 0 32 11 58 33 81 23 22 49 33 81 33 32 0 58-11 81-33 22-23 33-49 33-81 0-32-11-58-33-81-23-22-49-33-81-33z m-213 86c-8 0-15 2-20 8-6 6-9 12-9 20 0 8 3 14 9 20 5 6 12 8 20 8l42 0c8 0 15-2 20-8 6-6 9-12 9-20 0-8-3-14-9-20-5-6-12-8-20-8z m384 0c-8 0-15 2-20 8-6 6-9 12-9 20 0 8 3 14 9 20 5 6 12 8 20 8l42 0c8 0 15-2 20-8 6-6 9-12 9-20 0-8-3-14-9-20-5-6-12-8-20-8z m-171 170c-8 0-14 3-20 9-6 5-8 12-8 20l0 42c0 8 2 15 8 20 6 6 12 9 20 9 8 0 14-3 20-9 6-5 8-12 8-20l0-42c0-8-2-15-8-20-6-6-12-9-20-9z m0-384c-8 0-14 3-20 9-6 5-8 12-8 20l0 42c0 8 2 15 8 20 6 6 12 9 20 9 8 0 14-3 20-9 6-5 8-12 8-20l0-42c0-8-2-15-8-20-6-6-12-9-20-9z m-140 343l-23 22c-6 6-9 13-8 20 0 8 2 15 8 20 5 6 12 9 20 9 7 0 14-3 20-9l22-23c6-5 8-12 8-19 0-8-2-15-8-20-5-6-11-9-19-8-8 0-15 2-20 8z m263-264l-22 23c-6 5-8 12-8 19 0 8 3 15 8 20 5 6 12 9 19 8 8 0 15-2 20-8l23-22c6-6 9-13 8-20 0-8-2-15-8-20-5-6-12-9-20-9-7 0-14 3-20 9z m-22 264c-6 5-9 11-8 19 0 8 2 15 8 20l22 23c6 6 13 9 20 8 8 0 15-2 20-8 6-5 9-12 9-20 0-7-3-14-9-20l-23-22c-5-6-12-8-19-8-8 0-15 2-20 8z m-264-264c-6 5-9 12-9 20 0 7 3 14 9 20l23 22c5 6 12 8 19 8 8 0 15-3 20-8 6-5 9-12 8-19 0-8-2-15-8-20l-22-23c-6-6-13-9-20-8-8 0-15 2-20 8z" />
			<glyph glyph-name="link-off" unicode="&#68;" d="M411 161l-32 33c14 4 25 12 34 23 9 11 14 24 14 39 0 18-7 33-19 45-12 13-28 19-45 19l-86 0 0 43 86 0c29 0 54-11 75-32 21-20 31-45 31-75 0-20-5-39-15-56-11-17-25-30-43-39z m-73 74l-43 42 46 0 0-42z m84-205l-392 392 30 30 392-392z m-187 119l-86 0c-29 0-54 11-75 32-21 20-31 45-31 75 0 25 7 46 22 66 15 19 34 31 58 37l39-39-13 0c-17 0-33-6-45-19-12-12-19-27-19-45 0-18 7-33 19-45 12-13 28-19 45-19l86 0z m-64 86l0 42 34 0 42-42z" />
			<glyph glyph-name="log-out" unicode="&#69;" d="M103 47c-15 0-28 5-39 17-12 11-17 24-17 39l0 306c0 15 5 28 17 39 11 12 24 17 39 17l153 0 0-56-153 0 0-306 153 0 0-56z m234 81l-40 42 58 58-166 0 0 57 166 0-58 58 40 41 128-128z" />
			<glyph glyph-name="menu" unicode="&#70;" d="M64 128l0 36 384 0 0-36z m0 110l0 36 384 0 0-36z m0 110l0 36 384 0 0-36z" />
			<glyph glyph-name="navigate-before" unicode="&#71;" d="M299 128l-128 128 128 129 25-26-103-103 103-103z" />
			<glyph glyph-name="navigate-next" unicode="&#72;" d="M269 256l-98 98 30 30 128-128-128-128-30 30z" />
			<glyph glyph-name="null" unicode="&#73;" d="M307 512l-205 0c-13 0-26-5-36-15-9-9-15-23-15-36l0-410c0-13 6-26 15-36 10-10 23-15 36-15l109 0c-4 9-6 19-6 29l0 22-103 0 0 410 180 0 0-128 128 0 0-48 51 0 0 73z m-3-327l0-128 29 0 0 128z m57 0l0-128 29 0 0 128z m0 0l0-128 29 0 0 128z m-57-128l29 0 0 128-29 0z m86 185l0 14-86 0 0-14-71 0 0-29 14 0 0-184c1-16 13-29 29-29l142 0c8 0 15 3 20 8l1 2c5 5 8 12 8 19l0 184 14 0 0 29z m-114-213l0 184 142 0 0-184z m85 28l29 0 0 128-29 0z m-57 0l29 0 0 128-29 0z m0 128l0-128 29 0 0 128z m57 0l0-128 29 0 0 128z m-57 0l0-128 29 0 0 128z m57 0l0-128 29 0 0 128z" />
			<glyph glyph-name="open" unicode="&#74;" d="M107 64c-12 0-22 4-30 13-9 8-13 18-13 30l0 298c0 12 4 22 13 30 8 9 18 13 30 13l149 0 0-43-149 0 0-298 298 0 0 149 43 0 0-149c0-12-4-22-13-30-8-9-18-13-30-13z m100 113l-30 30 198 198-76 0 0 43 149 0 0-149-43 0 0 76z" />
			<glyph glyph-name="pdf" unicode="&#75;" d="M149 250c0 13-9 22-26 22-7 0-12-1-14-2l0-44c3-1 6-1 11-1 18 0 29 9 29 25z m105 21c-8 0-13 0-16-1l0-98c3-1 8-1 12-1 31 0 51 17 51 53 0 31-18 47-47 47z m200 58l-12 0 0 59c0 1 0 1 0 1 0 3-1 5-3 7l-98 113c-1 0-1 0-1 0 0 0-1 1-2 1 0 0 0 1 0 1-1 0-2 0-2 1 0 0-1 0-1 0 0 0-1 0-2 0l-243 0c-11 0-20-9-20-20l0-163-12 0c-16 0-29-13-29-29l0-149c0-16 13-29 29-29l12 0 0-102c0-11 9-20 20-20l332 0c11 0 20 9 20 20l0 102 12 0c16 0 29 13 29 29l0 149c0 16-13 29-29 29z m-364 163l233 0 0-103c0-5 4-10 10-10l89 0 0-50-332 0z m247-267c0-29-11-49-25-61-16-13-40-19-69-19-18 0-30 1-39 2l0 147c13 2 29 3 46 3 29 0 47-5 61-16 16-11 26-30 26-56z m-262-79l0 148c10 2 25 3 46 3 21 0 36-4 46-12 9-7 16-20 16-34 0-15-5-28-14-36-12-11-29-16-49-16-4 0-8 0-11 1l0-54-34 0z m347-120l-332 0 0 96 332 0 0-96z m29 242l-58 0 0-34 54 0 0-28-54 0 0-60-34 0 0 150 92 0z" />
			<glyph glyph-name="person" unicode="&#76;" d="M256 256c-23 0-44 8-60 25-17 17-25 37-25 60 0 24 8 44 25 61 16 16 37 25 60 25 23 0 44-9 60-25 17-17 25-37 25-61 0-23-8-43-25-60-16-17-37-25-60-25z m-171-171l0 60c0 12 3 23 10 33 6 11 14 18 24 24 23 11 45 19 68 24 22 6 46 9 69 9 23 0 47-3 69-9 23-5 45-13 68-24 10-6 18-13 24-24 7-10 10-21 10-33l0-60z" />
			<glyph glyph-name="person-add" unicode="&#77;" d="M384 213l0 64-64 0 0 43 64 0 0 64 43 0 0-64 64 0 0-43-64 0 0-64z m-192 43c-23 0-44 8-60 25-17 17-25 37-25 60 0 24 8 44 25 61 16 16 37 25 60 25 23 0 44-9 60-25 17-17 25-37 25-61 0-23-8-43-25-60-16-17-37-25-60-25z m-171-171l0 60c0 12 3 23 10 33 6 11 14 18 24 24 23 11 45 19 68 24 22 6 46 9 69 9 23 0 47-3 69-9 23-5 45-13 68-24 10-6 18-13 24-24 7-10 10-21 10-33l0-60z" />
			<glyph glyph-name="pin" unicode="&#78;" d="M341 256l43-43 0-42-107 0 0-128-21-22-21 22 0 128-107 0 0 42 43 43 0 149-22 0 0 43 214 0 0-43-22 0z" />
			<glyph glyph-name="print" unicode="&#79;" d="M341 341l0 64-170 0 0-64-43 0 0 107 256 0 0-107z m-256-42l342 0z m299-54c6 0 11 2 15 6 4 5 6 10 6 16 0 6-2 11-6 15-4 4-9 6-15 6-6 0-11-2-15-6-4-4-6-9-6-15 0-6 2-11 6-16 4-4 9-6 15-6z m-43-138l0 85-170 0 0-85z m43-43l-256 0 0 85-85 0 0 128c0 18 6 34 18 46 13 12 28 18 46 18l298 0c18 0 34-6 46-18 12-12 18-28 18-46l0-128-85 0z m43 128l0 85c0 6-2 11-6 16-5 4-10 6-16 6l-298 0c-6 0-11-2-16-6-4-5-6-10-6-16l0-85 43 0 0 43 256 0 0-43z" />
			<glyph glyph-name="problem" unicode="&#80;" d="M149 171c6 0 11 2 16 6 4 4 6 9 6 15 0 6-2 11-6 15-5 4-10 6-16 6-6 0-11-2-15-6-4-4-6-9-6-15 0-6 2-11 6-15 4-4 9-6 15-6z m-21 64l43 0 0 106-43 0z m85-43l171 0 0 43-171 0z m0 85l171 0 0 43-171 0z m-128-192c-11 0-21 5-30 13-8 8-12 18-12 30l0 256c0 12 4 22 12 30 9 8 19 13 30 13l342 0c11 0 21-5 30-13 8-8 12-18 12-30l0-256c0-12-4-22-12-30-9-8-19-13-30-13z" />
			<glyph glyph-name="remove" unicode="&#81;" d="M90 228l0 57 332 0 0-57z" />
			<glyph glyph-name="restart" unicode="&#82;" d="M235 65c-43 5-79 24-107 56-29 33-43 70-43 114 0 23 5 46 14 67 9 22 23 40 40 56l30-30c-13-12-24-26-31-42-7-16-10-33-10-51 0-32 10-59 30-83 20-24 45-39 77-44z m42 0l0 43c31 5 57 20 77 44 20 24 30 51 30 83 0 35-12 65-37 90-25 25-55 38-91 38l-2 0 24-24-30-30-75 75 75 75 30-30-24-24 2 0c48 0 88-16 121-49 33-33 50-74 50-121 0-43-14-81-43-113-28-32-64-51-107-57z" />
			<glyph glyph-name="save-fill" unicode="&#83;" d="M465 370l0-267c0-15-5-28-17-39-11-12-24-17-39-17l-306 0c-15 0-28 5-39 17-12 11-17 24-17 39l0 306c0 15 5 28 17 39 11 12 24 17 39 17l267 0z m-209-249c20 0 37 6 51 20 14 14 20 31 20 51 0 20-6 37-20 51-14 14-31 20-51 20-20 0-37-6-51-20-14-14-20-31-20-51 0-20 6-37 20-51 14-14 31-20 51-20z m-135 170l209 0 0 100-209 0z" />
			<glyph glyph-name="search" unicode="&#84;" d="M418 64l-134 134c-11-8-23-15-37-20-14-5-29-7-44-7-39 0-72 13-99 40-27 27-40 60-40 98 0 39 13 72 40 99 27 27 60 40 99 40 38 0 71-13 98-40 27-27 40-60 40-99 0-15-2-30-7-44-5-14-12-26-20-37l134-134z m-215 149c26 0 49 10 68 28 18 19 28 42 28 68 0 27-10 50-28 68-19 19-42 28-68 28-27 0-50-9-68-28-19-18-28-41-28-68 0-26 9-49 28-68 18-18 41-28 68-28z" />
			<glyph glyph-name="settings" unicode="&#85;" d="M197 43l-8 68c-5 2-9 4-13 6-4 3-8 5-12 8l-64-26-58 101 55 42c-1 2-1 4-1 7l0 14c0 3 0 5 1 7l-55 42 58 101 64-26c4 3 8 5 12 8 4 2 9 4 13 6l8 68 118 0 8-68c5-2 9-4 13-6 4-3 8-5 12-8l64 26 58-101-55-42c1-2 1-4 1-7l0-14c0-3 0-5-1-7l55-42-59-101-63 26c-4-3-8-5-12-8-4-2-9-4-13-6l-8-68z m60 138c21 0 38 8 53 22 14 15 22 32 22 53 0 21-8 38-22 53-15 14-32 22-53 22-21 0-39-8-53-22-14-15-22-32-22-53 0-21 8-38 22-53 14-14 32-22 53-22z" />
			<glyph glyph-name="support" unicode="&#86;" d="M235 64l0 43 170 0 0 151c0 42-14 77-43 106-29 29-64 43-106 43-42 0-77-14-106-43-29-29-43-64-43-106l0-130-22 0c-11 0-21 4-30 13-8 8-12 18-12 30l0 42c0 8 2 15 5 21 4 7 9 12 16 16l2 28c2 25 9 47 21 68 11 20 25 38 42 53 17 16 36 28 58 36 22 9 45 13 69 13 24 0 47-4 69-13 21-8 41-20 58-35 17-15 31-33 42-54 11-20 18-43 21-67l2-28c7-3 12-8 16-14 3-7 5-13 5-20l0-50c0-7-2-13-5-20-4-6-9-11-16-14l0-26c0-12-4-22-13-30-8-9-18-13-30-13z m-43 149c-6 0-11 2-15 6-4 5-6 10-6 16 0 6 2 11 6 15 4 4 9 6 15 6 6 0 11-2 15-6 4-4 6-9 6-15 0-6-2-11-6-16-4-4-9-6-15-6z m128 0c-6 0-11 2-15 6-4 5-6 10-6 16 0 6 2 11 6 15 4 4 9 6 15 6 6 0 11-2 15-6 4-4 6-9 6-15 0-6-2-11-6-16-4-4-9-6-15-6z m-191 33c-3 38 8 70 34 97 25 27 56 41 94 41 32 0 60-10 84-30 24-20 38-46 43-77-32 0-62 9-89 26-28 17-48 40-63 69-6-28-18-54-36-76-18-22-41-39-67-50z" />
			<glyph glyph-name="sync" unicode="&#87;" d="M90 77l0 38 56 0-3 3c-23 20-40 41-51 63-11 21-17 46-17 73 0 42 13 80 40 112 26 33 60 54 102 64l0-51c-27-8-49-24-66-47-17-23-25-49-25-78 0-21 4-39 12-54 7-15 18-29 32-40l12-8 0 56 38 0 0-131z m206 4l0 52c27 8 49 24 66 47 16 23 24 49 24 78 0 15-4 31-12 48-8 16-18 31-30 43l-12 11 0-56-39 0 0 131 131 0 0-38-57 0 3-4c22-21 39-43 50-67 11-23 17-46 17-68 0-42-13-80-40-112-26-33-60-55-101-65z" />
			<glyph glyph-name="task" unicode="&#88;" d="M234 128l120 121-31 30-90-90-45 45-30-30z m-106-85c-12 0-22 4-30 12-8 9-13 19-13 30l0 342c0 11 5 21 13 30 8 8 18 12 30 12l171 0 128-128 0-256c0-11-5-21-13-30-8-8-18-12-30-12z m149 277l0 107-149 0 0-342 256 0 0 235z m-149 107l0-107 0 107 0-342z" />
			<glyph glyph-name="text" unicode="&#89;" d="M171 128l170 0 0 43-170 0z m0 85l170 0 0 43-170 0z m-43-170c-12 0-22 4-30 12-8 9-13 19-13 30l0 342c0 11 5 21 13 30 8 8 18 12 30 12l171 0 128-128 0-256c0-11-5-21-13-30-8-8-18-12-30-12z m149 277l0 107-149 0 0-342 256 0 0 235z m-149 107l0-107 0 107 0-342z" />
			<glyph glyph-name="upload" unicode="&#90;" d="M235 171l0 174-56-56-30 31 107 107 107-107-30-31-56 56 0-174z m-107-86c-12 0-22 5-30 13-8 8-13 18-13 30l0 64 43 0 0-64 256 0 0 64 43 0 0-64c0-12-5-22-13-30-8-8-18-13-30-13z" />
			<glyph glyph-name="window-off" unicode="&#48;" d="M437 15l-220 220-132 0 0-150 256 0 0 86 43-42 0-44c0-11-4-21-13-30-8-8-18-12-30-12l-256 0c-11 0-21 4-30 12-8 9-12 19-12 30l0 192c0 12 4 22 12 30 9 9 19 13 30 13l43 0 0 4-114 113 31 31 422-423z m-53 174l-131 131 88 0c12 0 22-4 30-13 9-8 13-18 13-30l0-42 43 0 0 149-238 0-58 58c3 8 8 15 15 20 8 5 16 7 25 7l256 0c11 0 21-4 30-12 8-9 12-19 12-30l0-192c0-12-4-22-12-30-9-9-19-13-30-13l-43 0z" />
			<glyph glyph-name="zip" unicode="&#49;" d="M22 480l148 0c1-6 2-13 2-20 0-9-1-16-2-22l-148 0c-1 6-2 13-2 22 0 7 1 14 2 20z m13-9l0-23m36-53l-49 0c-1 6-2 14-2 22 0 8 1 15 2 21l148 0c1-6 2-13 2-21 0-8-1-16-2-22l-51 0m-84 33l0-22m84-11l51 0c1-6 2-13 2-20 0-9-1-16-2-22l-148 0c-1 6-2 13-2 22 0 7 1 14 2 20l49 0m-36-10l0-23m40 122l42 0 0-136-42 0z m0-61l-5 0-2-42 56 0-2 42-5 0m-24-40l-2 16c0 3 3 4 5 4 2 0 4-1 5-4-1-5-1-11-2-16z" />
			<glyph glyph-name="zoom-int" unicode="&#50;" d="M418 64l-134 134c-11-8-23-15-37-20-14-5-29-7-44-7-39 0-72 13-99 40-27 27-40 60-40 98 0 39 13 72 40 99 27 27 60 40 99 40 38 0 71-13 98-40 27-27 40-60 40-99 0-15-2-30-7-44-5-14-12-26-20-37l134-134z m-215 149c26 0 49 10 68 28 18 19 28 42 28 68 0 27-10 50-28 68-19 19-42 28-68 28-27 0-50-9-68-28-19-18-28-41-28-68 0-26 9-49 28-68 18-18 41-28 68-28z m-22 32l0 43-42 0 0 43 42 0 0 42 43 0 0-42 43 0 0-43-43 0 0-43z" />
			<glyph glyph-name="zoom-out" unicode="&#51;" d="M418 64l-134 134c-11-8-23-15-37-20-14-5-29-7-44-7-39 0-72 13-99 40-27 27-40 60-40 98 0 39 13 72 40 99 27 27 60 40 99 40 38 0 71-13 98-40 27-27 40-60 40-99 0-15-2-30-7-44-5-14-12-26-20-37l134-134z m-215 149c26 0 49 10 68 28 18 19 28 42 28 68 0 27-10 50-28 68-19 19-42 28-68 28-27 0-50-9-68-28-19-18-28-41-28-68 0-26 9-49 28-68 18-18 41-28 68-28z m-54 75l0 43 107 0 0-43z" />
			<glyph glyph-name="copy" unicode="&#108;" d="M405 107l-234 0c-12 0-22 4-30 12-9 9-13 19-13 30l0 299c0 12 4 22 13 30 8 8 18 13 30 13l149 0 128-128 0-214c0-11-4-21-13-30-8-8-18-12-30-12z m-106 234l0 107-128 0 0-299 234 0 0 192z m-214-320c-11 0-21 5-30 13-8 8-12 18-12 30l0 299 42 0 0-299 235 0 0-43z m86 427l0-107 0 107 0-299z" />
		</font>
</defs>
</svg>
