<svg id="Capa_1" data-name="Capa 1" xmlns="http://www.w3.org/2000/svg" viewBox="0 0 60 60"><defs><style>.cls-1{fill:#fff;}.cls-2{fill:#005883;}.cls-3{fill:#efb428;}</style></defs><g id="ANALITICA"><path class="cls-1" d="M52.5,10.83a8.35,8.35,0,0,0-6-2.46H34.8a1.67,1.67,0,0,0-.08-.2A5.06,5.06,0,0,0,33.5,6.39,5.13,5.13,0,0,0,30,5l-.48,0-.29,0a4,4,0,0,0-.46.11A5.14,5.14,0,0,0,26,7a5.28,5.28,0,0,0-.78,1.39H13.45A8.42,8.42,0,0,0,5,16.78V38.3a8.42,8.42,0,0,0,8.42,8.41h2.6a5.52,5.52,0,0,0-.81,1.49,5.19,5.19,0,0,0,.22,3.91,5.12,5.12,0,0,0,2.93,2.61,5.29,5.29,0,0,0,1.68.28,5.06,5.06,0,0,0,2.26-.53l4.49-2.24A5.05,5.05,0,0,0,30,53.33a5.11,5.11,0,0,0,3.18-1.1l4.53,2.26a5.19,5.19,0,0,0,2.22.51,5.11,5.11,0,0,0,4.83-6.79,5.34,5.34,0,0,0-.82-1.5h2.61A8.42,8.42,0,0,0,55,38.3V16.78A8.36,8.36,0,0,0,52.5,10.83Zm-7.56,9a1.69,1.69,0,0,1-.51.91l-6.62,6.62a1.53,1.53,0,0,1-.54.37,1.64,1.64,0,0,1-.65.13,1.69,1.69,0,0,1-1.19-.5L32,24l-5.54,9.67a1.72,1.72,0,0,1-.65.66,1.61,1.61,0,0,1-.91.19,1.65,1.65,0,0,1-1.43-1.06l-2.38-5.89L18,30.68a1.63,1.63,0,0,1-1.19.49,1.64,1.64,0,0,1-.65-.13,1.51,1.51,0,0,1-.54-.36,1.72,1.72,0,0,1-.37-.55,1.74,1.74,0,0,1-.13-.64,1.84,1.84,0,0,1,.13-.65,1.68,1.68,0,0,1,.37-.54l5-5a1.68,1.68,0,0,1,.71-.43,1.63,1.63,0,0,1,.82,0,1.66,1.66,0,0,1,.74.36,1.8,1.8,0,0,1,.48.68l2,5.07,4.92-8.59a1.74,1.74,0,0,1,.51-.57,1.7,1.7,0,0,1,1.48-.2,1.79,1.79,0,0,1,.65.41l3.77,3.78,5.43-5.43a1.68,1.68,0,0,1,1-.47,1.65,1.65,0,0,1,1,.16,1.63,1.63,0,0,1,.73.74A1.7,1.7,0,0,1,44.94,19.84Z"/><path d="M51.28,12.05a6.65,6.65,0,0,0-4.73-2H33.38a3.5,3.5,0,0,0-.25-1.27A3.42,3.42,0,0,0,30,6.72l-.32,0-.14,0-.36.08a3.4,3.4,0,0,0-2.56,3.25H13.45a6.69,6.69,0,0,0-6.69,6.69V38.3A6.7,6.7,0,0,0,13.45,45h8.83l-3.69,1.84A3.4,3.4,0,0,0,19,53.09a3.56,3.56,0,0,0,1.12.19,3.39,3.39,0,0,0,1.49-.35l5.63-2.82a3.38,3.38,0,0,0,5.62,0l5.65,2.83a3.44,3.44,0,0,0,1.47.34,3.56,3.56,0,0,0,1.12-.19A3.42,3.42,0,0,0,43,51.36a3.4,3.4,0,0,0-1.55-4.52L37.72,45h8.83a6.7,6.7,0,0,0,6.69-6.69V16.78A6.64,6.64,0,0,0,51.28,12.05Zm-6.34,7.79a1.69,1.69,0,0,1-.51.91l-6.62,6.62a1.53,1.53,0,0,1-.54.37,1.64,1.64,0,0,1-.65.13,1.69,1.69,0,0,1-1.19-.5L32,24l-5.54,9.67a1.72,1.72,0,0,1-.65.66,1.61,1.61,0,0,1-.91.19,1.65,1.65,0,0,1-1.43-1.06l-2.38-5.89L18,30.68a1.63,1.63,0,0,1-1.19.49,1.64,1.64,0,0,1-.65-.13,1.51,1.51,0,0,1-.54-.36,1.72,1.72,0,0,1-.37-.55,1.74,1.74,0,0,1-.13-.64,1.84,1.84,0,0,1,.13-.65,1.68,1.68,0,0,1,.37-.54l5-5a1.68,1.68,0,0,1,.71-.43,1.63,1.63,0,0,1,.82,0,1.66,1.66,0,0,1,.74.36,1.8,1.8,0,0,1,.48.68l2,5.07,4.92-8.59a1.74,1.74,0,0,1,.51-.57,1.7,1.7,0,0,1,1.48-.2,1.79,1.79,0,0,1,.65.41l3.77,3.78,5.43-5.43a1.68,1.68,0,0,1,1-.47,1.65,1.65,0,0,1,1,.16,1.63,1.63,0,0,1,.73.74A1.7,1.7,0,0,1,44.94,19.84Z"/><path class="cls-1" d="M11.72,17V37.62a1,1,0,0,0,1,1H47.35a1,1,0,0,0,1-1V17a1,1,0,0,0-1-1H12.72A1,1,0,0,0,11.72,17Zm33.22,2.85a1.69,1.69,0,0,1-.51.91l-6.62,6.62a1.53,1.53,0,0,1-.54.37,1.64,1.64,0,0,1-.65.13,1.69,1.69,0,0,1-1.19-.5L32,24l-5.54,9.67a1.72,1.72,0,0,1-.65.66,1.61,1.61,0,0,1-.91.19,1.65,1.65,0,0,1-1.43-1.06l-2.38-5.89L18,30.68a1.63,1.63,0,0,1-1.19.49,1.64,1.64,0,0,1-.65-.13,1.51,1.51,0,0,1-.54-.36,1.72,1.72,0,0,1-.37-.55,1.74,1.74,0,0,1-.13-.64,1.84,1.84,0,0,1,.13-.65,1.68,1.68,0,0,1,.37-.54l5-5a1.68,1.68,0,0,1,.71-.43,1.63,1.63,0,0,1,.82,0,1.66,1.66,0,0,1,.74.36,1.8,1.8,0,0,1,.48.68l2,5.07,4.92-8.59a1.74,1.74,0,0,1,.51-.57,1.7,1.7,0,0,1,1.48-.2,1.79,1.79,0,0,1,.65.41l3.77,3.78,5.43-5.43a1.68,1.68,0,0,1,1-.47,1.65,1.65,0,0,1,1,.16,1.63,1.63,0,0,1,.73.74A1.7,1.7,0,0,1,44.94,19.84Z"/><path class="cls-2" d="M50.06,12.74a4.92,4.92,0,0,0-3.51-1.46H32.66a1,1,0,0,1-1-1V9.63a1.8,1.8,0,0,0-.13-.69,1.65,1.65,0,0,0-.39-.58,1.85,1.85,0,0,0-.6-.36,1.82,1.82,0,0,0-.7-.08l-.2,0a1.66,1.66,0,0,0-.94.6,1.68,1.68,0,0,0-.36,1.06v.65a1,1,0,0,1-1,1H13.45a5,5,0,0,0-5,5V37.76a5,5,0,0,0,5,5H28.34v.62l-9,4.5a1.67,1.67,0,0,0-.84.95,1.64,1.64,0,0,0,.07,1.27,1.63,1.63,0,0,0,.95.85,1.65,1.65,0,0,0,1.27-.07l7.55-3.78v.63a1.68,1.68,0,0,0,.49,1.17,1.67,1.67,0,0,0,2.34,0,1.68,1.68,0,0,0,.49-1.17v-.63l7.55,3.78a1.65,1.65,0,0,0,1.27.07,1.63,1.63,0,0,0,1-.85,1.64,1.64,0,0,0,.07-1.27,1.67,1.67,0,0,0-.84-.95l-9-4.5v-.62H46.55a5,5,0,0,0,5-5V16.25A5,5,0,0,0,50.06,12.74Zm-2.85,25H12.79a1,1,0,0,1-1-1V17.25a1,1,0,0,1,1-1H47.21a1,1,0,0,1,1,1V36.76A1,1,0,0,1,47.21,37.76Z"/><path d="M44.94,19.84a1.69,1.69,0,0,1-.51.91l-6.62,6.62a1.53,1.53,0,0,1-.54.37,1.64,1.64,0,0,1-.65.13,1.69,1.69,0,0,1-1.19-.5L32,24l-5.54,9.67a1.72,1.72,0,0,1-.65.66,1.61,1.61,0,0,1-.91.19,1.65,1.65,0,0,1-1.43-1.06l-2.38-5.89L18,30.68a1.63,1.63,0,0,1-1.19.49,1.64,1.64,0,0,1-.65-.13,1.51,1.51,0,0,1-.54-.36,1.72,1.72,0,0,1-.37-.55,1.74,1.74,0,0,1-.13-.64,1.84,1.84,0,0,1,.13-.65,1.68,1.68,0,0,1,.37-.54l5-5a1.68,1.68,0,0,1,.71-.43,1.63,1.63,0,0,1,.82,0,1.66,1.66,0,0,1,.74.36,1.8,1.8,0,0,1,.48.68l2,5.07,4.92-8.59a1.74,1.74,0,0,1,.51-.57,1.7,1.7,0,0,1,1.48-.2,1.79,1.79,0,0,1,.65.41l3.77,3.78,5.43-5.43a1.68,1.68,0,0,1,1-.47,1.65,1.65,0,0,1,1,.16,1.63,1.63,0,0,1,.73.74A1.7,1.7,0,0,1,44.94,19.84Z"/><path class="cls-3" d="M25,33.49a.77.77,0,0,1-.36-.13.59.59,0,0,1-.22-.28L22,27.16a1,1,0,0,0-.73-.61l-.2,0a1,1,0,0,0-.71.29L17.24,30a.63.63,0,0,1-.23.16.82.82,0,0,1-.25,0,.75.75,0,0,1-.26-.05.7.7,0,0,1-.2-.12.81.81,0,0,1-.18-.26.74.74,0,0,1-.05-.25.88.88,0,0,1,.06-.29.7.7,0,0,1,.13-.17l5-5a.67.67,0,0,1,.28-.18,1,1,0,0,1,.21,0l.11,0a.59.59,0,0,1,.31.14.9.9,0,0,1,.2.28l2,5.08a1,1,0,0,0,.86.63h.07a1,1,0,0,0,.87-.5l4.92-8.59a.7.7,0,0,1,.22-.26.62.62,0,0,1,.25-.09h.11a1.2,1.2,0,0,1,.24,0,.89.89,0,0,1,.26.18l3.75,3.77a1,1,0,0,0,.71.29h0a1,1,0,0,0,.71-.29l5.43-5.43a.65.65,0,0,1,.38-.19h.16a.6.6,0,0,1,.3.07.63.63,0,0,1,.29.29.72.72,0,0,1,.07.43.65.65,0,0,1-.21.34L37.1,26.66a.5.5,0,0,1-.2.15.74.74,0,0,1-.28.06.53.53,0,0,1-.23,0,.58.58,0,0,1-.25-.17l-3.41-3.41A1,1,0,0,0,32,23h-.13a1,1,0,0,0-.74.49l-5.54,9.67a.76.76,0,0,1-.29.3.62.62,0,0,1-.26.06Z"/></g></svg>