<svg id="Capa_1" data-name="Capa 1" xmlns="http://www.w3.org/2000/svg" viewBox="0 0 60 60"><defs><style>.cls-1{fill:#fff;}.cls-2,.cls-3{fill:#efb428;}.cls-3{fill-rule:evenodd;}.cls-4{fill:#005883;}</style></defs><g id="AUREA"><path class="cls-1" d="M46.37,51.13C41,41.46,38.5,33.41,38.69,26.63a8.41,8.41,0,0,0,1-.3,2.16,2.16,0,0,0,.65-.26,8.85,8.85,0,0,0,5.17-7.66,2.3,2.3,0,0,0,0-1.3,12.71,12.71,0,0,0-1.07-4.28,2.32,2.32,0,0,0-.88-1.63A12.87,12.87,0,0,0,40.3,7.74,3.39,3.39,0,0,0,40,7.35a2.35,2.35,0,0,0-1.63-.8h-.13a12.38,12.38,0,0,0-5.19-1.18A2.48,2.48,0,0,0,31.79,5a2.45,2.45,0,0,0-1.11.26,2.38,2.38,0,0,0-.49.34,18.32,18.32,0,0,0-5.78,1.87,2.43,2.43,0,0,0-2.89,1.38,2.66,2.66,0,0,0-.18.61,18.85,18.85,0,0,0-3.86,4.16,2.41,2.41,0,0,0-1.27.79,2.45,2.45,0,0,0-.59,1.81,2.37,2.37,0,0,0,.12.6,18.71,18.71,0,0,0-1.46,7l-.14.11a2.51,2.51,0,0,0-.2,3.54,2.56,2.56,0,0,0,.58.46,29.14,29.14,0,0,0,2.05,7.5c-.18.37-.35.75-.52,1.12a2.5,2.5,0,0,0,1.26,3.29,2.61,2.61,0,0,0,1,.22A2.47,2.47,0,0,0,19,40a28.12,28.12,0,0,0,6.13,6.65v.9A2.51,2.51,0,0,0,27.64,50h0a2.48,2.48,0,0,0,1.61-.63,28.51,28.51,0,0,0,12,3.37l.5.93a2.6,2.6,0,1,0,4.56-2.52Z"/><path class="cls-2" d="M42.86,50.17c-4-7.61-7.68-17.22-6.61-26l.08-.15h.38a6.07,6.07,0,0,0,6-6.07,9.81,9.81,0,0,0-9.84-9.84,16,16,0,0,0-16,16A26,26,0,0,0,42.25,50l.23.16Z"/><path class="cls-3" d="M35.94,20.19,35.41,20C35.41,20.11,35.64,20.19,35.94,20.19Z"/><path class="cls-4" d="M33,19.55l-.11,0a25.16,25.16,0,0,0-14.78-3.28.2.2,0,0,1-.23-.19.21.21,0,0,1,.19-.22,25.59,25.59,0,0,1,15,3.33.21.21,0,0,1,.07.29A.22.22,0,0,1,33,19.55Z"/><path class="cls-4" d="M34.64,18.22a.26.26,0,0,1-.26-.26,23.23,23.23,0,0,0-2.74-9.88.26.26,0,1,1,.46-.23A23.64,23.64,0,0,1,34.9,18a.27.27,0,0,1-.26.27Z"/><path d="M44.09,52.92a.51.51,0,0,1-.45-.27C37.38,41.34,34.8,32,35.74,24.12a.51.51,0,0,1,.57-.45.52.52,0,0,1,.46.57c-.91,7.67,1.63,16.8,7.78,27.9a.52.52,0,0,1-.2.71A.48.48,0,0,1,44.09,52.92Z"/><path class="cls-4" d="M15.8,26a.23.23,0,0,1-.15-.07.22.22,0,0,1,0-.3,22.58,22.58,0,0,1,17.16-5.35.21.21,0,0,1,.18.23.2.2,0,0,1-.23.18A22.18,22.18,0,0,0,15.94,26,.2.2,0,0,1,15.8,26Z"/><path class="cls-4" d="M27.64,47.68a.21.21,0,0,1-.21-.2c-.05-5.94.73-17,6.58-24.27a.21.21,0,0,1,.3,0,.21.21,0,0,1,0,.29c-5.78,7.17-6.55,18.12-6.49,24A.23.23,0,0,1,27.64,47.68Z"/><path class="cls-4" d="M18.34,37.77l-.08,0a.2.2,0,0,1-.11-.27c3.06-7,8.9-13.18,14.87-15.72a.21.21,0,0,1,.27.11.21.21,0,0,1-.11.28c-5.88,2.49-11.63,8.58-14.65,15.49A.21.21,0,0,1,18.34,37.77Z"/><path class="cls-4" d="M33.79,18.68a.27.27,0,0,1-.24-.16c-1.68-3.74-5.79-6.59-9.09-8a.26.26,0,0,1-.13-.34.25.25,0,0,1,.34-.14c3.38,1.46,7.62,4.4,9.36,8.28a.27.27,0,0,1-.13.35Z"/><path class="cls-4" d="M36.33,20.39A1.89,1.89,0,0,1,35,19.8l.3-.3a1.44,1.44,0,0,0,1.08.48Z"/><path d="M33,19.76a.39.39,0,0,1-.21-.06,24.94,24.94,0,0,0-14.67-3.25.44.44,0,0,1-.45-.38.43.43,0,0,1,.39-.45A25.77,25.77,0,0,1,33.24,19a.41.41,0,0,1,.14.57A.42.42,0,0,1,33,19.76Z"/><path d="M34.64,18.37a.42.42,0,0,1-.42-.41,25,25,0,0,0-2.8-10.27.42.42,0,0,1,.75-.38A25.76,25.76,0,0,1,35.05,18a.4.4,0,0,1-.4.42Z"/><path d="M35.79,18.29a.27.27,0,0,1-.12,0,.25.25,0,0,1-.11-.35,23.63,23.63,0,0,0,2.43-9,.26.26,0,0,1,.28-.25.27.27,0,0,1,.24.28A24.19,24.19,0,0,1,36,18.16.28.28,0,0,1,35.79,18.29Z"/><path d="M36.56,19.06a.26.26,0,0,1-.23-.13.26.26,0,0,1,.1-.35,14,14,0,0,0,5.43-5.66.27.27,0,0,1,.35-.12.28.28,0,0,1,.12.36A14.55,14.55,0,0,1,36.69,19,.31.31,0,0,1,36.56,19.06Z"/><path d="M37,19.86h-.33a.22.22,0,0,1-.21-.22.22.22,0,0,1,.21-.2h0a12,12,0,0,0,6.49-1.81.21.21,0,0,1,.29.06.22.22,0,0,1-.06.29A12.51,12.51,0,0,1,37,19.86Z"/><path d="M40.84,21.94a7.92,7.92,0,0,1-4.63-1.58.21.21,0,0,1-.05-.29.2.2,0,0,1,.28-.06,7.41,7.41,0,0,0,5.63,1.43.2.2,0,0,1,.23.18.21.21,0,0,1-.18.23A9.4,9.4,0,0,1,40.84,21.94Z"/><path d="M39.17,24.31h-.06a5.61,5.61,0,0,1-3.67-3.82.2.2,0,0,1,.14-.26.21.21,0,0,1,.26.14,5.25,5.25,0,0,0,3.4,3.55.2.2,0,0,1,.13.26A.2.2,0,0,1,39.17,24.31Z"/><path d="M15.8,26.21a.42.42,0,0,1-.31-.13.42.42,0,0,1,0-.59,22.82,22.82,0,0,1,17.32-5.41.42.42,0,0,1,.37.46.43.43,0,0,1-.46.37,21.91,21.91,0,0,0-16.67,5.2A.42.42,0,0,1,15.8,26.21Z"/><path d="M27.64,47.89a.41.41,0,0,1-.41-.41c-.06-6,.73-17.08,6.62-24.4a.43.43,0,0,1,.59-.07.42.42,0,0,1,.06.59c-5.73,7.12-6.5,18-6.44,23.87a.41.41,0,0,1-.41.42Z"/><path d="M18.34,38a.35.35,0,0,1-.17,0,.42.42,0,0,1-.21-.55c3.08-7,9-13.26,15-15.82a.41.41,0,0,1,.54.22.42.42,0,0,1-.22.55c-5.83,2.48-11.54,8.52-14.54,15.39A.43.43,0,0,1,18.34,38Z"/><path d="M33.76,23a5.65,5.65,0,0,1,1-3.61l.33.27a5.32,5.32,0,0,0-.87,3.31Z"/><path d="M33.79,18.83a.42.42,0,0,1-.38-.24c-1.51-3.37-6-6.61-9.78-8.33a.41.41,0,0,1-.21-.55A.42.42,0,0,1,24,9.5c3.64,1.66,8.49,4.94,10.2,8.75a.41.41,0,0,1-.21.55A.47.47,0,0,1,33.79,18.83Z"/><path d="M42.93,50.69A26.51,26.51,0,0,1,16.35,24.11,16.69,16.69,0,0,1,33,7.44,10.52,10.52,0,0,1,43.45,18a6.75,6.75,0,0,1-6.74,6.75,4.41,4.41,0,0,1-4.37-4.36,3,3,0,0,1,3-3,2.05,2.05,0,0,1,2.06,2A1.54,1.54,0,0,1,35.86,21a1.12,1.12,0,0,1-1.14-1.13v-.52h1.2v.52c.06-.06.15-.1.19-.14a.41.41,0,0,0,.08-.25.86.86,0,0,0-.87-.86,1.72,1.72,0,0,0-1.71,1.71,3.16,3.16,0,0,0,3.17,3.17A5.54,5.54,0,0,0,42.34,18,9.34,9.34,0,0,0,33,8.64,15.49,15.49,0,0,0,17.55,24.11,25.41,25.41,0,0,0,42.93,49.49"/></g></svg>