<svg id="Capa_1" data-name="Capa 1" xmlns="http://www.w3.org/2000/svg" viewBox="0 0 60 60"><defs><style>.cls-1{fill:#fff;}.cls-2{fill:#efb428;}.cls-3{fill:#005883;}</style></defs><g id="AUREA"><path class="cls-1" d="M46.5,50.54c-5-9.06-7.43-16.58-7.35-22.92.24-.07.47-.15.69-.23a3,3,0,0,0,.45-.18,8.9,8.9,0,0,0,3.48-2.64,2.8,2.8,0,0,0,.81-.65,2.69,2.69,0,0,0,.63-1.9,8.83,8.83,0,0,0,.46-1.82s0,0,0,0a2.71,2.71,0,0,0,.45-3.1,2.91,2.91,0,0,0-.52-.7l-.17-.15A13.92,13.92,0,0,0,45,14.65a2.77,2.77,0,0,0-1.12-3.54L43.76,11a2.76,2.76,0,0,0-1-.28A11.49,11.49,0,0,0,41.4,9.34a2.71,2.71,0,0,0-.68-1.84,2.8,2.8,0,0,0-2-.94h-.12a2.78,2.78,0,0,0-1.38.36,12.64,12.64,0,0,0-2.66-.59,2.91,2.91,0,0,0-3.75-1,3,3,0,0,0-1.32,1.31A18.41,18.41,0,0,0,25.7,7.85l-.36-.17a2.92,2.92,0,0,0-3.91,1.45,2.88,2.88,0,0,0-.24,1.56,19,19,0,0,0-2.72,2.88l-.46,0a2.92,2.92,0,0,0-2.08,4.51,18.35,18.35,0,0,0-1.21,5.52l-.67.57a2.94,2.94,0,0,0-.17,4.1l.09.09a3,3,0,0,0,1,.68,27.81,27.81,0,0,0,1.71,6.28c-.27.54-.53,1.08-.77,1.63a2.86,2.86,0,0,0-.06,2.26,2.94,2.94,0,0,0,1.61,1.64l.16.06a3.09,3.09,0,0,0,1,.15,3,3,0,0,0,1.11-.21,27.25,27.25,0,0,0,3.17,3.78c.69.68,1.41,1.34,2.16,2,0,.57,0,1.09,0,1.54A2.93,2.93,0,0,0,30.26,50a28.15,28.15,0,0,0,10.61,2.83l.38.69A3,3,0,0,0,43.86,55a3,3,0,0,0,1.44-.36,3,3,0,0,0,1.45-1.8A3,3,0,0,0,46.5,50.54Z"/><path class="cls-1" d="M35.43,19.52a1.64,1.64,0,0,0-1.64,1.65,2.91,2.91,0,0,0,.06.6c.11-.08.23-.17.35-.24h0a4.21,4.21,0,0,1,.55-.3h0l.18-.08a1.05,1.05,0,0,1,0-.19,1.5,1.5,0,0,1,0-.22v-.5H36v.5a1.72,1.72,0,0,0,.18-.13.33.33,0,0,0,.08-.24A.83.83,0,0,0,35.43,19.52Z"/><path class="cls-2" d="M41.28,15a.54.54,0,0,0-.05-.11,5.39,5.39,0,0,1-.33.5c-.07.1-.14.21-.22.31-.19.26-.4.52-.61.77,0,0,0,0,0,0l-.08.09a10.43,10.43,0,0,1-.92,1,5.66,5.66,0,0,1-.44.4c-.25.22-.52.43-.79.63s-.55.39-.83.57a1.61,1.61,0,0,1,.19.31.54.54,0,0,1,.07.13c.21-.13.42-.27.62-.42a3.32,3.32,0,0,0,.42-.32,4.34,4.34,0,0,0,.44-.34c.23-.19.46-.39.67-.59a0,0,0,0,0,0,0c.22-.21.43-.42.63-.64l.14-.15A9.93,9.93,0,0,0,41.06,16l.07-.11a.12.12,0,0,0,0-.07,3.46,3.46,0,0,0,.22-.31.16.16,0,0,0,0-.07l0-.05Zm-3.15-3.61-.24-.16c0,.33-.08.65-.14,1a3.86,3.86,0,0,1-.09.49.07.07,0,0,1,0,.06c0,.23-.08.45-.13.68s-.11.54-.18.81a21,21,0,0,1-.68,2.28c-.09.25-.19.51-.29.75l-.3.69c-.06.16-.14.31-.21.46l.06,0a1.12,1.12,0,0,1,.41.15c.07-.15.15-.3.21-.46s.2-.45.29-.68.19-.46.27-.7.26-.73.37-1.1c.06-.19.12-.38.17-.57l.15-.57q.1-.39.18-.78c.05-.21.09-.42.13-.64.1-.51.18-1,.25-1.55Zm-3,6.33c0-.2,0-.41-.06-.62s-.07-.58-.12-.87-.1-.58-.16-.87c-.13-.63-.28-1.27-.47-1.91-.06-.21-.13-.43-.2-.64s-.15-.48-.24-.73-.2-.57-.32-.86a0,0,0,0,0,0,0q-.15-.39-.33-.78c-.06-.16-.13-.33-.2-.49h-.41a2,2,0,0,0-.42,0h0c.13.29.26.58.38.87s.16.39.23.58.25.65.36,1a18.56,18.56,0,0,1,.6,1.93c0,.16.08.32.11.47a4.54,4.54,0,0,1,.12.5c.07.31.13.63.18.94s.08.48.11.71a3.05,3.05,0,0,1,0,.41,1.5,1.5,0,0,1,0,.29c0,.21,0,.41.05.61a.14.14,0,0,1,0,.09v0h0a1.8,1.8,0,0,1,0,.22l.08,0,.06,0,.09,0a2.73,2.73,0,0,1,.41-.1l.15,0C35.14,18.16,35.13,17.94,35.1,17.72Zm-.9,6.82a3.73,3.73,0,0,1-.3-.26h0l-.11-.1,0,0c-.1.14-.21.27-.29.41s-.41.56-.6.86a9.16,9.16,0,0,0-.55.88q-.27.43-.51.9c-.17.3-.33.61-.48.92s-.3.62-.44.93-.28.63-.4,1-.21.52-.3.8a1.62,1.62,0,0,0-.11.28c-.09.22-.16.45-.24.68-.24.71-.45,1.42-.64,2.14-.09.33-.17.66-.25,1s-.11.45-.16.68-.13.6-.19.91c-.15.79-.28,1.57-.39,2.33,0,.25-.07.49-.1.73s-.09.64-.12,1c-.11,1-.2,2-.25,2.88l0,.63a1,1,0,0,0,.2.15h0l.38.28a0,0,0,0,0,0,0l.16.12,0,0c0-.2,0-.4,0-.6,0-.39,0-.78.06-1.19,0-.07,0-.13,0-.2s0-.08,0-.12c0-.25,0-.5.07-.75s.06-.69.1-1,.05-.54.09-.82c.13-1,.3-2.13.52-3.23.05-.27.11-.56.17-.84.12-.56.25-1.12.41-1.67a4.42,4.42,0,0,1,.14-.52c0-.17.09-.34.15-.51.1-.36.21-.72.33-1.07s.25-.75.4-1.12a26.17,26.17,0,0,1,1.33-3c.1-.19.2-.37.31-.55s.19-.36.29-.53a7.8,7.8,0,0,1,.46-.71c.07-.13.15-.25.23-.37s.31-.46.48-.68l.29-.4ZM33.7,18l0-.05a6.72,6.72,0,0,0-.47-.66l-.35-.45q-.15-.2-.33-.39l-.05-.06c-.23-.26-.47-.51-.72-.76A18.58,18.58,0,0,0,30,14.09a4.82,4.82,0,0,0-.44-.35l-.07-.05c-.24-.18-.47-.35-.71-.51a.42.42,0,0,0-.12-.08c-.3-.21-.61-.41-.92-.6s-.63-.39-.94-.57l-.51-.3-.14.07-.14.08a3.72,3.72,0,0,0-.38.22h0l-.16.1a27.31,27.31,0,0,1,2.65,1.59l.92.65.56.45.46.38a16,16,0,0,1,1.4,1.31c.22.22.42.44.61.67a4.61,4.61,0,0,1,.4.5,5.35,5.35,0,0,1,.37.5,10,10,0,0,1,.62,1l.12-.11.15-.12.26-.18.13-.07C34,18.47,33.85,18.24,33.7,18ZM33,23.14a0,0,0,0,0,0,0l0-.07a1.87,1.87,0,0,1-.15-.32h0s0,0,0,0a1.46,1.46,0,0,1-.07-.19l-.46.22A29.52,29.52,0,0,0,20.64,33.9l-.32.54a1.47,1.47,0,0,0,.1.22c.06.15.13.3.2.44v0a1.39,1.39,0,0,0,.11.21l.3-.52h0c.25-.42.5-.84.77-1.25.11-.18.23-.35.35-.53l.46-.65c.3-.44.63-.88,1-1.3s.44-.57.67-.84.51-.61.78-.9c.54-.6,1.11-1.17,1.69-1.72l.69-.62.22-.19.76-.62a22.11,22.11,0,0,1,2.76-1.92l.28-.17c.4-.23.79-.44,1.19-.62l.45-.22A.37.37,0,0,1,33,23.14Zm-.42-3.74c-.19-.11-.39-.21-.59-.31l-.6-.29c-.29-.14-.58-.27-.88-.39s-.39-.16-.58-.23a19.74,19.74,0,0,0-1.88-.63c-.26-.08-.52-.14-.78-.21l-.68-.16q-.36-.09-.72-.15c-.58-.12-1.17-.21-1.77-.29l-.77-.08-.61-.05a5.12,5.12,0,0,0-.56,0q-.37,0-.75,0h-.61a1.37,1.37,0,0,0-.13.2l-.08.12-.18.29-.12.21h.58l.94,0,.67,0c.53,0,1,.09,1.58.15a24.52,24.52,0,0,1,4.56,1c.38.12.75.25,1.12.4l.29.11q.5.2,1,.42c.21.09.42.19.62.3.36.19.72.38,1.06.58a1.34,1.34,0,0,1,.07-.18h0l.06-.16.12-.2h0a1.4,1.4,0,0,1,.09-.17Zm0,2a.66.66,0,0,1,0-.14.86.86,0,0,1,0-.16,1.27,1.27,0,0,1,0-.2c-.63-.06-1.27-.09-1.91-.09l-.8,0-.72,0-.79.07-.78.1c-.26,0-.52.08-.78.13l-.39.07L26,21.3c-.25.05-.51.11-.76.18s-.51.13-.76.21a22.67,22.67,0,0,0-2.23.78c-.24.09-.48.2-.72.31a20.76,20.76,0,0,0-3.23,1.81v.25a2,2,0,0,0,0,.25,1.77,1.77,0,0,0,0,.23,2,2,0,0,0,0,.25l.49-.35a21.24,21.24,0,0,1,13.24-3.58l.5,0c0-.06,0-.13,0-.2A.34.34,0,0,1,32.57,21.38Zm7.7.9-.39,0-.34,0a7.14,7.14,0,0,1-1-.27,6.81,6.81,0,0,0,1.12.35l.13,0h.06a3.07,3.07,0,0,0,.42.07,5.11,5.11,0,0,0,.55.05l.12-.14A5,5,0,0,1,40.27,22.28Zm.9-2.8-.43.16-.62.21-.28.08c-.2.06-.41.11-.61.15-.4.08-.82.14-1.22.18h-.1l-.5,0v.07a1.2,1.2,0,0,1,0,.33,4.36,4.36,0,0,0,.51,0c.11,0,.22,0,.33,0l.61-.08.43-.08a9.68,9.68,0,0,0,1.15-.29A5.84,5.84,0,0,0,41,20a10.74,10.74,0,0,0,1.15-.49h0a.49.49,0,0,0,0-.12c0-.11,0-.21,0-.33C41.84,19.2,41.51,19.35,41.17,19.48Zm-7,2h0a5.66,5.66,0,0,0-.15.59h0l.16-.12.16-.1a.82.82,0,0,1,.17-.11,0,0,0,0,1,0,0,3.49,3.49,0,0,1,.2-.57A4.21,4.21,0,0,0,34.2,21.52Zm0,0h0a5.66,5.66,0,0,0-.15.59h0l.16-.12.16-.1a.82.82,0,0,1,.17-.11,0,0,0,0,1,0,0,3.49,3.49,0,0,1,.2-.57A4.21,4.21,0,0,0,34.2,21.52Zm0,0h0a5.66,5.66,0,0,0-.15.59h0l.16-.12.16-.1a.82.82,0,0,1,.17-.11,0,0,0,0,1,0,0,3.49,3.49,0,0,1,.2-.57A4.21,4.21,0,0,0,34.2,21.52Zm0,0h0a5.66,5.66,0,0,0-.15.59h0l.16-.12.16-.1a.82.82,0,0,1,.17-.11,0,0,0,0,1,0,0,3.49,3.49,0,0,1,.2-.57A4.21,4.21,0,0,0,34.2,21.52Zm0,0h0a5.66,5.66,0,0,0-.15.59h0l.16-.12.16-.1a.82.82,0,0,1,.17-.11,0,0,0,0,1,0,0,3.49,3.49,0,0,1,.2-.57A4.21,4.21,0,0,0,34.2,21.52Zm0,0h0a5.66,5.66,0,0,0-.15.59h0l.16-.12.16-.1a.82.82,0,0,1,.17-.11,0,0,0,0,1,0,0,3.49,3.49,0,0,1,.2-.57A4.21,4.21,0,0,0,34.2,21.52Zm0,0h0a5.66,5.66,0,0,0-.15.59h0l.16-.12.16-.1a.82.82,0,0,1,.17-.11,0,0,0,0,1,0,0,3.49,3.49,0,0,1,.2-.57A4.21,4.21,0,0,0,34.2,21.52ZM25.6,42.15A22,22,0,0,0,27.66,44,23.6,23.6,0,0,1,25.6,42.15Z"/><path class="cls-2" d="M42.17,18.87v0a.71.71,0,0,1,0,.15c-.32.16-.65.31-1,.44l-.43.16-.62.21-.28.08c-.2.06-.41.11-.61.15-.4.08-.82.14-1.22.18h-.1l-.5,0a1,1,0,0,0,0-.3s0,0,0,0a.43.43,0,0,0,0-.11,1.73,1.73,0,0,0-.08-.27c.21-.13.42-.27.62-.42a3.32,3.32,0,0,0,.42-.32,4.34,4.34,0,0,0,.44-.34,7.44,7.44,0,0,0,.67-.59,0,0,0,0,0,0,0c.22-.2.43-.42.63-.64l.14-.15A9.93,9.93,0,0,0,41.06,16l.07-.11a.12.12,0,0,0,0-.07,3.46,3.46,0,0,0,.22-.31.16.16,0,0,0,0-.07l0-.05v0a.76.76,0,0,0,0,.11,9.22,9.22,0,0,1,.55,2c0,.26.06.51.07.77S42.17,18.69,42.17,18.87Z"/><path class="cls-2" d="M37.89,11.23c0,.33-.08.65-.14,1a3.86,3.86,0,0,1-.09.49.07.07,0,0,1,0,.06c0,.23-.08.45-.13.68s-.11.54-.18.81a21,21,0,0,1-.68,2.28c-.09.25-.19.51-.29.75l-.3.69c-.06.16-.14.31-.21.46a2,2,0,0,0-.43-.05h-.28c0-.22,0-.44,0-.66s0-.41-.06-.62-.07-.58-.12-.87-.1-.58-.16-.87c-.13-.63-.28-1.27-.47-1.91-.06-.21-.12-.42-.2-.64s-.15-.48-.24-.73-.2-.57-.32-.86a0,0,0,0,0,0,0,6.5,6.5,0,0,0-.33-.78c-.06-.16-.13-.33-.2-.49h.51l.59,0a4.1,4.1,0,0,1,.49.06l.51.09q.3.06.6.15a5.62,5.62,0,0,1,.58.19,1.53,1.53,0,0,1,.27.11l.34.14A7.46,7.46,0,0,1,37.89,11.23Z"/><path class="cls-2" d="M33.75,24.14c-.1.14-.21.27-.29.41a6.05,6.05,0,0,0-.6.86,9.16,9.16,0,0,0-.55.88,9,9,0,0,0-.51.9,9,9,0,0,0-.48.92c-.16.31-.3.61-.44.93s-.28.63-.4,1-.21.52-.3.8a1.62,1.62,0,0,0-.11.28c-.09.22-.16.45-.24.68-.24.71-.45,1.42-.64,2.14-.09.33-.17.66-.25,1s-.11.45-.16.68-.13.6-.19.91c-.15.79-.28,1.57-.39,2.33,0,.25-.07.49-.1.73s-.09.64-.12,1c-.11,1-.2,2-.25,2.88l0,.63,0,0a22,22,0,0,1-2.06-1.81c-.3-.3-.59-.61-.87-.92L24.54,41c-.28-.31-.55-.63-.81-1s-.58-.73-.85-1.11-.62-.88-.89-1.34-.4-.64-.58-1l-.06-.11c-.22-.4-.42-.8-.62-1.21l.3-.52h0c.25-.42.5-.84.77-1.25.11-.18.23-.35.35-.53l.46-.65c.3-.44.63-.88,1-1.3s.44-.57.67-.84.51-.61.78-.9c.54-.6,1.11-1.17,1.69-1.72l.69-.62.22-.19.76-.62a22.11,22.11,0,0,1,2.76-1.92l.28-.17c.4-.23.79-.44,1.19-.62l.45-.22A4.16,4.16,0,0,0,33.75,24.14Z"/><path class="cls-2" d="M41.8,49.19a24.19,24.19,0,0,1-13.31-4.6c0-.2,0-.4,0-.6,0-.39,0-.78.06-1.19,0-.07,0-.13,0-.2s0-.08,0-.12c0-.25,0-.5.07-.75s.06-.69.1-1,.05-.54.09-.82c.13-1,.3-2.13.52-3.23.05-.27.11-.56.17-.84.12-.56.25-1.12.41-1.67a4.42,4.42,0,0,1,.14-.52c0-.17.09-.34.15-.51.1-.36.21-.72.33-1.07s.25-.75.4-1.12a26.17,26.17,0,0,1,1.33-3c.1-.19.2-.37.31-.55s.19-.36.29-.53a7.8,7.8,0,0,1,.46-.71c.07-.13.15-.25.23-.37s.31-.46.48-.68l.29-.4.07,0a4.15,4.15,0,0,0,1.34.59C35.1,32.05,37.08,39.89,41.8,49.19Z"/><path class="cls-2" d="M36.26,20.35a.33.33,0,0,1-.08.24,1.72,1.72,0,0,1-.18.13v-.5H34.86v.5a1.5,1.5,0,0,0,0,.22,1.05,1.05,0,0,0,0,.19l-.18.08h0a4.21,4.21,0,0,0-.55.3h0c-.12.07-.24.16-.35.24a2.91,2.91,0,0,1-.06-.6,1.64,1.64,0,0,1,1.64-1.65A.83.83,0,0,1,36.26,20.35Z"/><path class="cls-3" d="M34.2,21.53a5.66,5.66,0,0,0-.15.59h0a.2.2,0,0,0-.07.06,2.16,2.16,0,0,1-.13-.41h0C34,21.69,34.08,21.6,34.2,21.53Z"/><path class="cls-2" d="M40.82,22.43a3.07,3.07,0,0,1-.25.26,5.16,5.16,0,0,1-2.51,1.37h0a3.22,3.22,0,0,1-.54.1,3.82,3.82,0,0,1-.68.05,3.31,3.31,0,0,1-.55-.05,2.73,2.73,0,0,1-.41-.1,3,3,0,0,1-1.19-.74,2.18,2.18,0,0,1-.34-.41,2.36,2.36,0,0,1-.32-.58v0a.56.56,0,0,1,0-.12.2.2,0,0,1,.07-.06l.16-.12.16-.1a.82.82,0,0,1,.17-.11,0,0,0,0,1,0,0,2.64,2.64,0,0,1,.44-.23.61.61,0,0,1,.17-.07,1.13,1.13,0,0,0,.56.3l.23,0a.65.65,0,0,0,.2,0h.07a1.19,1.19,0,0,0,.53-.23l0,0a1.42,1.42,0,0,0,.31-.29l.55.3.53.25.35.14a6.81,6.81,0,0,0,1.12.35l.13,0h.06a3.07,3.07,0,0,0,.42.07A5.11,5.11,0,0,0,40.82,22.43Z"/><path class="cls-2" d="M35.16,21.49a.61.61,0,0,0-.17.07,2.64,2.64,0,0,0-.44.23,3.49,3.49,0,0,1,.2-.57h0l.18-.08A1.31,1.31,0,0,0,35.16,21.49Z"/><path class="cls-2" d="M42.13,19.5a5.17,5.17,0,0,1-1,2.53,2.56,2.56,0,0,1-.2.26,5,5,0,0,1-.67,0l-.39,0-.34,0a7.14,7.14,0,0,1-1-.27l-.35-.14-.53-.25-.55-.3s0,0,0,0a.91.91,0,0,0,.19-.38.35.35,0,0,0,0-.13,4.36,4.36,0,0,0,.51,0c.11,0,.22,0,.33,0l.61-.08.43-.08a9.68,9.68,0,0,0,1.15-.29A5.84,5.84,0,0,0,41,20,10.74,10.74,0,0,0,42.13,19.5Z"/><path class="cls-2" d="M41.23,14.89a5.39,5.39,0,0,1-.33.5c-.07.1-.14.21-.22.31-.19.26-.4.52-.61.77,0,0,0,0,0,0l-.08.09a10.43,10.43,0,0,1-.92,1,5.66,5.66,0,0,1-.44.4c-.25.22-.52.43-.79.63s-.55.39-.83.57L36.89,19a1.12,1.12,0,0,0-.2-.18.83.83,0,0,0-.15-.11.42.42,0,0,0-.14-.09l-.07,0c.07-.15.15-.3.21-.46s.2-.45.29-.68.19-.46.27-.7.26-.72.37-1.1c.06-.19.12-.38.17-.57l.15-.57q.1-.39.18-.78c.05-.21.09-.42.13-.64.1-.51.18-1,.25-1.55l.26.19a4.52,4.52,0,0,1,.53.43,5.33,5.33,0,0,1,.49.46c.13.13.25.27.37.41s.24.28.35.43.22.3.32.45A8.57,8.57,0,0,1,41.23,14.89Z"/><path class="cls-2" d="M34.36,18.58a1.51,1.51,0,0,0-.26.12c-.12-.23-.25-.46-.4-.69l0-.05a6.72,6.72,0,0,0-.47-.66c-.11-.15-.22-.3-.35-.45s-.21-.26-.33-.39l-.05-.06c-.22-.26-.47-.51-.72-.76A18.58,18.58,0,0,0,30,14.09a4.82,4.82,0,0,0-.44-.35l-.07-.05c-.24-.18-.47-.35-.71-.51a.42.42,0,0,0-.12-.08,10.33,10.33,0,0,0-.92-.6c-.32-.21-.63-.4-.94-.57l-.51-.3.61-.31h0c.27-.13.55-.26.84-.37l.62-.22c.24-.09.48-.16.72-.23a5.79,5.79,0,0,1,.63-.17l.18,0,.08,0,.49-.1A15.05,15.05,0,0,1,32.12,10c.13.29.26.58.38.87s.16.39.23.58.25.65.36,1a18.56,18.56,0,0,1,.6,1.93c0,.16.08.32.11.47a4.54,4.54,0,0,1,.12.5c.07.31.13.63.18.94s.08.48.11.71a3.05,3.05,0,0,1,0,.41,1.5,1.5,0,0,1,0,.29c0,.21,0,.41.05.61a.14.14,0,0,1,0,.09v0h0A1.8,1.8,0,0,1,34.36,18.58Z"/><path class="cls-2" d="M33.44,19.18a.86.86,0,0,0-.13.14,1.64,1.64,0,0,0-.27.32l-.43-.24c-.19-.11-.39-.21-.59-.31a4.73,4.73,0,0,0-.6-.29c-.29-.14-.58-.27-.88-.39s-.39-.16-.58-.23a19.74,19.74,0,0,0-1.88-.63c-.26-.08-.52-.14-.78-.21l-.68-.16q-.36-.09-.72-.15c-.58-.12-1.17-.21-1.77-.29l-.77-.08-.61-.05a5.12,5.12,0,0,0-.56,0q-.37,0-.75,0h-.61l.36-.52.24-.32.33-.41.08-.09c.15-.19.32-.37.49-.55s.26-.28.39-.4l.08-.08L23,14a4.28,4.28,0,0,1,.45-.4l.27-.24,0,0a.18.18,0,0,1,.07-.05,3.75,3.75,0,0,1,.44-.35c.17-.13.34-.26.52-.38l.68-.44a27.31,27.31,0,0,1,2.65,1.59l.92.65.56.45.46.38a16,16,0,0,1,1.4,1.31c.22.22.42.44.61.67s.27.33.4.5a5.86,5.86,0,0,1,.37.5A10,10,0,0,1,33.44,19.18Z"/><path class="cls-2" d="M32.7,20.37l-.06.18v0l0,.11,0,.2c-.63-.06-1.27-.09-1.91-.09l-.8,0-.72,0-.79.07-.78.1c-.26,0-.52.08-.78.13l-.39.07L26,21.3c-.25.05-.51.11-.76.18s-.51.13-.76.21a22.67,22.67,0,0,0-2.23.78c-.24.09-.48.2-.72.31a20.76,20.76,0,0,0-3.23,1.81c0-.17,0-.35,0-.52V24c0-.27,0-.54.07-.8v0a.36.36,0,0,1,0-.11c0-.21,0-.42.08-.61s0-.28.07-.42a4.88,4.88,0,0,1,.12-.55l0-.14c0-.12.06-.24.09-.36s.06-.24.1-.36a1.09,1.09,0,0,1,.05-.17.56.56,0,0,1,0-.12c.06-.19.13-.39.2-.59s.17-.47.27-.7.25-.57.39-.85.28-.54.44-.81h.58l.94,0,.67,0c.53,0,1,.09,1.58.15a24.52,24.52,0,0,1,4.56,1c.38.12.75.25,1.12.4l.29.11q.5.2,1,.42c.21.09.42.19.62.3C32,20,32.36,20.17,32.7,20.37Z"/><path class="cls-2" d="M32.76,22.51l-.46.22A29.52,29.52,0,0,0,20.64,33.9l-.32.54a1.86,1.86,0,0,1-.1-.25,24,24,0,0,1-1.87-8.62l.49-.35a21.24,21.24,0,0,1,13.24-3.58l.5,0a3.51,3.51,0,0,0,.13.66A1.09,1.09,0,0,0,32.76,22.51Z"/><path class="cls-3" d="M34.2,24.54l-.29.4c-4.11,5.63-5.32,13.31-5.58,18.91,0,.2,0,.4,0,.6a0,0,0,0,1,0,0l-.38-.28,0-.63c.29-5.63,1.55-13.24,5.66-18.85.08-.14.19-.27.29-.41h0A3.73,3.73,0,0,0,34.2,24.54Z"/><path class="cls-3" d="M19.94,36.4q-.35.7-.66,1.41a.2.2,0,0,1-.09.09c.13-.3.26-.59.41-.89S19.81,36.61,19.94,36.4Z"/><path class="cls-3" d="M33,23.06l-.45.21A29.11,29.11,0,0,0,20.93,34.59l0,0c-.09.16-.19.31-.29.48-.07-.14-.14-.29-.2-.44.1-.18.2-.36.31-.53A29.33,29.33,0,0,1,32.37,22.92h0l.46-.21s0,0,0,0h0A1.87,1.87,0,0,0,33,23.06Z"/><path d="M41.13,15.91a.12.12,0,0,0,0-.07,3.46,3.46,0,0,0,.22-.31.16.16,0,0,0,0-.07l-.37.27A1.27,1.27,0,0,1,41.13,15.91Zm-.06-.18a1.27,1.27,0,0,1,.06.18.12.12,0,0,0,0-.07,3.46,3.46,0,0,0,.22-.31.16.16,0,0,0,0-.07Z"/><path d="M33.31,19.32a1.64,1.64,0,0,0-.27.32,1.4,1.4,0,0,0-.09.17h0l-.12.2a24.58,24.58,0,0,0-12.21-3.16l.08-.12a1.37,1.37,0,0,1,.13-.2l.36-.52a25.53,25.53,0,0,1,12,3.23Z"/><path d="M35.42,18.37h-.27l-.15,0a2.73,2.73,0,0,0-.41.1.06.06,0,0,1,0,0c0-.11,0-.21,0-.32a23.52,23.52,0,0,0-2-8.21h.92a24.68,24.68,0,0,1,1.9,8C35.41,18.08,35.42,18.22,35.42,18.37Z"/><path d="M38.61,11.73a23.32,23.32,0,0,1-2,6.42c-.07.16-.15.33-.23.48l-.07,0a1.12,1.12,0,0,0-.41-.15s0,0,0,0,.15-.29.21-.43a23,23,0,0,0,2-6.59l.22.15Z"/><path d="M41.53,15.54A13.06,13.06,0,0,1,40.2,17.1l-.14.15a14.39,14.39,0,0,1-2.46,1.94l-.41.26a1.61,1.61,0,0,0-.19-.31L36.89,19c.15-.09.29-.17.44-.28A14,14,0,0,0,40,16.58l.08-.09s0,0,0,0A13.13,13.13,0,0,0,41.28,15l.2.41v0A.76.76,0,0,0,41.53,15.54Z"/><path d="M42.17,18.89a.71.71,0,0,1,0,.15c0,.12,0,.22,0,.33a12.42,12.42,0,0,1-4.43,1h-.3V20.3a1,1,0,0,0,0-.3s0,0,0,0h0a2.11,2.11,0,0,0,.35,0A11.91,11.91,0,0,0,42.17,18.89Z"/><path d="M41.14,22a2.56,2.56,0,0,1-.2.26l-.12.14a5.11,5.11,0,0,1-.55-.05,3.07,3.07,0,0,1-.42-.07h-.06l-.13,0a6.81,6.81,0,0,1-1.12-.35l-.35-.14-.53-.25-.53-.31h0a.91.91,0,0,0,.19-.38l.14.09A7.08,7.08,0,0,0,41.14,22Z"/><path d="M32.64,20.55v0l0,.11,0,.2a1.27,1.27,0,0,0,0,.2.86.86,0,0,0,0,.16.66.66,0,0,0,0,.14l-.51,0a22.26,22.26,0,0,0-13.23,3.42,5.25,5.25,0,0,0-.49.33,2,2,0,0,1,0-.25v-.25c0-.17,0-.35,0-.52.17-.12.35-.22.52-.32a23.19,23.19,0,0,1,13.27-3.24Z"/><path d="M34.44,24.7c-.1.13-.2.26-.29.4C30.62,30,29.2,36.39,28.67,41.73c0,.25-.05.5-.07.75,0,0,0,.08,0,.12s0,.13,0,.2c0,.4-.07.8-.09,1.18l0,.59-.16-.12a0,0,0,0,1,0,0l-.38-.28h0a1,1,0,0,1-.2-.15l0,0c0-.2,0-.41,0-.62.06-.91.15-1.87.28-2.85,0-.31.07-.63.12-1s.06-.48.1-.73c.74-4.78,2.26-10,5.29-14.23.09-.14.19-.27.29-.41l.11.1h0a3.73,3.73,0,0,0,.3.26l.17.12Z"/><path d="M33,23.13l-.45.22A30,30,0,0,0,20.93,34.59l0,0c-.09.16-.19.31-.29.48-.07-.14-.14-.29-.2-.44a1.47,1.47,0,0,1-.1-.22,1.86,1.86,0,0,1-.1-.25c.1-.18.21-.36.32-.54A30.81,30.81,0,0,1,32.25,22.56l.46-.22a1.09,1.09,0,0,0,0,.17,1.46,1.46,0,0,0,.07.19s0,0,0,0h0a1.87,1.87,0,0,0,.15.32Z"/><path d="M34.44,18.55l-.08,0a1.51,1.51,0,0,0-.26.12l-.13.07-.26.18a1.62,1.62,0,0,0-.1-.18c-1.35-2.67-4.49-5.24-7.61-7l.14-.08.14-.07.61-.31h0c2.92,1.72,6,4.19,7.4,7a.13.13,0,0,0,0,.06v0h0Z"/><path class="cls-3" d="M25.6,42.15A22,22,0,0,0,27.66,44,23.6,23.6,0,0,1,25.6,42.15Zm0,0A22,22,0,0,0,27.66,44,23.6,23.6,0,0,1,25.6,42.15Zm0,0A22,22,0,0,0,27.66,44,23.6,23.6,0,0,1,25.6,42.15Zm0,0A22,22,0,0,0,27.66,44,23.6,23.6,0,0,1,25.6,42.15Zm0,0A22,22,0,0,0,27.66,44,23.6,23.6,0,0,1,25.6,42.15Zm0,0A22,22,0,0,0,27.66,44,23.6,23.6,0,0,1,25.6,42.15Zm0,0A22,22,0,0,0,27.66,44,23.6,23.6,0,0,1,25.6,42.15Z"/><path d="M43.86,53a1,1,0,0,1-.87-.51c-.31-.56-.61-1.11-.89-1.65a26,26,0,0,1-13.2-3.93c0,.43,0,.85,0,1.24a.93.93,0,0,1-1.85,0c0-.56,0-1.19,0-1.86V46c0-.11,0-.23,0-.34a25.53,25.53,0,0,1-2.77-2.42,25.09,25.09,0,0,1-4.36-5.78c-.1.21-.2.42-.29.64l-.21.45a.9.9,0,0,1-.84.54,1.26,1.26,0,0,1-.33-.05,1,1,0,0,1-.52-.53.92.92,0,0,1,0-.71c.3-.65.6-1.3.94-1.94.07-.14.14-.29.22-.43a25.76,25.76,0,0,1-2.14-8.49l-.12.1a1.06,1.06,0,0,1-.61.22.92.92,0,0,1-.67-.29.93.93,0,0,1,0-1.31c.28-.25.55-.48.83-.69a.12.12,0,0,1,0,0c.12-.11.25-.2.38-.3a16.42,16.42,0,0,1,1.73-7.19h0a.92.92,0,0,1-.13-1.84l.6,0h.66A16.59,16.59,0,0,1,23.8,11.2h0l-.1,0a.89.89,0,0,1-.44-.49.92.92,0,0,1,0-.71,1,1,0,0,1,.85-.54,1,1,0,0,1,.38.08,5.35,5.35,0,0,1,.59.29c.13.05.3.14.47.22l.15.08a16.35,16.35,0,0,1,5.64-1.72l0,0A.89.89,0,0,1,31.22,8a.87.87,0,0,1,.52-.85.82.82,0,0,1,.4-.1.93.93,0,0,1,.83.53l.06.13a6.36,6.36,0,0,1,.28.59,10.56,10.56,0,0,1,4.56,1.1V9.28A.79.79,0,0,1,38,8.89a.72.72,0,0,1,.62-.33.82.82,0,0,1,.59.26.8.8,0,0,1,.19.56s0,.09,0,.1a6.13,6.13,0,0,1-.07.76A10.7,10.7,0,0,1,42,13a.74.74,0,0,1,.51-.23h.07a.72.72,0,0,1,.32.08.76.76,0,0,1,.32,1l-.09.18-.27.48a10.49,10.49,0,0,1,.86,3.06h.07a.67.67,0,0,1,.48.2h0a.59.59,0,0,1,.14.18.7.7,0,0,1-.12.83.29.29,0,0,1-.12.1h0a3.13,3.13,0,0,1-.37.23,6.79,6.79,0,0,1-.62,2.7.77.77,0,0,1,.08.27.74.74,0,0,1-.16.54.72.72,0,0,1-.48.24h0a6.93,6.93,0,0,1-3.08,2.53,2.22,2.22,0,0,1-.23.08,6.65,6.65,0,0,1-2,.44c-.56,7.06,1.9,15.44,7.52,25.59a1,1,0,0,1-.4,1.37A1,1,0,0,1,43.86,53ZM28.73,44.15l.1.08A23.72,23.72,0,0,0,41,48.64c-4.41-8.88-6.28-16.42-5.73-23a4.37,4.37,0,0,1-1.08-.54A.36.36,0,0,1,34,25l-.1-.06-.08-.06a3.73,3.73,0,0,1-.3-.26,1.29,1.29,0,0,1-.12-.12,4.52,4.52,0,0,1-.78-1,.87.87,0,0,1-.06-.13l0-.07a2.64,2.64,0,0,1-.18-.38s0-.15-.07-.2a1.46,1.46,0,0,1-.08-.29,3.94,3.94,0,0,1-.14-.7c0-.14,0-.19,0-.24v-.05a1.21,1.21,0,0,1,0-.19,2.28,2.28,0,0,1,0-.26.69.69,0,0,1,0-.19l0-.19a1.65,1.65,0,0,1,.05-.21s.1-.3.13-.36.06-.19.06-.19a1.66,1.66,0,0,1,.14-.23.79.79,0,0,1,.08-.16A2.78,2.78,0,0,1,33,19a.72.72,0,0,1,.18-.18l.11-.11.17-.13.28-.19a.75.75,0,0,1,.17-.1,2.07,2.07,0,0,1,.34-.15.84.84,0,0,1,.18-.07l.06,0a3.52,3.52,0,0,1,.49-.11l.2.48-.08-.5a2.49,2.49,0,0,1,.37,0,2.62,2.62,0,0,1,.54.06L36,18a1.73,1.73,0,0,1,.54.21l0,0a.83.83,0,0,1,.22.14,1.28,1.28,0,0,1,.21.16,1,1,0,0,1,.22.21.27.27,0,0,1,.07.08,2.32,2.32,0,0,1,.29.43.92.92,0,0,1,.1.2,1.91,1.91,0,0,1,.1.34,1.3,1.3,0,0,1,0,.13,1.45,1.45,0,0,1,0,.43,1.69,1.69,0,0,1-.07.54.9.9,0,0,1-.06.18,1.45,1.45,0,0,1-.24.46.21.21,0,0,1,0,.06,2,2,0,0,1-.42.4L37,22a1.57,1.57,0,0,1-.68.27h0a1.24,1.24,0,0,1-.31,0,1.45,1.45,0,0,1-.3,0,1.58,1.58,0,0,1-.85-.44,1.82,1.82,0,0,1-.33-.52,1.49,1.49,0,0,1-.09-.31,2,2,0,0,1,0-.25,1.1,1.1,0,0,0-.07.41,1.94,1.94,0,0,0,.05.49s0,.07,0,.11,0,.11.09.22,0,.1,0,.11a.49.49,0,0,1,0,.11,1.75,1.75,0,0,0,.22.39A2,2,0,0,0,35,23a2.67,2.67,0,0,0,1,.62l.32.08a4.05,4.05,0,0,0,.48,0,2.88,2.88,0,0,0,.59,0,3.21,3.21,0,0,0,.5-.09H38a4.75,4.75,0,0,0,2.23-1.24,2.34,2.34,0,0,0,.22-.23l.07-.07a3.29,3.29,0,0,0,.21-.28,4.68,4.68,0,0,0,.91-2.3s0-.11,0-.12,0-.2,0-.29,0-.08,0-.12c0-.22,0-.37,0-.54s0-.47-.06-.7a8.8,8.8,0,0,0-.52-1.95l0-.11-.2-.4a.36.36,0,0,1,0-.11,8.61,8.61,0,0,0-.54-.92,4,4,0,0,0-.3-.42,4,4,0,0,0-.32-.4,3.46,3.46,0,0,0-.36-.39,4.47,4.47,0,0,0-.45-.43,3.61,3.61,0,0,0-.5-.41,2.39,2.39,0,0,0-.24-.18l-.21-.14-.24-.17a7.78,7.78,0,0,0-1-.49,2,2,0,0,0-.31-.13,1.35,1.35,0,0,0-.26-.11l-.54-.18L35,10.6a2.89,2.89,0,0,0-.47-.08,3,3,0,0,0-.47-.06,3.74,3.74,0,0,0-.55,0H32.25l-.09,0a13.88,13.88,0,0,0-1.61.2l-.46.09-.27.07a5.47,5.47,0,0,0-.58.15,6.5,6.5,0,0,0-.7.22c-.24.07-.42.15-.6.22s-.56.24-.82.36l-.06,0-.54.27-.19.09-.12.07-.24.14-.09.06-.07,0-.1.07c-.22.13-.44.27-.65.42s-.34.25-.51.37a3.5,3.5,0,0,0-.4.32l-.09.07-.29.25a3.81,3.81,0,0,0-.45.4.94.94,0,0,0-.14.13l-.07.08a4.64,4.64,0,0,0-.39.4,5.66,5.66,0,0,0-.48.54l-.41-.3.34.37-.32.39-.25.34c-.12.16-.23.33-.35.51a1.17,1.17,0,0,0-.11.16l-.12.18-.15.25-.11.2c-.16.26-.29.52-.42.77s-.27.56-.39.84-.18.44-.26.66-.14.39-.19.57a.69.69,0,0,1-.05.13.84.84,0,0,1-.05.17l-.09.33,0,.13a1.33,1.33,0,0,0-.05.19l0,.13c-.06.22-.1.39-.13.56s0,.28-.07.41a4,4,0,0,0-.07.57.27.27,0,0,1,0,.12c0,.31-.05.56-.06.81v.1c0,.16,0,.33,0,.49V25a.29.29,0,0,1,0,.13v.34A23.64,23.64,0,0,0,20.68,34c0,.1.06.16.09.22a.85.85,0,0,0,.09.19c.08.2.15.34.21.47a.36.36,0,0,1,0,.11l0,0c.24.48.43.87.65,1.25l.06.12c.18.32.36.62.56.93.28.47.57.9.88,1.33s.53.73.82,1.08.53.63.8.94l.17.19c.3.32.58.62.88.91a19.39,19.39,0,0,0,2,1.77.6.6,0,0,1,.08.08l.1.08.06,0c.12.1.24.18.36.27l.06,0Z"/><path class="cls-3" d="M44.31,51.75c-5.78-10.43-8.26-19-7.55-26.31A6.49,6.49,0,0,0,39.13,25l.13-.05a6.46,6.46,0,0,0,3-2.53l.29,0a.2.2,0,0,0,.18-.23.21.21,0,0,0-.2-.19,6.44,6.44,0,0,0,.74-3v-.12a5.88,5.88,0,0,0,.6-.35s0,0,0,0a.22.22,0,0,0,0-.27.12.12,0,0,0,0-.05.18.18,0,0,0-.23,0,4.23,4.23,0,0,1-.4.24,9.92,9.92,0,0,0-1-3.85h0l0-.05h0c.17-.26.3-.52.44-.78l0,0a.27.27,0,0,0-.11-.36.2.2,0,0,0-.13,0,.23.23,0,0,0-.22.14c-.09.15-.17.32-.27.48a.59.59,0,0,0,0,.08l0,0a10.1,10.1,0,0,0-3.15-3.41.76.76,0,0,0,0-.21c0-.27.06-.53.08-.81,0,0,0-.07,0-.11a.25.25,0,0,0-.25-.28.23.23,0,0,0-.24.11.22.22,0,0,0,0,.13,4.34,4.34,0,0,1-.07.63,1.64,1.64,0,0,1,0,.22L38,10a9.84,9.84,0,0,0-4.82-1.26H33l-.09-.21h0c-.09-.23-.2-.45-.31-.67h0a.84.84,0,0,0-.06-.14A.41.41,0,0,0,32,7.55a.4.4,0,0,0-.23.4.34.34,0,0,0,0,.16c.08.16.15.33.23.49a.72.72,0,0,1,.09.2l-.45,0a16,16,0,0,0-5.95,1.82l-.21-.12c-.22-.11-.43-.22-.64-.31a5.77,5.77,0,0,0-.56-.27.42.42,0,1,0-.35.76l.08,0,.62.3.2.1q-.29.16-.57.36A15.87,15.87,0,0,0,19.8,16a1.08,1.08,0,0,0-.18,0l-.64,0-.64,0a.42.42,0,0,0-.38.45.42.42,0,0,0,.44.39h.09l.62,0h.17l-.19.32a2,2,0,0,0-.1.21,15.86,15.86,0,0,0-1.8,7.36v.1l0,0a6.55,6.55,0,0,0-.53.39v0c-.29.22-.57.46-.85.71a.42.42,0,0,0,0,.59.45.45,0,0,0,.32.14.5.5,0,0,0,.28-.1c.12-.1.22-.2.33-.28a4.82,4.82,0,0,1,.51-.41l0,0a2.44,2.44,0,0,0,0,.27,2.11,2.11,0,0,0,0,.25,25.3,25.3,0,0,0,2.23,9c-.12.21-.23.42-.34.64-.33.64-.63,1.28-.92,1.92a.42.42,0,0,0,.21.55l.17,0a.41.41,0,0,0,.39-.25l.2-.44c.13-.3.26-.59.41-.89s.21-.4.34-.61a1.5,1.5,0,0,0,.11.22,25.38,25.38,0,0,0,4.6,6.27,25.83,25.83,0,0,0,2.93,2.52v.08c0,.17,0,.34,0,.51s0,.17,0,.26c0,.68,0,1.32,0,1.89a.43.43,0,0,0,.85,0c0-.41,0-.84,0-1.3v-.27c0-.17,0-.33,0-.5V46l.05,0A25.28,25.28,0,0,0,42.4,50.34c.33.63.67,1.26,1,1.9a.51.51,0,0,0,.44.25.51.51,0,0,0,.45-.74ZM28.49,44.59l0,0-.16-.12a0,0,0,0,1,0,0l-.38-.28h0a1,1,0,0,1-.2-.15l0,0a22,22,0,0,1-2.06-1.81c-.3-.3-.59-.61-.87-.92L24.54,41c-.28-.31-.55-.63-.81-1s-.58-.73-.85-1.11-.62-.88-.89-1.34-.4-.64-.58-1l-.06-.11c-.22-.4-.42-.8-.62-1.21a1.39,1.39,0,0,1-.11-.21v0c-.07-.14-.14-.29-.2-.44a1.47,1.47,0,0,1-.1-.22,1.86,1.86,0,0,1-.1-.25,24,24,0,0,1-1.87-8.62,2,2,0,0,1,0-.25,1.77,1.77,0,0,1,0-.23,2,2,0,0,1,0-.25v-.25c0-.17,0-.35,0-.52V24a7,7,0,0,1,.07-.8v0a.36.36,0,0,1,0-.11,4.25,4.25,0,0,1,.08-.61c0-.14,0-.28.07-.42a4.88,4.88,0,0,1,.12-.55l0-.14c0-.12.06-.24.09-.36s.06-.24.1-.36a1.09,1.09,0,0,1,.05-.17.56.56,0,0,1,0-.12c.06-.2.12-.39.2-.59s.17-.47.27-.7.25-.57.39-.85.28-.54.44-.81l.12-.21.18-.29.08-.12a1.37,1.37,0,0,1,.13-.2l.36-.52.24-.32.33-.41.08-.09c.15-.19.32-.37.49-.55s.26-.28.39-.4l.08-.08L23,14a4.28,4.28,0,0,1,.45-.4l.27-.24,0,0a.18.18,0,0,1,.07-.05,3.75,3.75,0,0,1,.44-.35c.17-.13.34-.26.52-.38s.45-.3.68-.44l.16-.1h0a3.72,3.72,0,0,1,.38-.22l.14-.08.14-.07.61-.31h0c.27-.13.55-.26.84-.37s.41-.16.62-.22a5.5,5.5,0,0,1,.72-.23,5.79,5.79,0,0,1,.63-.17l.18,0,.08,0,.49-.1A15.05,15.05,0,0,1,32.12,10h0a2,2,0,0,1,.42,0h.92a3.9,3.9,0,0,1,.59,0,4.1,4.1,0,0,1,.49.06l.51.09q.3.06.6.15a5.62,5.62,0,0,1,.58.19,1.53,1.53,0,0,1,.27.11l.34.14a7.46,7.46,0,0,1,1,.53l.24.16.22.15.26.19a4.52,4.52,0,0,1,.53.43,5.33,5.33,0,0,1,.49.46A4.72,4.72,0,0,1,40,13a4.7,4.7,0,0,1,.35.43c.11.14.22.3.32.45a8.57,8.57,0,0,1,.56,1,.54.54,0,0,1,.05.11l.2.41v0a.76.76,0,0,0,0,.11,9.22,9.22,0,0,1,.55,2c0,.26.06.51.07.77s0,.35,0,.53v0a.71.71,0,0,1,0,.15c0,.12,0,.22,0,.33a.49.49,0,0,1,0,.12h0a5.17,5.17,0,0,1-1,2.53,2.56,2.56,0,0,1-.2.26l-.12.14a3.07,3.07,0,0,1-.25.26,5.16,5.16,0,0,1-2.51,1.37h0a3.22,3.22,0,0,1-.54.1,3.82,3.82,0,0,1-.68.05,3.31,3.31,0,0,1-.55-.05,2.73,2.73,0,0,1-.41-.1,3,3,0,0,1-1.19-.74,2.18,2.18,0,0,1-.34-.41,2.36,2.36,0,0,1-.32-.58v0a.56.56,0,0,1,0-.12,2.16,2.16,0,0,1-.13-.41h0a2.91,2.91,0,0,1-.06-.6,1.64,1.64,0,0,1,1.64-1.65.83.83,0,0,1,.83.83.33.33,0,0,1-.08.24,1.72,1.72,0,0,1-.18.13v-.5H34.86v.5a1.5,1.5,0,0,0,0,.22,1.05,1.05,0,0,0,0,.19,1.31,1.31,0,0,0,.23.36,1.13,1.13,0,0,0,.56.3l.23,0a.65.65,0,0,0,.2,0h.07a1.19,1.19,0,0,0,.53-.23l0,0a1.42,1.42,0,0,0,.31-.29s0,0,0,0a.91.91,0,0,0,.19-.38.35.35,0,0,0,0-.13,1.2,1.2,0,0,0,0-.33V20.3a1,1,0,0,0,0-.3s0,0,0,0a.43.43,0,0,0,0-.11,1.73,1.73,0,0,0-.08-.27.54.54,0,0,0-.07-.13,1.61,1.61,0,0,0-.19-.31L36.89,19a1.12,1.12,0,0,0-.2-.18.83.83,0,0,0-.15-.11.42.42,0,0,0-.14-.09l-.07,0a1.12,1.12,0,0,0-.41-.15l-.06,0a2,2,0,0,0-.43-.05h-.28l-.15,0a2.73,2.73,0,0,0-.41.1l-.09,0-.06,0-.08,0a1.51,1.51,0,0,0-.26.12l-.13.07-.26.18-.15.12-.12.11a.86.86,0,0,0-.13.14,1.64,1.64,0,0,0-.27.32,1.4,1.4,0,0,0-.09.17h0l-.12.2-.06.16h0a1.34,1.34,0,0,0-.07.18l-.06.18v0l0,.11,0,.2a1.27,1.27,0,0,0,0,.2.86.86,0,0,0,0,.16.66.66,0,0,0,0,.14.34.34,0,0,0,0,.1c0,.07,0,.14,0,.2a3.51,3.51,0,0,0,.13.66,1.09,1.09,0,0,0,0,.17,1.46,1.46,0,0,0,.07.19s0,0,0,0h0a1.87,1.87,0,0,0,.15.32l0,.07a0,0,0,0,1,0,0,.37.37,0,0,0,0,.11,4.16,4.16,0,0,0,.67.89l0,0,.11.1h0a3.73,3.73,0,0,0,.3.26l.17.12.07,0a4.15,4.15,0,0,0,1.34.59c-.68,6.76,1.3,14.6,6,23.9A24.19,24.19,0,0,1,28.49,44.59Z"/></g></svg>