<svg id="Capa_1" data-name="Capa 1" xmlns="http://www.w3.org/2000/svg" viewBox="0 0 60 60"><defs><style>.cls-1{fill:#fff;}.cls-2{fill:#efb428;}.cls-3{fill:#005883;}</style></defs><g id="BIBLIOTECA"><path class="cls-1" d="M53.62,13.53A16.75,16.75,0,0,0,48.67,11a26.55,26.55,0,0,0-7.9-1.14A23.3,23.3,0,0,0,30,12.23,23.38,23.38,0,0,0,19.22,9.9c-5.2,0-9.76,1.29-12.86,3.64A3.47,3.47,0,0,0,5,16.29V45a4.49,4.49,0,0,0,4.43,4.43,3.69,3.69,0,0,0,1.09-.16,3.42,3.42,0,0,0,.89-.28,20.67,20.67,0,0,1,7.81-1.82c3.7,0,6.79.8,8.7,2.24a3.45,3.45,0,0,0,2.08.7,3.37,3.37,0,0,0,1.83-.53,20.48,20.48,0,0,1,8.94-2.41,16.52,16.52,0,0,1,7.77,1.7,4.34,4.34,0,0,0,2,.46A4.49,4.49,0,0,0,55,44.89V16.29A3.48,3.48,0,0,0,53.62,13.53ZM40.77,30.31A18.21,18.21,0,0,0,32,32.25V29a22.85,22.85,0,0,1,8.81-1.63,25.93,25.93,0,0,1,4.9.48v3A23.1,23.1,0,0,0,40.77,30.31Zm4.9,2.77v3a23.11,23.11,0,0,0-4.9-.5A18.22,18.22,0,0,0,32,37.48V34.23a22.48,22.48,0,0,1,8.81-1.62A24.39,24.39,0,0,1,45.67,33.08Zm-4.9-8A18.21,18.21,0,0,0,32,27V23.79a22.48,22.48,0,0,1,8.81-1.63,26.79,26.79,0,0,1,4.9.47v3A23.1,23.1,0,0,0,40.77,25.1Z"/><path d="M52.58,14.91a15.17,15.17,0,0,0-4.43-2.23,25,25,0,0,0-7.38-1.06A21,21,0,0,0,30,14.2a21,21,0,0,0-10.78-2.58c-4.82,0-9,1.17-11.82,3.29a1.74,1.74,0,0,0-.68,1.38V45a2.78,2.78,0,0,0,2.71,2.7,2.34,2.34,0,0,0,.71-.11,1.57,1.57,0,0,0,.52-.16,22.38,22.38,0,0,1,8.56-2c4.08,0,7.53.92,9.74,2.59a1.71,1.71,0,0,0,2,.08,22.08,22.08,0,0,1,9.85-2.67,18.23,18.23,0,0,1,8.54,1.87,2.54,2.54,0,0,0,1.26.28,2.77,2.77,0,0,0,2.7-2.7V16.29A1.69,1.69,0,0,0,52.58,14.91Zm-6.91,7.72v3a23.1,23.1,0,0,0-4.9-.51A18.21,18.21,0,0,0,32,27V23.79a22.48,22.48,0,0,1,8.81-1.63A26.79,26.79,0,0,1,45.67,22.63Zm0,5.22v3a23.1,23.1,0,0,0-4.9-.51A18.21,18.21,0,0,0,32,32.25V29a22.85,22.85,0,0,1,8.81-1.63A25.93,25.93,0,0,1,45.67,27.85ZM32,37.48V34.23a22.48,22.48,0,0,1,8.81-1.62,24.39,24.39,0,0,1,4.9.47v3a23.11,23.11,0,0,0-4.9-.5A18.22,18.22,0,0,0,32,37.48Z"/><path class="cls-2" d="M46.91,18c-.25-.07-.49-.13-.74-.18l-.75-.16-.76-.13-.58-.08-.7-.08c-.28,0-.57-.06-.85-.07l-.68,0-1.08,0c-.42,0-.85,0-1.31.06l-.7.07-.71.1-.72.12-.74.14c-.48.1-1,.22-1.46.35l-.73.21-.74.23c-.23.08-.45.15-.66.24l-.67.25c-.19.08-.38.15-.56.24a13.88,13.88,0,0,0-1.28.63L30,20.2V42.74a13.32,13.32,0,0,1,1.69-.89,16.45,16.45,0,0,1,1.59-.63L34,41l.81-.24.61-.17.62-.15c.62-.15,1.24-.27,1.85-.36l.53-.08.34,0,.68-.07.4,0,.37,0h1.26q.3,0,.6,0l.44,0,.88.07.7.08c.34,0,.69.1,1,.16s.57.1.85.17l.44.1c.41.1.81.21,1.21.34V18.24Zm-1.24,18a23.11,23.11,0,0,0-4.9-.5A18.22,18.22,0,0,0,32,37.48V34.23a22.48,22.48,0,0,1,8.81-1.62,24.39,24.39,0,0,1,4.9.47Zm0-5.23a23.1,23.1,0,0,0-4.9-.51A18.21,18.21,0,0,0,32,32.25V29a22.85,22.85,0,0,1,8.81-1.63,25.93,25.93,0,0,1,4.9.48Zm0-5.21a23.1,23.1,0,0,0-4.9-.51A18.21,18.21,0,0,0,32,27V23.79a22.48,22.48,0,0,1,8.81-1.63,26.79,26.79,0,0,1,4.9.47Z"/><path class="cls-3" d="M47.63,14.33a23,23,0,0,0-6.86-1c-3.82,0-7.93.78-10.77,2.94-2.84-2.16-7-2.94-10.78-2.94s-7.93.78-10.77,2.94V45a1.05,1.05,0,0,0,1,1c.19,0,.29-.1.49-.1a23.92,23.92,0,0,1,9.3-2.15c3.82,0,7.94.78,10.78,2.93a23.62,23.62,0,0,1,10.77-2.93,19.92,19.92,0,0,1,9.31,2.05.87.87,0,0,0,.49.1,1.05,1.05,0,0,0,1-1V16.29A13.22,13.22,0,0,0,47.63,14.33Zm0,25.13a1,1,0,0,1-1.21,1l-.44-.1c-.28-.07-.56-.12-.85-.17s-.68-.12-1-.16l-.7-.08-.88-.07-.44,0q-.3,0-.6,0H40.23l-.37,0-.4,0-.68.07-.34,0-.53.08c-.61.09-1.23.21-1.85.36l-.62.15-.61.17L34,41l-.74.25a16.45,16.45,0,0,0-1.59.63l-.28.12a1,1,0,0,1-1.41-.9V20.78a1,1,0,0,1,.49-.87,13.88,13.88,0,0,1,1.28-.63c.18-.09.37-.16.56-.24l.67-.25c.21-.09.43-.16.66-.24l.74-.23c.24-.08.48-.14.73-.21.49-.13,1-.25,1.46-.35l.74-.14.72-.12.71-.1.7-.07c.46,0,.89-.06,1.31-.06l1.08,0,.68,0c.28,0,.57,0,.85.07l.7.08.58.08.76.13.75.16c.25,0,.49.11.74.18a1,1,0,0,1,.72,1Z"/><path class="cls-1" d="M45.67,33.08v3a23.11,23.11,0,0,0-4.9-.5A18.22,18.22,0,0,0,32,37.48V34.23a22.48,22.48,0,0,1,8.81-1.62A24.39,24.39,0,0,1,45.67,33.08Z"/><path class="cls-1" d="M45.67,27.85v3a23.1,23.1,0,0,0-4.9-.51A18.21,18.21,0,0,0,32,32.25V29a22.85,22.85,0,0,1,8.81-1.63A25.93,25.93,0,0,1,45.67,27.85Z"/><path class="cls-1" d="M45.67,22.63v3a23.1,23.1,0,0,0-4.9-.51A18.21,18.21,0,0,0,32,27V23.79a22.48,22.48,0,0,1,8.81-1.63A26.79,26.79,0,0,1,45.67,22.63Z"/></g></svg>