<svg id="Capa_1" data-name="Capa 1" xmlns="http://www.w3.org/2000/svg" viewBox="0 0 60 60"><defs><style>.cls-1{fill:#fff;}.cls-2{fill:#efb428;}.cls-3{fill:#005883;}.cls-4{fill:#f0b429;}</style></defs><g id="BITACORA"><path class="cls-1" d="M51.52,41.44a3.55,3.55,0,0,0,.25-1.07,3.47,3.47,0,0,0-1-2.67L49.18,36V21.61A4,4,0,0,0,48,18.78L35.4,6.18A4,4,0,0,0,32.57,5H11.82a4,4,0,0,0-4,4V51a4,4,0,0,0,4,4H45.16a4,4,0,0,0,4-4v-2.9l1.46-1.5a4.56,4.56,0,0,0,1.54-2.81A3.26,3.26,0,0,0,51.52,41.44Z"/><g id="BITACORA-2" data-name="BITACORA"><path class="cls-2" d="M35.52,51.55h5.33a.56.56,0,0,0,.57-.57V24.1a.57.57,0,0,0-.57-.57H31.21a.56.56,0,0,1-.56-.56V13.33a.57.57,0,0,0-.57-.57H16.13a.56.56,0,0,0-.57.57V46.67a.56.56,0,0,0,.57.57H34.39Z"/><path d="M11.82,53.28A2.3,2.3,0,0,1,9.52,51V9a2.3,2.3,0,0,1,2.3-2.3H32.57a2.27,2.27,0,0,1,1.62.68L46.78,20a2.27,2.27,0,0,1,.68,1.62V51a2.3,2.3,0,0,1-2.3,2.29ZM39.7,45.52V25.26H31.21A2.3,2.3,0,0,1,28.92,23V14.48H17.28v31Z"/><path class="cls-3" d="M45.16,51.55H11.82a.56.56,0,0,1-.57-.57V9a.56.56,0,0,1,.57-.57H32.57a.59.59,0,0,1,.4.16l12.6,12.6a.59.59,0,0,1,.16.4V51a.56.56,0,0,1-.57.57H42a.57.57,0,0,1-.57-.57V24.1a.57.57,0,0,0-.57-.57H31.21a.56.56,0,0,1-.56-.56V13.33a.57.57,0,0,0-.57-.57H16.13a.56.56,0,0,0-.57.57V46.67a.56.56,0,0,0,.57.57h29a.57.57,0,0,1,.57.57V51A.56.56,0,0,1,45.16,51.55Z"/></g><path d="M35.09,53.28a1.43,1.43,0,0,1-1.43-1.43V49.46a1.45,1.45,0,0,1,.41-1L41.32,41a1.44,1.44,0,0,1,.74-.41,1.35,1.35,0,0,1,.42-.85L45.33,37a1.64,1.64,0,0,1,2.36,0l1.88,1.93a1.73,1.73,0,0,1,.48,1.34,1.57,1.57,0,0,1-.47,1c-.07.1-.16.19-.23.28h0l.18.23.11.11a2.05,2.05,0,0,1,.83,1.71,3,3,0,0,1-1.06,1.78l-3.34,3.43a.84.84,0,0,1-.62.27.86.86,0,0,1-.59-.24l-1.14-1.09a.64.64,0,0,1-.18-.25l-5.12,5.33a1.43,1.43,0,0,1-1,.44Z"/><path class="cls-1" d="M45,44.76l-7.2,7.48a.58.58,0,0,1-.41.17H35.09a.57.57,0,0,1-.57-.56V49.46a.59.59,0,0,1,.16-.4l7.25-7.45a.57.57,0,0,1,.82,0L45,44A.57.57,0,0,1,45,44.76Z"/><path class="cls-4" d="M49.6,43.53c0,.42-.41.84-.82,1.26l-3.34,3.43L44.3,47.13l3.42-3.52-.81-.83-.73.75a.57.57,0,0,1-.82,0l-2.29-2.36a.56.56,0,0,1,0-.8l2.85-2.79a.76.76,0,0,1,1.14,0L49,39.51a.83.83,0,0,1,0,1.17c-.25.34-.57.59-.57.84s.24.5.49.84C49.27,42.78,49.68,43.11,49.6,43.53Z"/><path d="M39.07,38.73a1.43,1.43,0,0,1-1.43-1.43V34.65H35.09a1.43,1.43,0,0,1-1.43-1.43V31.63a1.44,1.44,0,0,1,1.43-1.43h2.55V27.55a1.43,1.43,0,0,1,1.43-1.43h1.51A1.43,1.43,0,0,1,42,27.55V30.2h2.55A1.44,1.44,0,0,1,46,31.63v1.59a1.43,1.43,0,0,1-1.43,1.43H42V37.3a1.43,1.43,0,0,1-1.43,1.43Z"/><path class="cls-1" d="M41.15,30.5V27.55a.57.57,0,0,0-.57-.57H39.07a.57.57,0,0,0-.57.57V30.5a.57.57,0,0,1-.57.57H35.09a.57.57,0,0,0-.57.56v1.59a.58.58,0,0,0,.57.57h2.84a.56.56,0,0,1,.57.57v3a.56.56,0,0,0,.57.56h1.51a.56.56,0,0,0,.57-.56v-3a.57.57,0,0,1,.57-.57h2.84a.58.58,0,0,0,.57-.57V31.63a.57.57,0,0,0-.57-.56H41.72A.58.58,0,0,1,41.15,30.5Z"/></g></svg>