<svg id="Capa_1" data-name="Capa 1" xmlns="http://www.w3.org/2000/svg" viewBox="0 0 60 60"><defs><style>.cls-1{fill:#fff;}.cls-2{fill:#efb428;}.cls-3{fill:#f7a51d;}.cls-4{fill:#005883;}</style></defs><g id="C2"><path class="cls-1" d="M17.71,55A8.64,8.64,0,0,1,9.1,46.39V13.61A8.6,8.6,0,0,1,17.71,5H33.2A9.29,9.29,0,0,1,35,5.19l.06,0A8.47,8.47,0,0,1,39.2,7.44l9.12,8.91a8.64,8.64,0,0,1,1.9,2.79,8,8,0,0,1,.49,1.61s0,.09,0,.12a1.91,1.91,0,0,0,0,.21s0,.07,0,.11a8.08,8.08,0,0,1,.11,1.31V46.39A8.62,8.62,0,0,1,42.29,55Z"/><path d="M49.16,21.39v0a.14.14,0,0,0,0-.07.19.19,0,0,0,0-.08.14.14,0,0,0,0-.06,6.24,6.24,0,0,0-.4-1.35,7.08,7.08,0,0,0-1.54-2.27L38.06,8.61a7,7,0,0,0-3.34-1.8h0a6.92,6.92,0,0,0-1.51-.17H17.71a7,7,0,0,0-7,7V46.39a7,7,0,0,0,7,7H42.29a6.88,6.88,0,0,0,4.92-2,7,7,0,0,0,2-4.94V22.5A6.45,6.45,0,0,0,49.16,21.39Z"/><path class="cls-2" d="M46.39,22.5V46.39a4.08,4.08,0,0,1-4.09,4.1H17.71a4.1,4.1,0,0,1-4.1-4.1V13.61a4.13,4.13,0,0,1,1.2-2.91,4.07,4.07,0,0,1,2.9-1.19H33.2a3.94,3.94,0,0,1,.9.1V17.7a4.1,4.1,0,0,0,4.1,4.1h8.13A3.31,3.31,0,0,1,46.39,22.5Z"/><path class="cls-2" d="M42.29,51.72H17.71a5.34,5.34,0,0,1-5.33-5.33V13.61a5.26,5.26,0,0,1,1.56-3.77,5.33,5.33,0,0,1,3.77-1.56H33.2a5.18,5.18,0,0,1,1.17.13,1.22,1.22,0,0,1,1,1.2V17.7a2.89,2.89,0,0,0,2.87,2.87h8.13a1.23,1.23,0,0,1,1.2,1,4.75,4.75,0,0,1,.09,1V46.39a5.33,5.33,0,0,1-1.56,3.77A5.26,5.26,0,0,1,42.29,51.72Zm-24.58-41a2.83,2.83,0,0,0-2,.83,2.86,2.86,0,0,0-.85,2V46.39a2.89,2.89,0,0,0,2.87,2.87H42.29a2.85,2.85,0,0,0,2.87-2.87V23h-7a5.34,5.34,0,0,1-5.33-5.33v-7Z"/><path class="cls-3" d="M46.33,21.8H38.2a4.1,4.1,0,0,1-4.1-4.1V9.61a4.09,4.09,0,0,1,2,1.06l9.09,8.9a4.08,4.08,0,0,1,.91,1.34A3.61,3.61,0,0,1,46.33,21.8Z"/><path class="cls-4" d="M46.33,23H38.2a5.34,5.34,0,0,1-5.33-5.33V9.61a1.22,1.22,0,0,1,.46-1,1.2,1.2,0,0,1,1-.24,5.27,5.27,0,0,1,2.56,1.38l9.1,8.9a5.31,5.31,0,0,1,1.18,1.74,4.89,4.89,0,0,1,.34,1.18,1.19,1.19,0,0,1-.28,1A1.22,1.22,0,0,1,46.33,23Zm-11-11.36v6a2.89,2.89,0,0,0,2.87,2.87h6.22l-.12-.12Z"/><polygon class="cls-4" points="46.39 23.03 46.33 23.03 46.33 20.57 46.39 23.03"/><rect class="cls-4" x="32.87" y="9.51" width="2.46" height="0.1"/><path d="M30.47,30.69a2.23,2.23,0,0,1,0-4.46H42.76a2.23,2.23,0,1,1,0,4.46Z"/><path class="cls-1" d="M42.76,29.69H30.47a1.23,1.23,0,0,1,0-2.46H42.76a1.23,1.23,0,1,1,0,2.46Z"/><path d="M20.37,31.88a1,1,0,0,1-.71-.3L16.8,28.72a1.82,1.82,0,0,1,2.57-2.57l1,1,3.74-3.74a1.8,1.8,0,0,1,2.57,0,1.82,1.82,0,0,1,0,2.57l-5.61,5.6a1,1,0,0,1-.7.3Z"/><path class="cls-1" d="M20.37,30.88,17.51,28a.82.82,0,0,1,0-1.16.81.81,0,0,1,1.15,0l1.71,1.7,4.44-4.45A.82.82,0,1,1,26,25.27Z"/><path d="M30.47,38.28a2.23,2.23,0,1,1,0-4.46H42.76a2.23,2.23,0,1,1,0,4.46Z"/><path class="cls-1" d="M42.76,37.28H30.47a1.23,1.23,0,1,1,0-2.46H42.76a1.23,1.23,0,1,1,0,2.46Z"/><path d="M20.37,40.46a1,1,0,0,1-.71-.29L16.8,37.31a1.82,1.82,0,0,1,0-2.57,1.8,1.8,0,0,1,2.57,0l1,1L24.11,32a1.82,1.82,0,0,1,2.57,0,1.83,1.83,0,0,1,0,2.58l-5.61,5.6a1,1,0,0,1-.7.29Z"/><path class="cls-1" d="M20.37,39.46,17.51,36.6a.82.82,0,0,1,0-1.16.81.81,0,0,1,1.15,0l1.71,1.71,4.44-4.45A.82.82,0,1,1,26,33.86Z"/><path d="M30.47,45.45a2.23,2.23,0,1,1,0-4.46H42.76a2.23,2.23,0,1,1,0,4.46Z"/><path class="cls-1" d="M42.76,44.45H30.47a1.23,1.23,0,1,1,0-2.46H42.76a1.23,1.23,0,1,1,0,2.46Z"/><path d="M20.37,47.64a1,1,0,0,1-.71-.3L16.8,44.48a1.82,1.82,0,0,1,0-2.57,1.82,1.82,0,0,1,2.57,0l1,1,3.74-3.73a1.8,1.8,0,0,1,2.57,0,1.82,1.82,0,0,1,0,2.57l-5.61,5.6a1,1,0,0,1-.7.3Z"/><path class="cls-1" d="M20.37,46.64l-2.86-2.87a.82.82,0,0,1,0-1.16.81.81,0,0,1,1.15,0l1.71,1.71,4.44-4.45A.82.82,0,0,1,26,41Z"/></g></svg>