<svg id="Capa_1" data-name="Capa 1" xmlns="http://www.w3.org/2000/svg" viewBox="0 0 60 60"><defs><style>.cls-1{fill:#fff;}.cls-2{fill:#005883;}.cls-3{fill:#efb428;}</style></defs><path class="cls-1" d="M52.47,15.26H42.54a12.79,12.79,0,0,0-25.08,0H7.53A2.53,2.53,0,0,0,5,17.79V41a2.52,2.52,0,0,0,1.36,2.23v9.21A2.53,2.53,0,0,0,8.89,55H51.11a2.53,2.53,0,0,0,2.53-2.53V43.26A2.52,2.52,0,0,0,55,41V17.79A2.53,2.53,0,0,0,52.47,15.26Zm-18.37.68a2.56,2.56,0,0,0,0-2.23,4.55,4.55,0,0,0-1.61-1.81,2.55,2.55,0,0,0-1.22-1.72,7.73,7.73,0,0,1,6.21,5.76Zm-5.43-5.76A2.56,2.56,0,0,0,27.5,11.9a4.59,4.59,0,0,0-2.1,3.85c0,.07,0,.13,0,.19H22.5A7.75,7.75,0,0,1,28.67,10.18Z"/><path class="cls-2" d="M41.62,38.32,48.4,52.47h2.71V38.32Z"/><path class="cls-2" d="M8.89,52.47H48.4V38.32H8.89Z"/><path class="cls-2" d="M52.47,41V35.61l-8.14-5.43L49.76,41Z"/><path class="cls-2" d="M7.53,41V35.61l42.23-8.14V41Z"/><path class="cls-3" d="M31.36,49.17h2.71v-9.5H28.64Z"/><path class="cls-3" d="M25.93,49.17h5.43v-9.5H25.93Z"/><path class="cls-1" d="M31.36,45.1A1.36,1.36,0,1,1,30,43.74a1.36,1.36,0,0,1,1.36,1.36"/><path class="cls-3" d="M34.07,38.32H31.36V41h2.71a1.36,1.36,0,1,0,0-2.71"/><path class="cls-3" d="M32.71,39.67a1.35,1.35,0,0,0-1.35-1.35H25.93a1.36,1.36,0,1,0,0,2.71h5.43a1.35,1.35,0,0,0,1.35-1.36"/><path class="cls-2" d="M49.76,35.61,41.62,26.7l8.14-8.91h2.71V35.61Z"/><path class="cls-2" d="M7.53,17.79H49.76V35.61H7.53Z"/><path class="cls-1" d="M40.26,25.34H19.74a1.36,1.36,0,0,0,0,2.72H40.26a1.36,1.36,0,0,0,0-2.72"/><path d="M51.11,53.15H8.89a.68.68,0,0,1-.68-.68V41a.68.68,0,1,1,1.35,0V51.79H50.44V41a.68.68,0,1,1,1.35,0V52.47A.68.68,0,0,1,51.11,53.15Z"/><path d="M52.47,41.71H7.53A.68.68,0,0,1,6.85,41V17.79a.69.69,0,0,1,.68-.68H19.74a.68.68,0,0,1,0,1.36H8.21V40.35H51.79V18.47H40.26a.68.68,0,0,1,0-1.36H52.47a.69.69,0,0,1,.68.68V41A.68.68,0,0,1,52.47,41.71Z"/><path d="M16.83,36.28H7.53a.68.68,0,1,1,0-1.35h9.3a.68.68,0,0,1,0,1.35Z"/><path d="M52.47,36.28H13a.68.68,0,1,1,0-1.35H52.47a.68.68,0,1,1,0,1.35Z"/><path class="cls-3" d="M40.26,17.79A10.26,10.26,0,1,1,30,7.53,10.26,10.26,0,0,1,40.26,17.79"/><path d="M30,28.73A10.94,10.94,0,1,1,40.94,17.79,10.95,10.95,0,0,1,30,28.73ZM30,8.21a9.59,9.59,0,1,0,9.58,9.58A9.59,9.59,0,0,0,30,8.21Z"/><path d="M40.26,28.73H19.74a2,2,0,1,1,0-4.07h3.31a.68.68,0,0,1,0,1.36H19.74a.68.68,0,0,0,0,1.36H40.26a.68.68,0,0,0,0-1.36H37a.68.68,0,0,1,0-1.36h3.31a2,2,0,1,1,0,4.07Z"/><path d="M34.07,49.85H25.93a.69.69,0,0,1-.68-.68V41.59a2,2,0,0,1,.68-4h8.14a2,2,0,0,1,.68,4v7.58A.69.69,0,0,1,34.07,49.85Zm-7.46-1.36h6.78V41a.68.68,0,0,1,.68-.68.68.68,0,1,0,0-1.35H25.93a.68.68,0,1,0,0,1.35.68.68,0,0,1,.68.68Z"/><path d="M30,47.13a2,2,0,1,1,2-2A2,2,0,0,1,30,47.13Zm0-2.71a.68.68,0,1,0,.68.68A.69.69,0,0,0,30,44.42Z"/><path d="M32.75,19.84a2.75,2.75,0,0,1-2.05,2.65v.76a.7.7,0,0,1-1.4,0v-.76a2.73,2.73,0,0,1-1.74-1.39.7.7,0,0,1,1.24-.65,1.35,1.35,0,1,0,1.2-2,2.74,2.74,0,0,1-.7-5.39v-.76a.71.71,0,0,1,.69-.68.69.69,0,0,1,.71.68v.76a2.72,2.72,0,0,1,1.76,1.43.7.7,0,0,1-1.25.62,1.35,1.35,0,1,0-1.21,2A2.75,2.75,0,0,1,32.75,19.84Z"/></svg>