<svg id="Capa_1" data-name="Capa 1" xmlns="http://www.w3.org/2000/svg" viewBox="0 0 60 60"><defs><style>.cls-1{fill:#fff;}.cls-2{fill:#9abbd0;}.cls-3{fill:#005883;}.cls-4{fill:#efb428;}</style></defs><path class="cls-1" d="M54.33,15.59a2.55,2.55,0,0,0-1.86-.82H17.9l0-.31a.78.78,0,0,0,0-.16l-.11-.89A8.66,8.66,0,0,0,9.17,5.87H8.89a3.89,3.89,0,1,0,0,7.77h.28a.86.86,0,0,1,.85.76l3.31,25.81a8.75,8.75,0,0,0,4.58,6.54,5.34,5.34,0,0,0-.46,2.14,5.25,5.25,0,0,0,10.49,0,5.4,5.4,0,0,0-.14-1.15h9.83a5.4,5.4,0,0,0-.14,1.15,5.24,5.24,0,0,0,10.48,0,5.19,5.19,0,0,0-.44-2.12,3.87,3.87,0,0,0-.35-6.13A8,8,0,0,0,52.88,34l.08-.63s0-.07,0-.11L54.62,20.4,55,17.66A2.53,2.53,0,0,0,54.33,15.59Z"/><path class="cls-2" d="M15.33,14.59l3.2,24.89Z"/><path d="M52.12,19.34h-25a.69.69,0,0,0-.49.21.67.67,0,0,0-.19.5l0,.65.21,5.13H22.76l-.44-5.13L22.26,20a.67.67,0,0,0-.73-.61.66.66,0,0,0-.62.73l.05.62.44,5.13H16.78a.66.66,0,0,0-.6.66h0a1.11,1.11,0,0,0,0,.19.68.68,0,0,0,.65.5h4.67L22,32.32H17.61A.67.67,0,0,0,17,33h0a.47.47,0,0,0,0,.17.67.67,0,0,0,.65.5H50.46a.68.68,0,0,0,.66-.53v0a.53.53,0,0,0,0-.12.68.68,0,0,0-.67-.68h-2l.74-5.72h0L50,20.7h2.11a.67.67,0,0,0,.66-.53l0-.15A.67.67,0,0,0,52.12,19.34Zm-28.8,13-.44-5.13h3.9L27,32.32Zm8.72,0H28.35l-.22-5.13H32Zm0-6.49h-4l-.23-5.13H32Zm5,6.49H33.39V27.19H37.3Zm.27-6.49h-4V20.7h4.19Zm4.76,6.49H38.43l.22-5.13h3.9Zm.56-6.49h-4l.22-5.13H43.1Zm4.48,6.49H43.47l.44-5.13h3.9ZM48,25.83H44l.43-5.13h4.18Z"/><polygon class="cls-1" points="26.99 32.32 23.32 32.32 22.88 27.19 26.78 27.19 26.99 32.32"/><polygon class="cls-1" points="32.04 27.19 32.04 32.32 28.35 32.32 28.13 27.19 32.04 27.19"/><polygon class="cls-1" points="37.3 27.19 37.08 32.32 33.39 32.32 33.39 27.19 37.3 27.19"/><polygon class="cls-1" points="42.55 27.19 42.11 32.32 38.43 32.32 38.65 27.19 42.55 27.19"/><polygon class="cls-1" points="47.81 27.19 47.15 32.32 43.47 32.32 43.91 27.19 47.81 27.19"/><polygon class="cls-1" points="48.64 20.7 47.98 25.83 44.03 25.83 44.47 20.7 48.64 20.7"/><polygon class="cls-1" points="43.1 20.7 42.67 25.83 38.7 25.83 38.93 20.7 43.1 20.7"/><polygon class="cls-1" points="37.58 20.7 37.35 25.83 33.39 25.83 33.39 20.7 37.58 20.7"/><polygon class="cls-1" points="32.04 20.7 32.04 25.83 28.07 25.83 27.85 20.7 32.04 20.7"/><path d="M16,14.43a.68.68,0,0,0-.66-.52H12.59a.68.68,0,0,0-.67.69s0,.09,0,.14a.68.68,0,0,0,.66.53h2.83A.66.66,0,0,0,16,14.6v0Zm37,2.43a.71.71,0,0,0-.51-.24H15.59a.68.68,0,0,0-.59.68l0,.16a.69.69,0,0,0,.66.52h36l-.18,1.35-.18,1.36L49.86,32.32,49.7,33.6s0,0,0,.07A4.78,4.78,0,0,1,45,37.75H18.31a.66.66,0,0,0-.61.64v0a.58.58,0,0,0,0,.19.7.7,0,0,0,.65.49H45A6.12,6.12,0,0,0,51,33.77l.08-.63v0l1.66-12.95,0-.15.34-2.63A.64.64,0,0,0,53,16.86Z"/><path class="cls-3" d="M51.34,20.7,49.86,32.32H48.51l.74-5.72h0L50,20.7Z"/><path d="M44.31,45.89a3.38,3.38,0,0,0-3.15,0,3.39,3.39,0,1,0,3.15,0Zm-1.58,5a2,2,0,1,1,2-2A2,2,0,0,1,42.73,50.92Z"/><circle class="cls-4" cx="42.73" cy="48.89" r="2.04"/><path d="M24.27,45.89a3.32,3.32,0,0,0-1.57-.39,3.41,3.41,0,0,0-1.5.35,3.38,3.38,0,1,0,3.07,0Zm-1.57,5a2,2,0,1,1,2-2A2,2,0,0,1,22.7,50.92Z"/><path class="cls-4" d="M24.73,48.89a2,2,0,1,1-2-2A2,2,0,0,1,24.73,48.89Z"/><path d="M17,27.19h-.1a.68.68,0,0,1-.65-.5L17,33a.67.67,0,0,1,.6-.66Zm-.83-6.49H16a.67.67,0,0,1-.66-.5l.81,6.3a.66.66,0,0,1,.6-.66ZM17,27.19h-.1a.68.68,0,0,1-.65-.5L17,33a.67.67,0,0,1,.6-.66Zm-.83-6.49H16a.67.67,0,0,1-.66-.5l.81,6.3a.66.66,0,0,1,.6-.66ZM17,27.19h-.1a.68.68,0,0,1-.65-.5L17,33a.67.67,0,0,1,.6-.66Zm-.17-1.35-.66-5.14H16a.67.67,0,0,1-.66-.5l.81,6.3A.66.66,0,0,1,16.78,25.84Zm28.2,16H21.9a2.74,2.74,0,0,1-2.7-2.36l0-.35L19,37.75l-.52-4.08-.17-1.35-.66-5.13-.18-1.36L16.8,20.7l-.18-1.36L16.44,18l-.17-1.37-.26-2v0l0-.13-.1-.79A6.79,6.79,0,0,0,9.17,7.73H8.89a2,2,0,1,0,0,4.06h.28a2.7,2.7,0,0,1,2.68,2.37l.08.58L15.17,40a6.8,6.8,0,0,0,6,5.88,5.48,5.48,0,0,0,.7,0H45a2,2,0,1,0,0-4.08Zm0,2.71H21.9a5.43,5.43,0,0,1-5.38-4.73L13.37,15.27,13.2,14s0-.05,0-.08a4.07,4.07,0,0,0-4-3.47H8.89a.69.69,0,0,1-.69-.69.68.68,0,0,1,.69-.67h.28a5.43,5.43,0,0,1,5.38,4.73v.1l.17,1.36.27,2,0,.16L15.34,20h0l0,.18.81,6.3h0a1.11,1.11,0,0,0,0,.19L17,33h0a.47.47,0,0,0,0,.17l.66,5.23v0a.58.58,0,0,0,0,.19l.13,1a4.08,4.08,0,0,0,4,3.55H45a.68.68,0,0,1,.68.68A.67.67,0,0,1,45,44.52ZM16.12,20.7H16a.67.67,0,0,1-.66-.5l.81,6.3a.66.66,0,0,1,.6-.66ZM17,27.19h-.1a.68.68,0,0,1-.65-.5L17,33a.67.67,0,0,1,.6-.66Zm-.83-6.49H16a.67.67,0,0,1-.66-.5l.81,6.3a.66.66,0,0,1,.6-.66ZM17,27.19h-.1a.68.68,0,0,1-.65-.5L17,33a.67.67,0,0,1,.6-.66Zm.83,6.48-.17-1.34L17,27.19l-.17-1.35-.66-5.14-.18-1.35L15.77,18h-.09a.69.69,0,0,1-.66-.52L15.34,20h0l0,.18.81,6.3h0a1.11,1.11,0,0,0,0,.19L17,33h0a.47.47,0,0,0,0,.17l.66,5.23a.66.66,0,0,1,.61-.64Z"/><polygon class="cls-1" points="21.95 32.32 18.29 32.32 17.63 27.19 21.52 27.19 21.95 32.32"/><path class="cls-4" d="M49.69,33.67A4.78,4.78,0,0,1,45,37.75H19l-.52-4.08H49.69Z"/><path class="cls-4" d="M14.56,13.91H13.19a4.07,4.07,0,0,0-4-3.47H8.89a.69.69,0,0,1-.69-.69.68.68,0,0,1,.69-.67h.28a5.43,5.43,0,0,1,5.38,4.73Z"/><path class="cls-3" d="M45.66,43.85a.67.67,0,0,1-.68.67H21.9a5.43,5.43,0,0,1-5.38-4.73L13.37,15.27h1.36l.27,2,0,.16L15.34,20h0a.52.52,0,0,0,0,.18l.81,6.3h0a1.11,1.11,0,0,0,0,.19L17,33h0a.47.47,0,0,0,0,.17l.66,5.23v0a.58.58,0,0,0,0,.19l.13,1a4.08,4.08,0,0,0,4,3.55H45A.68.68,0,0,1,45.66,43.85Z"/><path class="cls-4" d="M51.7,18l-.18,1.35H16.62L16.44,18Z"/><polygon class="cls-1" points="21.4 25.83 17.45 25.83 16.8 20.7 20.96 20.7 21.4 25.83"/><polygon class="cls-1" points="26.71 25.83 22.76 25.83 22.32 20.7 26.5 20.7 26.71 25.83"/><path d="M27.83,20a.69.69,0,0,1-.68.68H16a.67.67,0,0,1-.66-.5l0-.18h0a.68.68,0,0,1,.6-.66H27.15A.68.68,0,0,1,27.83,20Z"/></svg>