<svg id="Capa_1" data-name="Capa 1" xmlns="http://www.w3.org/2000/svg" viewBox="0 0 60 60"><defs><style>.cls-1{fill:#fff;}.cls-2{fill:#005883;}.cls-3{fill:#efb428;}</style></defs><g id="CONSECUTIVOS"><path class="cls-1" d="M50.37,41.28a23.18,23.18,0,0,1-2.87,3.81l0,0A5.73,5.73,0,0,1,48,53a5.73,5.73,0,0,1-3.71,2l-.46,0H34.53a5.73,5.73,0,0,1-5.67-5s0-.46,0-.46,0-.14,0-.21V43.46a3.23,3.23,0,0,1-1.08.2H26.64v1.08a3.45,3.45,0,0,1-3.45,3.45H18.65a3.45,3.45,0,0,1-3.45-3.45V43.66H14.12a3.46,3.46,0,0,1-3.45-3.45V35.66a3.29,3.29,0,0,1,.22-1.17,5.7,5.7,0,0,1-4.76-5.63A23.87,23.87,0,1,1,50.37,41.28Z"/><path d="M48.91,40.38a22.14,22.14,0,1,0-41-11.52A4,4,0,0,0,9,31.68a4,4,0,0,0,2.83,1.17,4,4,0,0,0,4-4A14.16,14.16,0,1,1,42,36.43a14.4,14.4,0,0,1-3.43,3.74s0-.4,0-.43a4,4,0,0,0-1.4-2.59,4,4,0,0,0-2.57-.94H34.3a4,4,0,0,0-3.76,4v9.18s0,.33,0,.37a4,4,0,0,0,4,3.52h9.18l.37,0a4,4,0,0,0,2.27-6.86,4.14,4.14,0,0,0-1.66-1A22.1,22.1,0,0,0,48.91,40.38Z"/><path d="M27.73,33.94H24.91V31.13a1.72,1.72,0,0,0-1.72-1.72H18.65a1.72,1.72,0,0,0-1.72,1.72v2.81H14.12a1.73,1.73,0,0,0-1.73,1.73V40.2a1.72,1.72,0,0,0,1.73,1.73h2.81v2.81a1.73,1.73,0,0,0,1.72,1.73h4.54a1.73,1.73,0,0,0,1.72-1.73V41.93h2.82a1.72,1.72,0,0,0,1.72-1.73V35.67A1.73,1.73,0,0,0,27.73,33.94Z"/><path class="cls-2" d="M30,8.44A20.42,20.42,0,0,1,39.36,47h4.25a2.24,2.24,0,0,1,1.55.62,2.26,2.26,0,0,1,.71,1.52,2.25,2.25,0,0,1-2,2.38l-.26,0H34.53a2.29,2.29,0,0,1-2.25-2V40.2a2.27,2.27,0,0,1,4.52-.26v3.28A15.89,15.89,0,1,0,14.12,28.86a2.27,2.27,0,0,1-2.27,2.27,2.25,2.25,0,0,1-2.27-2.27A20.42,20.42,0,0,1,30,8.44Z"/><rect class="cls-3" x="18.65" y="31.13" width="4.54" height="13.61"/><rect class="cls-3" x="14.12" y="35.67" width="13.61" height="4.54"/></g></svg>