<svg id="Capa_1" data-name="Capa 1" xmlns="http://www.w3.org/2000/svg" viewBox="0 0 60 60"><defs><style>.cls-1{fill:#fff;}.cls-2{fill:#005883;}.cls-3{fill:#efb428;}</style></defs><path class="cls-1" d="M52.35,9.69H7.66a2.81,2.81,0,0,0-2.81,2.8v35a2.8,2.8,0,0,0,2.81,2.79H52.35a2.8,2.8,0,0,0,2.8-2.79v-35A2.81,2.81,0,0,0,52.35,9.69Z"/><path class="cls-2" d="M8.45,13.29V46.72H51.56V13.29ZM50.06,44.41a.81.81,0,0,1-.8.81H10.75a.8.8,0,0,1-.8-.81V15.59a.8.8,0,0,1,.8-.8H49.26a.81.81,0,0,1,.8.8Z"/><path d="M52.35,11.69H7.66a.8.8,0,0,0-.81.8v35a.8.8,0,0,0,.81.79H52.35a.79.79,0,0,0,.8-.79v-35A.8.8,0,0,0,52.35,11.69Zm-.79,35H8.45V13.29H51.56Z"/><path class="cls-3" d="M48.46,16.39v4.29H46.58a3.24,3.24,0,0,0-6.27,0h-1a3.24,3.24,0,0,0-6.28,0H19.93a3.18,3.18,0,0,0-1.26-1.84,3.24,3.24,0,0,0-5,1.84H11.55V16.39Z"/><path class="cls-3" d="M48.46,22.29V29.2h-.69a3.23,3.23,0,0,0-6.27,0h-1a3.23,3.23,0,0,0-6.27,0H33.15a3.24,3.24,0,0,0-6.28,0H19.92a3.2,3.2,0,0,0-1.25-1.83,3.32,3.32,0,0,0-1.88-.61,3.24,3.24,0,0,0-3.15,2.44H11.55V22.29h2.11a3.24,3.24,0,0,0,3.14,2.44,3.18,3.18,0,0,0,1.87-.6,3.23,3.23,0,0,0,1.26-1.84H33a3.22,3.22,0,0,0,3.13,2.44,3.26,3.26,0,0,0,3.15-2.44h1a3.23,3.23,0,0,0,6.27,0Z"/><path class="cls-3" d="M48.46,30.79v6.92h-1.9a3.1,3.1,0,0,0-.37-.88,3.23,3.23,0,0,0-5.52,0,2.84,2.84,0,0,0-.37.88h-1a3.42,3.42,0,0,0-.37-.88,3.25,3.25,0,0,0-5.54,0,3.1,3.1,0,0,0-.37.88H30.68a3.1,3.1,0,0,0-.37-.88A3.24,3.24,0,0,0,25,36.46a3.08,3.08,0,0,0-.63,1.25H19.92a3.24,3.24,0,0,0-6.28,0H11.55V30.79h2.09a3.24,3.24,0,0,0,5.89.92,3.45,3.45,0,0,0,.39-.92h7a3.24,3.24,0,0,0,6.28,0h1a3.24,3.24,0,0,0,6.28,0h1a3.24,3.24,0,0,0,5.43,1.5,3.25,3.25,0,0,0,.85-1.5Z"/><path d="M49.26,14.79H10.75a.8.8,0,0,0-.8.8V44.41a.8.8,0,0,0,.8.81H49.26a.81.81,0,0,0,.8-.81V15.59A.81.81,0,0,0,49.26,14.79Zm-.8,28.83H11.55V39.31h2.09a3.24,3.24,0,0,0,6.28,0h4.49a3.23,3.23,0,0,0,6.27,0H33a3.24,3.24,0,0,0,6.28,0h1a3.23,3.23,0,0,0,6.27,0h1.9Zm-33.32-5.1a1.65,1.65,0,1,1,1.65,1.64A1.64,1.64,0,0,1,15.14,38.52Zm10.76,0a1.65,1.65,0,1,1,1.65,1.64A1.66,1.66,0,0,1,25.9,38.52Zm8.58,0a1.65,1.65,0,1,1,3.3,0h0a1.65,1.65,0,0,1-3.3,0Zm7.31,0a1.64,1.64,0,1,1,1.64,1.64A1.65,1.65,0,0,1,41.79,38.52Zm6.67-.81h-1.9a3.1,3.1,0,0,0-.37-.88,3.23,3.23,0,0,0-5.52,0,2.84,2.84,0,0,0-.37.88h-1a3.42,3.42,0,0,0-.37-.88,3.25,3.25,0,0,0-5.54,0,3.1,3.1,0,0,0-.37.88H30.68a3.1,3.1,0,0,0-.37-.88A3.24,3.24,0,0,0,25,36.46a3.08,3.08,0,0,0-.63,1.25H19.92a3.24,3.24,0,0,0-6.28,0H11.55V30.79h2.09a3.24,3.24,0,0,0,5.89.92,3.45,3.45,0,0,0,.39-.92h7a3.24,3.24,0,0,0,6.28,0h1a3.24,3.24,0,0,0,6.28,0h1a3.24,3.24,0,0,0,5.43,1.5,3.25,3.25,0,0,0,.85-1.5h.69ZM15.14,30a1.65,1.65,0,1,1,1.65,1.64A1.64,1.64,0,0,1,15.14,30Zm13.22,0A1.65,1.65,0,1,1,30,31.65,1.64,1.64,0,0,1,28.36,30Zm7.33,0a1.65,1.65,0,0,1,1.64-1.65h0A1.65,1.65,0,1,1,35.69,30ZM43,30a1.65,1.65,0,0,1,3.3,0h0A1.65,1.65,0,0,1,43,30Zm5.48-.8h-.69a3.23,3.23,0,0,0-6.27,0h-1a3.23,3.23,0,0,0-6.27,0H33.15a3.24,3.24,0,0,0-6.28,0H19.92a3.2,3.2,0,0,0-1.25-1.83,3.32,3.32,0,0,0-1.88-.61,3.24,3.24,0,0,0-3.15,2.44H11.55V22.29h2.11a3.24,3.24,0,0,0,3.14,2.44,3.18,3.18,0,0,0,1.87-.6,3.23,3.23,0,0,0,1.26-1.84H33a3.22,3.22,0,0,0,3.13,2.44,3.26,3.26,0,0,0,3.15-2.44h1a3.23,3.23,0,0,0,6.27,0h1.88ZM15.15,21.48a1.65,1.65,0,0,1,3.29,0h0a1.65,1.65,0,1,1-3.29,0Zm19.36,0a1.65,1.65,0,1,1,3.29,0h0a1.65,1.65,0,1,1-3.29,0Zm7.29,0a1.65,1.65,0,1,1,3.29,0h0a1.65,1.65,0,1,1-3.29,0Zm6.66-.81H46.58a3.24,3.24,0,0,0-6.27,0h-1a3.24,3.24,0,0,0-6.28,0H19.93a3.18,3.18,0,0,0-1.26-1.84,3.24,3.24,0,0,0-5,1.84H11.55V16.39H48.46Z"/><path class="cls-1" d="M18.43,30a1.65,1.65,0,1,1-1.65-1.64A1.65,1.65,0,0,1,18.43,30Z"/><path class="cls-1" d="M31.65,30A1.65,1.65,0,1,1,30,28.36,1.64,1.64,0,0,1,31.65,30Z"/><path class="cls-1" d="M39,30a1.65,1.65,0,1,1-1.65-1.64h0A1.63,1.63,0,0,1,39,30Z"/><path class="cls-1" d="M46.28,30h0a1.65,1.65,0,1,1-1.65-1.65A1.66,1.66,0,0,1,46.28,30Z"/><path class="cls-2" d="M18.43,38.52a1.65,1.65,0,1,1-1.65-1.65A1.65,1.65,0,0,1,18.43,38.52Z"/><path class="cls-2" d="M29.19,38.52a1.65,1.65,0,1,1-1.64-1.65A1.65,1.65,0,0,1,29.19,38.52Z"/><path class="cls-2" d="M37.78,38.52h0a1.65,1.65,0,1,1-1.64-1.66A1.65,1.65,0,0,1,37.78,38.53Z"/><path class="cls-2" d="M45.07,38.52a1.64,1.64,0,1,1-1.64-1.65A1.64,1.64,0,0,1,45.07,38.52Z"/><path class="cls-3" d="M48.46,39.31v4.31H11.55V39.31h2.09a3.24,3.24,0,0,0,6.28,0h4.49a3.23,3.23,0,0,0,6.27,0H33a3.24,3.24,0,0,0,6.28,0h1a3.23,3.23,0,0,0,6.27,0Z"/></svg>