<svg id="Capa_1" data-name="Capa 1" xmlns="http://www.w3.org/2000/svg" viewBox="0 0 60 60"><defs><style>.cls-1{fill:#fff;}.cls-2{fill:#efb428;}.cls-3{fill:#005883;}.cls-4{fill:#eac092;}</style></defs><path class="cls-1" d="M51.68,39.29,46,29.53a3.21,3.21,0,0,0-1.68-1.4,2.58,2.58,0,0,0,0-.39V16.13A4.71,4.71,0,0,0,44,14.3a3.21,3.21,0,0,0-.24-.45,4.58,4.58,0,0,0-.72-1L36.58,6.36a4.9,4.9,0,0,0-1-.73,2.55,2.55,0,0,0-.46-.25A4.48,4.48,0,0,0,33.33,5H13.12a5.29,5.29,0,0,0-5.25,5.3v36a5.29,5.29,0,0,0,5.25,5.3h7A2.5,2.5,0,0,0,21.83,51h.25a4.17,4.17,0,0,0,.9.31,4.06,4.06,0,0,0,3.49,2h0a3.46,3.46,0,0,0,.57.51,4,4,0,0,0,2.38.78,4.07,4.07,0,0,0,1.85-.45l.57.34A4,4,0,0,0,34,55a3.8,3.8,0,0,0,1-.13,4.08,4.08,0,0,0,2.29-1.56h.09a4.1,4.1,0,0,0,3.52-2,.31.31,0,0,0,0-.1l.25,0a4,4,0,0,0,2.43-1.78,4.5,4.5,0,0,0,.64-.11,4.07,4.07,0,0,0,2.5-1.89,4.12,4.12,0,0,0,.55-2.1,4.34,4.34,0,0,0,1.84-.6l1.38-.83A3.34,3.34,0,0,0,51.68,39.29Z"/><path class="cls-2" d="M13.12,7.5a2.78,2.78,0,0,0-2.76,2.8v36a2.78,2.78,0,0,0,2.76,2.79h26a2.78,2.78,0,0,0,2.76-2.79V16.13a2.13,2.13,0,0,0-.61-1.5L34.81,8.12a2.13,2.13,0,0,0-1.48-.62Z"/><path class="cls-3" d="M41.23,14.63,34.81,8.12a2.22,2.22,0,0,0-.62-.43v4.76A2.78,2.78,0,0,0,37,15.25h4.7a2.19,2.19,0,0,0-.42-.62"/><path class="cls-4" d="M44,43.88,34.18,38a1.08,1.08,0,0,1-.37-1.47l.5-.87-2-1.19c-1.32-.77-1.93-.91-3.12-.44l-1.29.5a2.71,2.71,0,0,1-2.4-.2l-3.46-2.07-4.92,8.41,4.43,2.66a2.71,2.71,0,0,1,.78.69l1.49,2a17.27,17.27,0,0,0,3.63,2.9l5.7,3.42a1.57,1.57,0,0,0,2.17-.56,1.61,1.61,0,0,0-.56-2.2l1.79,1.07A1.58,1.58,0,0,0,38.73,50a1.63,1.63,0,0,0-.56-2.2l1.19.71A1.58,1.58,0,0,0,41.53,48a1.61,1.61,0,0,0-.56-2.2l1.46.87a1.58,1.58,0,0,0,2.17-.56,1.61,1.61,0,0,0-.56-2.2"/><path class="cls-4" d="M44,43.88l-3.39-2A1.86,1.86,0,0,1,37.87,43l-1-.58a.09.09,0,0,0-.11,0,.09.09,0,0,0,0,.11,1.87,1.87,0,0,1,.08,2,1.82,1.82,0,0,1-2.52.65l-.76-.45a.07.07,0,0,0-.1,0,.06.06,0,0,0,0,.08,1.9,1.9,0,0,1,.1,2.12,1.87,1.87,0,0,1-2.55.6l-.62-.38a.36.36,0,0,0-.4,0,.36.36,0,0,0-.15.37,1.87,1.87,0,0,1-.22,1.33,1.81,1.81,0,0,1-.86.76l4.33,2.6a1.6,1.6,0,1,0,1.65-2.74l1.75,1.05a1.6,1.6,0,1,0,1.65-2.74l1.15.69A1.6,1.6,0,1,0,41,45.77l1.42.85A1.6,1.6,0,1,0,44,43.88"/><path d="M41,46.45a.63.63,0,0,1-.34-.1l-4.5-2.7a.68.68,0,0,1-.24-.93.67.67,0,0,1,.92-.24l4.51,2.71a.68.68,0,0,1,.23.93A.67.67,0,0,1,41,46.45Z"/><path d="M38.17,48.5a.63.63,0,0,1-.34-.1l-3.32-2a.68.68,0,0,1-.23-.93.66.66,0,0,1,.91-.24l3.32,2a.69.69,0,0,1,.24.93A.67.67,0,0,1,38.17,48.5Z"/><path d="M34.77,50.19a.72.72,0,0,1-.34-.09l-1.3-.79a.68.68,0,0,1-.23-.93.67.67,0,0,1,.92-.23l1.3.78a.69.69,0,0,1,.23.93A.67.67,0,0,1,34.77,50.19Z"/><path class="cls-4" d="M43.19,32.73l-2.66,1.56a2.71,2.71,0,0,1-2.4.2l-1.46-.58a2.33,2.33,0,0,0-1.43-.09L33,34.39a2.38,2.38,0,0,0-1.77,2.31v3a.78.78,0,0,0,.77.78,2.32,2.32,0,0,0,2.3-2.34V38l9.57,5.74a2.63,2.63,0,0,1,.61-.49l3.63-2.15Z"/><path class="cls-4" d="M23.51,45.07l-.9,1.26a1.57,1.57,0,0,1-2.21.37A1.61,1.61,0,0,1,20,44.46l.89-1.26a1.57,1.57,0,0,1,2.21-.37h0a1.62,1.62,0,0,1,.37,2.24"/><path class="cls-4" d="M27.07,45.54l-1.89,2.67a1.57,1.57,0,0,1-2.21.36,1.62,1.62,0,0,1-.36-2.24l1.89-2.66a1.58,1.58,0,0,1,2.21-.37,1.62,1.62,0,0,1,.36,2.24"/><path class="cls-4" d="M29.64,47.41l-1.88,2.67a1.58,1.58,0,0,1-2.21.37,1.61,1.61,0,0,1-.37-2.24l1.89-2.67a1.58,1.58,0,0,1,2.21-.37,1.62,1.62,0,0,1,.36,2.24"/><path class="cls-4" d="M31.38,50.47l-.63.89a1.57,1.57,0,0,1-2.21.36,1.62,1.62,0,0,1-.36-2.24l.62-.88A1.57,1.57,0,0,1,31,48.23a1.61,1.61,0,0,1,.37,2.24"/><path class="cls-3" d="M23.9,31.35l-1.39-.83a.79.79,0,0,0-1.1.28l-5.7,9.75A.82.82,0,0,0,16,41.67l1.39.83a1.94,1.94,0,0,0,2.68-.69l4.53-7.74a2,2,0,0,0-.69-2.72"/><path class="cls-3" d="M42.72,30.52l-1.38.83a2,2,0,0,0-.69,2.72l4.53,7.74a1.94,1.94,0,0,0,2.68.69l1.39-.83a.83.83,0,0,0,.28-1.12h0L43.82,30.8a.79.79,0,0,0-1.1-.28"/><path d="M37.06,20.66H15.14a.68.68,0,0,1,0-1.36H37.06a.68.68,0,0,1,0,1.36Z"/><path d="M26.1,15.93h-11a.68.68,0,0,1,0-1.36h11a.68.68,0,0,1,0,1.36Z"/><path d="M37.06,24.85H15.14a.68.68,0,0,1,0-1.36H37.06a.68.68,0,0,1,0,1.36Z"/><path d="M41.65,15.93H37a3.46,3.46,0,0,1-3.43-3.48V7.69a.67.67,0,1,1,1.34,0v4.76A2.11,2.11,0,0,0,37,14.57h4.7a.68.68,0,0,1,0,1.36Z"/><path d="M20.14,49.8h-7a3.46,3.46,0,0,1-3.43-3.47v-36a3.46,3.46,0,0,1,3.43-3.48H33.33a2.72,2.72,0,0,1,2,.82l6.42,6.51a2.81,2.81,0,0,1,.81,2V27.74a.67.67,0,1,1-1.34,0V16.13a1.43,1.43,0,0,0-.42-1L34.33,8.6a1.4,1.4,0,0,0-1-.42H13.12A2.11,2.11,0,0,0,11,10.3v36a2.11,2.11,0,0,0,2.09,2.11h7a.68.68,0,0,1,0,1.36Z"/><path d="M18.37,43.46A2.6,2.6,0,0,1,17,43.09l-1.39-.84a1.46,1.46,0,0,1-.68-.91,1.48,1.48,0,0,1,.16-1.13l5.71-9.76a1.46,1.46,0,0,1,2-.52l1.39.83a2.67,2.67,0,0,1,.92,3.65l-4.52,7.74A2.63,2.63,0,0,1,18.37,43.46ZM22.1,31.08a.12.12,0,0,0-.11.07l-5.7,9.75a.14.14,0,0,0,0,.19l1.39.83a1.28,1.28,0,0,0,1.76-.46L24,33.72a1.27,1.27,0,0,0,.14-1,1.33,1.33,0,0,0-.59-.8h0l-1.39-.83Z"/><path d="M46.86,43.46a2.63,2.63,0,0,1-2.26-1.31l-2.12-3.62a.69.69,0,0,1,.23-.94.67.67,0,0,1,.92.24l2.12,3.63a1.28,1.28,0,0,0,1.77.46l1.38-.83A.14.14,0,0,0,49,40.9l-5.7-9.75s-.06-.06-.08-.06a.14.14,0,0,0-.11,0l-1.38.83a1.32,1.32,0,0,0-.45,1.79l.8,1.37a.69.69,0,0,1-.24.93.67.67,0,0,1-.92-.24l-.8-1.37a2.64,2.64,0,0,1-.28-2A2.68,2.68,0,0,1,41,30.76l1.39-.83a1.47,1.47,0,0,1,2,.52l5.7,9.76a1.49,1.49,0,0,1-.51,2l-1.39.84A2.61,2.61,0,0,1,46.86,43.46Z"/><path d="M26.91,35.36a3.41,3.41,0,0,1-1.74-.48l-.8-.48a.68.68,0,0,1-.24-.93.67.67,0,0,1,.92-.24l.8.48a2.08,2.08,0,0,0,1.82.15L29,33.35c1.47-.57,2.29-.33,3.69.49l.24.14a.69.69,0,0,1,.24.93.67.67,0,0,1-.92.24L32,35c-1.2-.69-1.6-.76-2.54-.39l-1.29.51A3.54,3.54,0,0,1,26.91,35.36Z"/><path d="M21.09,43.69a.74.74,0,0,1-.34-.1l-1.34-.8a.68.68,0,0,1-.23-.93.66.66,0,0,1,.91-.24l1.34.8a.68.68,0,0,1,.24.93A.66.66,0,0,1,21.09,43.69Z"/><path d="M34,53.18a2.21,2.21,0,0,1-1.14-.32l-2.15-1.29a.68.68,0,0,1-.23-.93.66.66,0,0,1,.91-.24l2.15,1.29a.88.88,0,0,0,.69.1.87.87,0,0,0,.56-.43.9.9,0,0,0,.1-.7.89.89,0,0,0-.42-.56h0a.68.68,0,0,1-.23-.93.66.66,0,0,1,.92-.24h0L36.9,50a.91.91,0,0,0,1.25-.33.94.94,0,0,0-.32-1.27h0a.68.68,0,0,1-.23-.93.66.66,0,0,1,.91-.24L39.7,48a.93.93,0,0,0,.69.1.87.87,0,0,0,.56-.43.9.9,0,0,0,.1-.7.93.93,0,0,0-.42-.57h0a.68.68,0,0,1-.23-.93.66.66,0,0,1,.92-.23l1.45.87a.93.93,0,0,0,.69.1.87.87,0,0,0,.56-.43.9.9,0,0,0,.1-.7.93.93,0,0,0-.42-.57.68.68,0,0,1-.23-.93.66.66,0,0,1,.92-.23,2.27,2.27,0,0,1,1,1.39,2.34,2.34,0,0,1-.24,1.74,2.27,2.27,0,0,1-2.77,1,2.17,2.17,0,0,1-.3.92,2.27,2.27,0,0,1-2.5,1.06,2.13,2.13,0,0,1-.31,1,2.23,2.23,0,0,1-3.09.8h0a2.46,2.46,0,0,1-.3.9,2.31,2.31,0,0,1-1.38,1A2.78,2.78,0,0,1,34,53.18Z"/><path d="M43.87,44.46a.63.63,0,0,1-.34-.1l-8.71-5.23a3,3,0,0,1-.72,1.16,2.94,2.94,0,0,1-2.1.89h0a1.46,1.46,0,0,1-1.44-1.46v-3a3,3,0,0,1,2.28-3l2.24-.58a3,3,0,0,1,1.84.12l1.46.58a2,2,0,0,0,1.81-.15l.19-.12a.68.68,0,0,1,.92.25.7.7,0,0,1-.25.93l-.18.11a3.4,3.4,0,0,1-3,.25l-1.46-.59a1.65,1.65,0,0,0-1-.06l-2.23.57A1.69,1.69,0,0,0,31.9,36.7v3a.11.11,0,0,0,.1.1h0a1.56,1.56,0,0,0,1.15-.49,1.63,1.63,0,0,0,.48-1.17V38a.68.68,0,0,1,1-.59l9.15,5.49a2.71,2.71,0,0,1,.35-.24l1.36-.8a.66.66,0,0,1,.91.24.68.68,0,0,1-.24.93l-1.35.8a2.33,2.33,0,0,0-.46.37A.68.68,0,0,1,43.87,44.46Z"/><path d="M21.32,47.68A2.19,2.19,0,0,1,20,47.25a2.3,2.3,0,0,1-.52-3.18l.9-1.27a2.23,2.23,0,0,1,3.14-.52,2.29,2.29,0,0,1,.52,3.18.66.66,0,0,1-.94.16.69.69,0,0,1-.15-.95.93.93,0,0,0,.16-.69.91.91,0,0,0-.37-.6.9.9,0,0,0-1.27.21l-.9,1.27a.94.94,0,0,0,.21,1.29.9.9,0,0,0,1.27-.21.67.67,0,0,1,.94-.16.68.68,0,0,1,.15.95A2.24,2.24,0,0,1,21.32,47.68Z"/><path d="M23.89,49.55a2.22,2.22,0,0,1-1.31-.42,2.3,2.3,0,0,1-.91-1.49,2.28,2.28,0,0,1,.39-1.7L24,43.27a2.25,2.25,0,0,1,3.15-.52,2.3,2.3,0,0,1,.51,3.19h0L25.73,48.6a2.2,2.2,0,0,1-1.47.92A2.31,2.31,0,0,1,23.89,49.55Zm1.89-5.87a.92.92,0,0,0-.74.39l-1.89,2.66a.94.94,0,0,0-.16.69.91.91,0,0,0,.37.6.87.87,0,0,0,.68.16.91.91,0,0,0,.6-.37l1.89-2.66a1,1,0,0,0-.21-1.3A1,1,0,0,0,25.78,43.68Zm1.29,1.86Z"/><path d="M26.47,51.42A2.23,2.23,0,0,1,25.15,51a2.3,2.3,0,0,1-.51-3.19.67.67,0,0,1,.93-.16.7.7,0,0,1,.16,1,.92.92,0,0,0,.21,1.29.89.89,0,0,0,1.27-.21L29.1,47a.94.94,0,0,0,.16-.69.89.89,0,0,0-.37-.6.88.88,0,0,0-.68-.17,1,1,0,0,0-.6.38.66.66,0,0,1-.93.15.67.67,0,0,1-.15-.94A2.23,2.23,0,0,1,28,44.22a2.29,2.29,0,0,1,2.2,3.59L28.3,50.47A2.24,2.24,0,0,1,26.47,51.42Z"/><path d="M29.46,52.7a2.23,2.23,0,0,1-1.31-.43,2.3,2.3,0,0,1-.52-3.18.7.7,0,0,1,.54-.29.65.65,0,0,1,.09-.6,2.25,2.25,0,0,1,1.47-.92,2.2,2.2,0,0,1,1.68.4,2.3,2.3,0,0,1,.91,1.48,2.35,2.35,0,0,1-.4,1.71l-.63.88A2.24,2.24,0,0,1,29.46,52.7Zm-.64-3.42a.69.69,0,0,1-.1.6.94.94,0,0,0-.16.69.92.92,0,0,0,1.65.39l.62-.89a.89.89,0,0,0,.16-.69.94.94,0,0,0-.37-.6.9.9,0,0,0-1.27.21A.67.67,0,0,1,28.82,49.28Z"/></svg>