<svg id="Capa_1" data-name="Capa 1" xmlns="http://www.w3.org/2000/svg" viewBox="0 0 60 60"><defs><style>.cls-1{fill:#fff;}.cls-2{fill:#efb428;}.cls-3{fill:#005883;}</style></defs><g id="CORE"><path class="cls-1" d="M49.79,8.65H10.21A5.21,5.21,0,0,0,5,13.85v32.3a5.21,5.21,0,0,0,5.21,5.2H49.79A5.21,5.21,0,0,0,55,46.15V13.85A5.21,5.21,0,0,0,49.79,8.65ZM28.65,32.38a1,1,0,0,1-.54-.91V30a1,1,0,0,1,1.54-.91l4.58,2.52a1,1,0,0,0,1,0l4.58-2.52a1,1,0,0,1,1.54.91v1.45a1,1,0,0,1-.54.91l-5.58,3.07a1.06,1.06,0,0,1-1,0Z"/><path d="M49.79,10.73H10.21a3.13,3.13,0,0,0-3.13,3.12v32.3a3.13,3.13,0,0,0,3.13,3.12H49.79a3.13,3.13,0,0,0,3.13-3.12V13.85A3.13,3.13,0,0,0,49.79,10.73ZM28.65,32.38a1,1,0,0,1-.54-.91V30a1,1,0,0,1,1.54-.91l4.58,2.52a1,1,0,0,0,1,0l4.58-2.52a1,1,0,0,1,1.54.91v1.45a1,1,0,0,1-.54.91l-5.58,3.07a1.06,1.06,0,0,1-1,0Z"/><path class="cls-2" d="M48.75,12.81H10.21a1,1,0,0,0-1,1v32.3a1,1,0,0,0,1,1H48.75a1,1,0,0,0,1-1V13.85A1,1,0,0,0,48.75,12.81ZM34.23,35.45l-5.58-3.07a1,1,0,0,1-.54-.91V30a1,1,0,0,1,1.54-.91l4.58,2.52a1,1,0,0,0,1,0l4.58-2.52a1,1,0,0,1,1.54.91v1.45a1,1,0,0,1-.54.91l-5.58,3.07A1.06,1.06,0,0,1,34.23,35.45Z"/><path class="cls-3" d="M49.79,12.81H10.21a1,1,0,0,0-1,1v7.47a1,1,0,0,0,1,1h1.7a1,1,0,0,0,1-1V17.67a1,1,0,0,1,1.05-1H46a1,1,0,0,1,1,1V42.33a1,1,0,0,1-1,1H34.83a1,1,0,0,0-1,1v1.74a1,1,0,0,0,1,1h15a1,1,0,0,0,1-1V13.85A1,1,0,0,0,49.79,12.81Zm-6.3,10.55-8.25-4.54a1.06,1.06,0,0,0-1,0L26,23.36a1,1,0,0,0,0,1.82l8.25,4.54a1,1,0,0,0,1,0l8.25-4.54A1,1,0,0,0,43.49,23.36Z"/><path class="cls-3" d="M13.69,47.19H10.21a1,1,0,0,1-1-1V42.62a1,1,0,0,1,1.3-1,5.68,5.68,0,0,1,4.23,4.28A1.05,1.05,0,0,1,13.69,47.19Z"/><path class="cls-3" d="M30,46.12a1,1,0,0,1-1,1.07H27.22a1.06,1.06,0,0,1-1-1,17.32,17.32,0,0,0-5-11.15,17,17,0,0,0-5.53-3.72A16.71,16.71,0,0,0,10.17,30a1,1,0,0,1-1-1V27.25a1,1,0,0,1,1.07-1A20.91,20.91,0,0,1,30,46.12Z"/><path class="cls-3" d="M22.38,46a1.06,1.06,0,0,1-1.05,1.15H19.62a1,1,0,0,1-1-.92,9.52,9.52,0,0,0-8.51-8.59,1,1,0,0,1-.91-1V34.91a1,1,0,0,1,1.15-1A13.31,13.31,0,0,1,22.38,46Z"/><path class="cls-1" d="M41.36,30v1.45a1,1,0,0,1-.54.91l-5.58,3.07a1.06,1.06,0,0,1-1,0l-5.58-3.07a1,1,0,0,1-.54-.91V30a1,1,0,0,1,1.54-.91l4.58,2.52a1,1,0,0,0,1,0l4.58-2.52A1,1,0,0,1,41.36,30Z"/></g></svg>