<svg id="Capa_1" data-name="Capa 1" xmlns="http://www.w3.org/2000/svg" viewBox="0 0 60 60"><defs><style>.cls-1{fill:#fff;}.cls-2,.cls-6{fill:#efb428;}.cls-2,.cls-3,.cls-5{fill-rule:evenodd;}.cls-4,.cls-5{fill:#005883;}</style></defs><path class="cls-1" d="M55,25.53A16.25,16.25,0,0,1,38.77,41.76a16.47,16.47,0,0,1-3.07-.29l.37,1.34a2.1,2.1,0,0,1-.2,1.57L34.93,46a2.05,2.05,0,0,1-1.78,1l-.26,0a2,2,0,0,1-.93-.36A16.24,16.24,0,1,1,21.23,18.24a16.47,16.47,0,0,1,3.07.29l-.37-1.34a2.07,2.07,0,0,1,.2-1.56L25.06,14a2.08,2.08,0,0,1,1.79-1h.26a2.17,2.17,0,0,1,.93.37A16.25,16.25,0,0,1,55,25.53Z"/><path class="cls-2" d="M27.58,29.32a2.43,2.43,0,0,1-2.74-.05,2.65,2.65,0,0,1-.68-.7,2.49,2.49,0,0,1-.32-1.88h0l-1.73-.38h0a2.47,2.47,0,0,1-4.49.82s0,0,0,0l-1.47.95s0,0,0,0a2.44,2.44,0,0,1,0,2.75,2.54,2.54,0,0,1-.71.68,2.4,2.4,0,0,1-1.86.32h0l-.37,1.75h0a2.47,2.47,0,0,1,.81,4.51h0l1,1.5a2.47,2.47,0,0,1,3.77,2.6h0l1.74.38h0a2.47,2.47,0,0,1,4.51-.81l1.51-1h0a2.42,2.42,0,0,1,0-2.76,2.45,2.45,0,0,1,2.55-1h0l0,0,.37-1.7h0s0,0,0,0a2.47,2.47,0,0,1-.82-4.49s0,0,0,0l-.94-1.46S27.6,29.31,27.58,29.32Zm-3,8.54a4.73,4.73,0,0,1-7.71-1.67,4.73,4.73,0,1,1,7.71,1.67Z"/><path class="cls-3" d="M27,28.4a1.36,1.36,0,0,1-1.53,0,1.38,1.38,0,0,1-.56-1.44,1.11,1.11,0,0,0-.85-1.32l-1.71-.37a1.13,1.13,0,0,0-.84.16,1.07,1.07,0,0,0-.48.69,1.37,1.37,0,0,1-1.11,1.07,1.33,1.33,0,0,1-1.4-.61A1.13,1.13,0,0,0,17,26.23l-1.46.94a1.1,1.1,0,0,0-.33,1.54,1.37,1.37,0,0,1,0,1.54,1.34,1.34,0,0,1-1.42.56,1.11,1.11,0,0,0-1.33.86L12,33.37a1.1,1.1,0,0,0,.85,1.32,1.38,1.38,0,0,1,.45,2.52A1.12,1.12,0,0,0,13,38.75l1,1.48a1.09,1.09,0,0,0,1.52.32,1.36,1.36,0,0,1,1.54,0A1.39,1.39,0,0,1,17.58,42a1.11,1.11,0,0,0,.85,1.33l1.7.37a1.11,1.11,0,0,0,1.32-.86A1.39,1.39,0,0,1,24,42.39a1.1,1.1,0,0,0,1.52.34l1.5-1a1.11,1.11,0,0,0,.32-1.54,1.36,1.36,0,0,1,0-1.53,1.4,1.4,0,0,1,1.43-.57A1.07,1.07,0,0,0,29.6,38a1.1,1.1,0,0,0,.49-.71l.37-1.7a1.11,1.11,0,0,0-.86-1.32,1.39,1.39,0,0,1-.45-2.52,1.1,1.1,0,0,0,.33-1.54l-.94-1.46A1.13,1.13,0,0,0,27,28.4Zm1.58,2.39s0,0,0,0a2.47,2.47,0,0,0,.82,4.49s0,0,0,0h0L29,37.05l0,0h0a2.45,2.45,0,0,0-2.55,1,2.42,2.42,0,0,0,0,2.76h0l-1.51,1a2.47,2.47,0,0,0-4.51.81h0l-1.74-.38h0a2.47,2.47,0,0,0-3.77-2.6l-1-1.5h0a2.47,2.47,0,0,0-.81-4.51h0l.37-1.75h0a2.4,2.4,0,0,0,1.86-.32,2.54,2.54,0,0,0,.71-.68,2.44,2.44,0,0,0,0-2.75s0,0,0,0l1.47-.95s0,0,0,0a2.47,2.47,0,0,0,4.49-.82h0l1.73.38h0a2.49,2.49,0,0,0,.32,1.88,2.65,2.65,0,0,0,.68.7,2.43,2.43,0,0,0,2.74.05s0,0,.05,0Z"/><path class="cls-3" d="M19.52,30.07a4.73,4.73,0,1,0,5.1,1.11A4.68,4.68,0,0,0,19.52,30.07Zm2.85,7.87a3.6,3.6,0,0,1-3.6-.78A3.65,3.65,0,0,1,20.09,31a3.59,3.59,0,0,1,3.62.78A3.65,3.65,0,0,1,22.37,37.94Z"/><path d="M21.23,49.89a15.42,15.42,0,1,1,5.46-29.83,2,2,0,0,1,1.14,1.08,2,2,0,0,1,.05,1.57A2.06,2.06,0,0,1,26,24a2,2,0,0,1-.73-.13,11.3,11.3,0,1,0,3,19.49,1.25,1.25,0,0,1,0-1.2l.93-1.64a1.18,1.18,0,0,1,.75-.58l3-.84a1.26,1.26,0,0,1,.33-.05,1.26,1.26,0,0,1,1.19.91l.83,3a1.23,1.23,0,0,1-.11.94l-.94,1.64a1.23,1.23,0,0,1-1.07.63H33a1.24,1.24,0,0,1-1-.74A15.26,15.26,0,0,1,21.23,49.89Z"/><path class="cls-4" d="M34.09,43.36,33.15,45l-.56-2a14.18,14.18,0,1,1-6.34-21.75.82.82,0,0,1,.48,1.06.83.83,0,0,1-1.06.48A12.54,12.54,0,1,0,31,42.32l-1.74.48.94-1.64,3-.84Z"/><path class="cls-5" d="M46.9,24.63a2.44,2.44,0,0,1-2.28-1.53,2.49,2.49,0,0,1-.19-1,2.46,2.46,0,0,1,.74-1.75h0l-1.25-1.25s0,0,0,0a0,0,0,0,0,0,0,2.47,2.47,0,0,1-4.22-1.74s0,0,0,0H37.9s0,0,0,0a2.44,2.44,0,0,1-1.52,2.27,2.59,2.59,0,0,1-1,.2,2.43,2.43,0,0,1-1.74-.75h0l-1.26,1.27h0a2.48,2.48,0,0,1-1.76,4.24h0v1.79a2.48,2.48,0,0,1,1.76,4.23v0l1.26,1.26h0a2.47,2.47,0,0,1,4.23,1.76h1.8a2.41,2.41,0,0,1,1.52-2.3,2.44,2.44,0,0,1,2.7.53,0,0,0,0,0,0,0s0,0,0,0l1.24-1.23h0a0,0,0,0,0,0,0,2.47,2.47,0,0,1,1.74-4.22s0,0,0,0V24.66A0,0,0,0,0,46.9,24.63Zm-7.19,5.53a4.73,4.73,0,1,1,3.69-3.7A4.68,4.68,0,0,1,39.71,30.16Z"/><path class="cls-3" d="M46.9,23.54a1.38,1.38,0,0,1-1-2.36,1.13,1.13,0,0,0,0-1.58l-1.24-1.23a1.1,1.1,0,0,0-.79-.32,1.06,1.06,0,0,0-.78.32,1.37,1.37,0,0,1-1.51.3,1.35,1.35,0,0,1-.85-1.27,1.12,1.12,0,0,0-1.12-1.12H37.9a1.11,1.11,0,0,0-1.11,1.12,1.39,1.39,0,0,1-2.37,1,1.11,1.11,0,0,0-1.58,0L31.62,19.6a1.11,1.11,0,0,0,0,1.58,1.38,1.38,0,0,1-1,2.36,1.12,1.12,0,0,0-1.12,1.12v1.76a1.11,1.11,0,0,0,1.12,1.09,1.38,1.38,0,0,1,1,2.36,1.11,1.11,0,0,0,0,1.58l1.22,1.23a1.11,1.11,0,0,0,1.58,0,1.39,1.39,0,0,1,2.37,1,1.09,1.09,0,0,0,1.08,1.11h1.79a1.11,1.11,0,0,0,1.1-1.12,1.35,1.35,0,0,1,.85-1.27,1.37,1.37,0,0,1,1.51.3,1.1,1.1,0,0,0,1.57,0l1.24-1.23a1.13,1.13,0,0,0,0-1.58,1.38,1.38,0,0,1,1-2.36A1.12,1.12,0,0,0,48,26.4V24.66A1.12,1.12,0,0,0,46.9,23.54Zm0,2.86s0,0,0,0a2.47,2.47,0,0,0-1.74,4.22,0,0,0,0,1,0,0h0l-1.24,1.23s0,0,0,0a0,0,0,0,1,0,0,2.44,2.44,0,0,0-2.7-.53,2.41,2.41,0,0,0-1.52,2.3h-1.8a2.47,2.47,0,0,0-4.23-1.76h0l-1.26-1.26v0a2.48,2.48,0,0,0-1.76-4.23V24.63h0a2.48,2.48,0,0,0,1.76-4.24h0l1.26-1.27h0a2.43,2.43,0,0,0,1.74.75,2.59,2.59,0,0,0,1-.2,2.44,2.44,0,0,0,1.52-2.27s0,0,0,0h1.74s0,0,0,0a2.47,2.47,0,0,0,4.22,1.74,0,0,0,0,1,0,0s0,0,0,0l1.25,1.25h0a2.46,2.46,0,0,0-.74,1.75,2.49,2.49,0,0,0,.19,1,2.44,2.44,0,0,0,2.28,1.53,0,0,0,0,1,0,0Z"/><path class="cls-3" d="M39.71,20.89a4.73,4.73,0,1,0,3.69,3.7A4.69,4.69,0,0,0,39.71,20.89Zm-1.86,8.16a3.6,3.6,0,0,1-2.61-2.61A3.65,3.65,0,0,1,39.68,22a3.61,3.61,0,0,1,2.62,2.62A3.65,3.65,0,0,1,37.85,29.05Z"/><path d="M38.77,40.94a15.31,15.31,0,0,1-5.46-1A2.06,2.06,0,0,1,34,36a2.11,2.11,0,0,1,.74.14,11.3,11.3,0,1,0-3-19.49,1.25,1.25,0,0,1,0,1.2l-.93,1.64a1.18,1.18,0,0,1-.75.58l-3,.84A1.21,1.21,0,0,1,25.56,20l-.83-3a1.23,1.23,0,0,1,.11-.94l.94-1.65a1.22,1.22,0,0,1,1.07-.62H27a1.23,1.23,0,0,1,1,.73,15.26,15.26,0,0,1,10.79-4.39,15.42,15.42,0,0,1,0,30.83Z"/><path class="cls-6" d="M53,25.53A14.21,14.21,0,0,1,38.77,39.71a14,14,0,0,1-5-.92.82.82,0,1,1,.58-1.54A12.54,12.54,0,1,0,29,17.68l1.73-.48-.94,1.64-3,.84-.84-3L26.85,15l.56,2A14.18,14.18,0,0,1,53,25.53Z"/></svg>