<svg id="Capa_1" data-name="Capa 1" xmlns="http://www.w3.org/2000/svg" viewBox="0 0 60 60"><defs><style>.cls-1{fill:#fff;}.cls-2{fill:#efb428;}.cls-3{fill:#005883;}</style></defs><g id="EVENTOS"><path class="cls-1" d="M49.83,8.88H44.22A3.88,3.88,0,0,0,40.34,5h-3a3.88,3.88,0,0,0-3.88,3.88h-6.9A3.88,3.88,0,0,0,22.67,5h-3a3.88,3.88,0,0,0-3.88,3.88H10.17A5.18,5.18,0,0,0,5,14.05V49.83A5.18,5.18,0,0,0,10.17,55H49.83A5.18,5.18,0,0,0,55,49.83V14.05A5.18,5.18,0,0,0,49.83,8.88ZM44.22,30.65V44.22H15.78V30.65Z"/><path d="M49.83,10.6H42.5V8.88a2.16,2.16,0,0,0-2.16-2.16h-3a2.17,2.17,0,0,0-2.16,2.16V10.6H24.83V8.88a2.16,2.16,0,0,0-2.16-2.16h-3A2.16,2.16,0,0,0,17.5,8.88V10.6H10.17a3.47,3.47,0,0,0-3.45,3.45V49.83a3.46,3.46,0,0,0,3.45,3.45H49.83a3.46,3.46,0,0,0,3.45-3.45V14.05A3.46,3.46,0,0,0,49.83,10.6ZM46,28.92V46H14.05v-17Z"/><path class="cls-2" d="M40.78,18.8a.43.43,0,0,1-.43.43h-3a.43.43,0,0,1-.43-.43V16.21H23.11V18.8a.44.44,0,0,1-.43.43h-3a.43.43,0,0,1-.43-.43V16.21h-6.9v7.33H47.68V16.21h-6.9Z"/><path class="cls-3" d="M49.83,12.33h-9V8.88a.44.44,0,0,0-.44-.43h-3a.43.43,0,0,0-.43.43v3.45H23.1V8.88a.43.43,0,0,0-.43-.43h-3a.44.44,0,0,0-.44.43v3.45h-9a1.72,1.72,0,0,0-1.72,1.72V49.83a1.72,1.72,0,0,0,1.72,1.72H49.83a1.72,1.72,0,0,0,1.72-1.72V14.05A1.72,1.72,0,0,0,49.83,12.33ZM47.67,47.67H12.33V27.2H47.67Zm0-24.14H12.33V16.21h6.89v2.58a.44.44,0,0,0,.44.43h3a.43.43,0,0,0,.43-.43V16.21H36.9v2.58a.43.43,0,0,0,.43.43h3a.43.43,0,0,0,.44-.43V16.21h6.89Z"/><rect class="cls-2" x="15.78" y="30.65" width="28.45" height="13.58"/></g></svg>