<svg id="Capa_1" data-name="Capa 1" xmlns="http://www.w3.org/2000/svg" viewBox="0 0 60 60"><defs><style>.cls-1,.cls-4{fill:#fff;}.cls-1,.cls-2,.cls-3,.cls-5{fill-rule:evenodd;}.cls-2{fill:#efb428;}.cls-3{fill:#005883;}</style></defs><path class="cls-1" d="M48.6,16.17,38.73,6.3A4.38,4.38,0,0,0,35.58,5h-21A4.45,4.45,0,0,0,10.1,9.45v41.1A4.46,4.46,0,0,0,14.55,55h30.9a4.46,4.46,0,0,0,4.45-4.45V19.31A4.39,4.39,0,0,0,48.6,16.17Z"/><path class="cls-2" d="M14.55,7.57h21a1.82,1.82,0,0,1,1.32.55L46.77,18a1.79,1.79,0,0,1,.55,1.33V50.55a1.88,1.88,0,0,1-1.87,1.87H14.55a1.88,1.88,0,0,1-1.87-1.87V9.44A1.88,1.88,0,0,1,14.55,7.57ZM18.43,40H41.57a.73.73,0,1,0,0-1.46H18.43a.73.73,0,1,0,0,1.46Z"/><path class="cls-3" d="M47.16,18.54a1.85,1.85,0,0,0-.39-.55L36.9,8.12a1.7,1.7,0,0,0-.55-.38v8.89a1.92,1.92,0,0,0,1.91,1.91Z"/><circle class="cls-4" cx="24.52" cy="19.47" r="6.94"/><path class="cls-5" d="M27.09,21.13a2.39,2.39,0,0,1-1.92,2.34v.37a.73.73,0,0,1-.73.73.73.73,0,0,1-.72-.73v-.37a2.4,2.4,0,0,1-1.47-.95.72.72,0,0,1,1.17-.85.93.93,0,0,0,.76.39h.52a.93.93,0,1,0,0-1.86h-.37a2.39,2.39,0,0,1-.46-4.73V15.1a.72.72,0,0,1,.72-.72.73.73,0,0,1,.73.72v.37a2.43,2.43,0,0,1,1.47,1,.73.73,0,0,1-1.18.85.93.93,0,0,0-.76-.39h-.52a.94.94,0,0,0,0,1.87h.37A2.39,2.39,0,0,1,27.09,21.13Zm-2.57,4.55a6.21,6.21,0,1,1,6.21-6.21A6.22,6.22,0,0,1,24.52,25.68Zm0-13.87a7.66,7.66,0,1,1-7.67,7.66A7.67,7.67,0,0,1,24.52,11.81ZM37.08,9.32v7.31a1.18,1.18,0,0,0,1.18,1.18h7.31ZM14.55,6.85h21a2.54,2.54,0,0,1,1.84.76l9.87,9.87a2.52,2.52,0,0,1,.76,1.84V50.55a2.61,2.61,0,0,1-2.6,2.6H14.55a2.61,2.61,0,0,1-2.6-2.6V9.44A2.6,2.6,0,0,1,14.55,6.85Zm-1.14,43.7a1.13,1.13,0,0,0,1.14,1.14h30.9a1.13,1.13,0,0,0,1.14-1.13V19.27H38.26a2.64,2.64,0,0,1-2.63-2.64V8.3H14.55a1.15,1.15,0,0,0-1.14,1.14Zm5-19.18H41.57a.73.73,0,0,1,.73.72.73.73,0,0,1-.73.73H18.43a.73.73,0,0,1-.73-.73A.73.73,0,0,1,18.43,31.37Zm0,14.44H41.57a.72.72,0,1,1,0,1.44H18.43a.72.72,0,1,1,0-1.44Zm23.14-13H18.43a.73.73,0,0,1-.73-.73.73.73,0,0,1,.73-.72H41.57a.73.73,0,0,1,.73.72A.73.73,0,0,1,41.57,32.82Zm-23.14,13H41.57a.72.72,0,1,1,0,1.44H18.43a.72.72,0,1,1,0-1.44Zm0-14.44H41.57a.73.73,0,0,1,.73.72.73.73,0,0,1-.73.73H18.43a.73.73,0,0,1-.73-.73A.73.73,0,0,1,18.43,31.37Zm0,14.44H41.57a.72.72,0,1,1,0,1.44H18.43a.72.72,0,1,1,0-1.44Z"/><path class="cls-5" d="M17.7,39.32a.73.73,0,0,0,.73.72H41.57a.73.73,0,1,0,0-1.46H18.43A.74.74,0,0,0,17.7,39.32Z"/></svg>