<svg id="Capa_1" data-name="Capa 1" xmlns="http://www.w3.org/2000/svg" viewBox="0 0 60 60"><defs><style>.cls-1{fill:#fff;}.cls-2{fill:#efb428;}.cls-3{fill:#005883;}</style></defs><g id="GD"><path class="cls-1" d="M31,55a4.32,4.32,0,0,1-3.08-1.28l-3-3a4.32,4.32,0,0,1-3.47,1.72h-6.7a7.24,7.24,0,0,1-7.25-7.25V14.77a7.24,7.24,0,0,1,7.25-7.25H25.06A4.35,4.35,0,0,1,29,5a4.3,4.3,0,0,1,3.07,1.28l3,3a4.32,4.32,0,0,1,3.47-1.72h6.7a7.24,7.24,0,0,1,7.25,7.25V45.23a7.24,7.24,0,0,1-7.25,7.25H35a4.41,4.41,0,0,1-1,1.34A4.35,4.35,0,0,1,31,55Z"/><path d="M49.14,10.86a5.52,5.52,0,0,0-3.91-1.62h-6.7a2.64,2.64,0,0,0-2.64,2.64v.41h-.81a2.65,2.65,0,0,0-.7-1.29L30.87,7.5A2.58,2.58,0,0,0,29,6.72a2.66,2.66,0,0,0-2.65,2.52H14.77a5.53,5.53,0,0,0-5.53,5.53V45.23a5.53,5.53,0,0,0,5.53,5.53h6.7a2.64,2.64,0,0,0,2.64-2.64v-.41h.81a2.65,2.65,0,0,0,.7,1.29l3.5,3.5a2.62,2.62,0,0,0,1.86.78,2.68,2.68,0,0,0,1.82-.72,2.61,2.61,0,0,0,.82-1.8H45.23a5.53,5.53,0,0,0,5.53-5.53V14.77A5.52,5.52,0,0,0,49.14,10.86Z"/><rect class="cls-2" x="14.39" y="14.01" width="30.84" height="31.98" rx="0.91"/><path class="cls-1" d="M19.49,20.48h13.4a.92.92,0,0,1,.92.92v2a.92.92,0,0,1-.92.91H19.49a.91.91,0,0,1-.91-.91v-2A.92.92,0,0,1,19.49,20.48Zm0,7.62h21a.91.91,0,0,1,.91.91v2a.91.91,0,0,1-.91.91h-21a.91.91,0,0,1-.91-.91V29A.91.91,0,0,1,19.49,28.1Zm0,7.61h3.87a.91.91,0,0,1,.91.91v2a.92.92,0,0,1-.91.92H19.49a.92.92,0,0,1-.91-.92v-2A.91.91,0,0,1,19.49,35.71Z"/><path class="cls-3" d="M33.16,12.22l-3.5-3.5a.91.91,0,0,0-1.56.64v.69a.92.92,0,0,1-.92.92H14.77A3.81,3.81,0,0,0,11,14.77V45.23A3.82,3.82,0,0,0,14.77,49h6.7a.92.92,0,0,0,.92-.92v-2a.92.92,0,0,0-.92-.91H15.69a.92.92,0,0,1-.92-.92V15.69a.92.92,0,0,1,.92-.92H27.18a.92.92,0,0,1,.92.92v.68a.91.91,0,0,0,1.56.65l3.5-3.51A.91.91,0,0,0,33.16,12.22ZM26.84,47.78l3.5,3.5a.91.91,0,0,0,1.56-.64V50a.91.91,0,0,1,.92-.91H45.23A3.81,3.81,0,0,0,49,45.23V14.77a3.79,3.79,0,0,0-3.8-3.8h-6.7a.91.91,0,0,0-.92.91v2a.92.92,0,0,0,.92.91h5.78a.92.92,0,0,1,.92.92V44.31a.92.92,0,0,1-.92.92H32.82a.92.92,0,0,1-.92-.92v-.68A.91.91,0,0,0,30.34,43l-3.5,3.51A.91.91,0,0,0,26.84,47.78Z"/></g></svg>