<svg id="Capa_1" data-name="Capa 1" xmlns="http://www.w3.org/2000/svg" viewBox="0 0 60 60"><defs><style>.cls-1{fill:#fff;}.cls-2{fill:#efb428;}.cls-3{fill:#005883;}</style></defs><g id="GRADOS"><path class="cls-1" d="M50.57,10.13H9.43A4.43,4.43,0,0,0,5,14.56V45.44a4.43,4.43,0,0,0,4.43,4.43H50.57A4.44,4.44,0,0,0,55,45.44V14.56A4.44,4.44,0,0,0,50.57,10.13ZM17.64,24.87a1,1,0,0,1-1-1V21.74a1,1,0,0,1,1-1H42.36a1,1,0,0,1,1,1v2.15a1,1,0,0,1-1,1Z"/><path d="M50.57,11.86H9.43a2.71,2.71,0,0,0-2.71,2.7V45.44a2.71,2.71,0,0,0,2.71,2.7H50.57a2.7,2.7,0,0,0,2.7-2.7V14.56A2.7,2.7,0,0,0,50.57,11.86Zm-32.93,13a1,1,0,0,1-1-1V21.74a1,1,0,0,1,1-1H42.36a1,1,0,0,1,1,1v2.15a1,1,0,0,1-1,1Z"/><path class="cls-2" d="M9.47,14.61V45.39H50.52V14.61Zm33.87,9.28a1,1,0,0,1-1,1H17.64a1,1,0,0,1-1-1V21.74a1,1,0,0,1,1-1H42.36a1,1,0,0,1,1,1Z"/><path class="cls-1" d="M36.65,40.26h1.2a.49.49,0,0,0,.34-.83l-3.95-4a.49.49,0,0,0-.69,0l-2.18,2.18a.49.49,0,0,0,0,.69l3.95,3.95a.49.49,0,0,0,.84-.35v-1.2A.49.49,0,0,1,36.65,40.26Zm-13.3,0h-1.2a.49.49,0,0,1-.35-.83l3.95-4a.49.49,0,0,1,.69,0l2.19,2.18a.49.49,0,0,1,0,.69L24.68,42.3a.49.49,0,0,1-.84-.35v-1.2A.49.49,0,0,0,23.35,40.26Z"/><path class="cls-1" d="M33.94,30.47a1.27,1.27,0,0,0-.3-.31c-5-3.34-10.14.92-8.44,5.87a7.41,7.41,0,0,0,.86,1.71,1,1,0,0,0,.3.31,7.41,7.41,0,0,0,1.71.86,5.52,5.52,0,0,0,3.83,0A5,5,0,0,0,34.77,36,5.9,5.9,0,0,0,33.94,30.47ZM27.54,32a1.06,1.06,0,0,1,.35-.35c3.38-2,6.57,1.18,4.57,4.56a1,1,0,0,1-.36.35C28.73,38.57,25.54,35.38,27.54,32Z"/><path class="cls-3" d="M50.57,13.58H9.43a1,1,0,0,0-1,1V45.44a1,1,0,0,0,1,1H50.57a1,1,0,0,0,1-1V14.56A1,1,0,0,0,50.57,13.58ZM49.5,41.29a3.08,3.08,0,0,0-3.08,3.08H13.58a3.08,3.08,0,0,0-3.08-3.08V18.71a3.08,3.08,0,0,0,3.08-3.08H46.42a3.08,3.08,0,0,0,3.08,3.08Z"/><rect class="cls-1" x="16.66" y="20.76" width="26.68" height="4.11" rx="0.98"/></g></svg>