<svg id="Capa_1" data-name="Capa 1" xmlns="http://www.w3.org/2000/svg" viewBox="0 0 60 60"><defs><style>.cls-1{fill:#fff;}.cls-2{fill:#005883;}.cls-3{fill:#efb428;}</style></defs><path class="cls-1" d="M53.53,31.07l-9.91-5.72V13.91a2.49,2.49,0,0,0-1.24-2.14L31.29,5.37A2.47,2.47,0,0,0,30,5a2.39,2.39,0,0,0-1.24.34L17.58,11.79a2.5,2.5,0,0,0-1.2,2.12V25.35l-10,5.75a2.5,2.5,0,0,0-1.19,2.12V46.09a2.46,2.46,0,0,0,1.24,2.14l11.18,6.46A2.48,2.48,0,0,0,18.8,55h.09a2.32,2.32,0,0,0,1.2-.33L30,49l9.88,5.7a2.39,2.39,0,0,0,1.23.35h.09a2.42,2.42,0,0,0,1.18-.33l11.14-6.43a2.48,2.48,0,0,0,1.25-2.15V33.22A2.52,2.52,0,0,0,53.53,31.07Z"/><path d="M52.6,32.67,41.77,26.42V13.91a.6.6,0,0,0-.32-.53L30.31,6.94a.58.58,0,0,0-.62,0L18.54,13.38a.61.61,0,0,0-.31.53V26.42L7.4,32.67a.65.65,0,0,0-.32.55V46.09a.62.62,0,0,0,.32.54l11.14,6.43a.59.59,0,0,0,.31.09.54.54,0,0,0,.32-.09L30,46.81l10.83,6.25a.54.54,0,0,0,.32.09.53.53,0,0,0,.3-.09L52.6,46.63a.62.62,0,0,0,.32-.54V33.22A.65.65,0,0,0,52.6,32.67ZM51,33.21l-2.46,1.43L42.09,30.9l-3.41-2,2.47-1.42ZM45.18,37,35,31.07l2.48-1.41,4,2.32L48,35.73v5.71l-2.46,1.42V37.51A.64.64,0,0,0,45.18,37ZM40.52,26.42l-9.89,5.72V20.69l2.46-1.42v5.37a.63.63,0,0,0,.31.54.64.64,0,0,0,.63,0l4-2.33V16.4L40.52,15ZM30,8.2l9.87,5.71-2.46,1.41-2.68-1.54L27.54,9.63Zm-3.71,2.15,7.81,4.51,2.71,1.56v5.72l-2.47,1.41v-5.7l-1.06-.62-9.46-5.46ZM18.85,27.51l9.88,5.7-2.46,1.43-9.88-5.71Zm-3.71,2.15,10.52,6.07v5.71l-2.47,1.42V37.15L12.68,31.07Zm3.09,21.78-9.9-5.71V34.28L18.23,40Zm.62-12.53L9,33.21l2.45-1.42C14.71,33.7,18,35.6,21.3,37.5Zm10.52,6.82-9.89,5.71V40l2.46-1.43v5.37a.63.63,0,0,0,.32.55.62.62,0,0,0,.62,0l4-2.33V35.7l2.46-1.42Zm0-13.59-9.89-5.72V15l4.8,2.77,5.09,2.94ZM24.91,16.66l-4.79-2.75,2.44-1.42,9.88,5.7L30,19.61C28.31,18.63,26.6,17.65,24.91,16.66ZM40.52,51.44l-9.89-5.71V34.28L40.52,40Zm.63-12.53-9.88-5.7,2.44-1.42,9.88,5.71Zm10.52,6.82-9.9,5.71V40l2.46-1.43v5.37a.63.63,0,0,0,.32.55.64.64,0,0,0,.63,0l4-2.33V35.7l2.47-1.42Z"/><path class="cls-1" d="M36.81,16.42v5.72l-2.47,1.41v-5.7l-1.06-.62-9.46-5.46,2.47-1.42,7.81,4.51Z"/><path class="cls-2" d="M48,35.73v5.71l-2.46,1.42V37.51a.64.64,0,0,0-.31-.54L35,31.07l2.48-1.41,4,2.32Z"/><path class="cls-2" d="M25.66,35.73v5.71l-2.47,1.42V37.15L12.68,31.07l2.46-1.41Z"/><path class="cls-3" d="M40.52,40V51.44l-9.89-5.71V34.28Z"/><path class="cls-3" d="M43.59,37.5l-2.44,1.41-9.88-5.7,2.44-1.42Z"/><path class="cls-3" d="M51.67,34.28V45.73l-9.9,5.71V40l2.46-1.43v5.37a.63.63,0,0,0,.32.55.64.64,0,0,0,.63,0l4-2.33V35.7Z"/><path class="cls-3" d="M51,33.21l-2.46,1.43L42.09,30.9l-3.41-2,2.47-1.42Z"/><path class="cls-3" d="M39.87,13.91l-2.46,1.41-2.68-1.54L27.54,9.63,30,8.2Z"/><path class="cls-3" d="M32.44,18.19,30,19.61c-1.69-1-3.4-2-5.09-2.95l-4.79-2.75,2.44-1.42Z"/><path class="cls-3" d="M40.52,15V26.42l-9.89,5.72V20.69l2.46-1.42v5.37a.63.63,0,0,0,.31.54.64.64,0,0,0,.63,0l4-2.33V16.4Z"/><path class="cls-3" d="M29.37,20.69V32.14l-9.89-5.72V15l4.8,2.77Z"/><polygon class="cls-3" points="28.73 33.21 26.27 34.64 16.39 28.93 18.85 27.51 28.73 33.21"/><path class="cls-3" d="M29.37,34.28V45.73l-9.89,5.71V40l2.46-1.43v5.37a.63.63,0,0,0,.32.55.62.62,0,0,0,.62,0l4-2.33V35.7Z"/><path class="cls-3" d="M21.3,37.5l-2.45,1.41L9,33.21l2.45-1.42C14.71,33.7,18,35.6,21.3,37.5Z"/><path class="cls-3" d="M18.23,40V51.44l-9.9-5.71V34.28Z"/></svg>