<svg id="Capa_1" data-name="Capa 1" xmlns="http://www.w3.org/2000/svg" viewBox="0 0 60 60"><defs><style>.cls-1{fill:#fff;}.cls-2{fill:#efb428;}.cls-3{fill:#005883;}</style></defs><g id="OAI"><path class="cls-1" d="M35.51,51.68a5,5,0,0,1-2.77-.82,4.88,4.88,0,0,1-1.84-2.13,6.53,6.53,0,0,0-11.76,0,5.1,5.1,0,0,1-4.59,2.91H11.76A6.8,6.8,0,0,1,7,49.7a6.72,6.72,0,0,1-2-4.78V15.08A6.72,6.72,0,0,1,7,10.3a6.8,6.8,0,0,1,4.78-2H48.24a6.8,6.8,0,0,1,4.78,2,6.72,6.72,0,0,1,2,4.78V44.92a6.76,6.76,0,0,1-6.76,6.76Z"/><path d="M51.8,11.51A5.11,5.11,0,0,0,48.24,10H11.76A5.11,5.11,0,0,0,8.2,11.51a5.06,5.06,0,0,0-1.48,3.57V44.92A5.06,5.06,0,0,0,8.2,48.49,5.11,5.11,0,0,0,11.76,50h2.79a3.39,3.39,0,0,0,3-1.94,8.09,8.09,0,0,1,3-3.41A8.22,8.22,0,0,1,25,43.34,8.25,8.25,0,0,1,32.46,48a3.29,3.29,0,0,0,1.22,1.42,3.35,3.35,0,0,0,1.83.54H48.24a5.09,5.09,0,0,0,3.56-1.47,5,5,0,0,0,1.48-3.57V15.08A5.06,5.06,0,0,0,51.8,11.51Z"/><path class="cls-2" d="M43.26,20.91V39.09a.86.86,0,0,1-.85.86H25a6.63,6.63,0,0,0,6.12-4.1A6.52,6.52,0,0,0,31.53,32a6.64,6.64,0,0,0-12-2.39,6.58,6.58,0,0,0-1.07,3,.85.85,0,0,1-.85.73h0a.86.86,0,0,1-.85-.86V20.91a.86.86,0,0,1,.85-.86H42.41A.86.86,0,0,1,43.26,20.91Z"/><path class="cls-3" d="M50.58,12.73a3.32,3.32,0,0,0-2.34-1H11.77a3.31,3.31,0,0,0-3.32,3.31V44.92a3.31,3.31,0,0,0,3.32,3.31h2.78a1.63,1.63,0,0,0,.88-.25,1.72,1.72,0,0,0,.61-.7,9.91,9.91,0,0,1,3.67-4.13A10,10,0,0,1,34,47.28a1.7,1.7,0,0,0,.6.7,1.67,1.67,0,0,0,.89.25H48.24a3.31,3.31,0,0,0,3.32-3.31V15.08A3.32,3.32,0,0,0,50.58,12.73ZM29.63,35.22a5.05,5.05,0,0,1-1.83,2.23,5,5,0,0,1-6.91-6.9,5.07,5.07,0,0,1,2.24-1.83,5,5,0,0,1,6.78,3.63A5,5,0,0,1,29.63,35.22Zm18.61,8.85a.85.85,0,0,1-.85.85H37a.85.85,0,0,1-.71-.4A13.47,13.47,0,0,0,31.52,40a.83.83,0,0,1-.2-1.28,8.29,8.29,0,1,0-14-8.36,8.28,8.28,0,0,0,1.46,8.36A.84.84,0,0,1,18.54,40a13.36,13.36,0,0,0-4.74,4.53.88.88,0,0,1-.72.4h-.46a.85.85,0,0,1-.85-.85V15.94a.85.85,0,0,1,.85-.86H47.39a.85.85,0,0,1,.85.86Z"/><path class="cls-1" d="M44.93,20.05V40a1.66,1.66,0,0,1-1.67,1.65H40A1.64,1.64,0,0,1,38.3,40a1.69,1.69,0,0,1,.48-1.18A1.65,1.65,0,0,1,40,38.29h.8a.86.86,0,0,0,.86-.85V22.56a.86.86,0,0,0-.86-.85H19.26a.86.86,0,0,0-.86.85v.81a1.73,1.73,0,0,1-.48,1.18,1.67,1.67,0,0,1-2.84-1.18V20.05a1.66,1.66,0,0,1,1.67-1.65H43.26a1.66,1.66,0,0,1,1.67,1.65Z"/><path class="cls-1" d="M29.62,35.22a5.05,5.05,0,0,1-1.83,2.23,5,5,0,0,1-2.77.84,5,5,0,0,1-5-5,5,5,0,0,1,8.48-3.52,4.94,4.94,0,0,1,1.08,5.42Z"/><path class="cls-2" d="M47.39,15.08H12.62a.85.85,0,0,0-.86.86V44.07a.85.85,0,0,0,.86.85h.46a.91.91,0,0,0,.72-.4A13.36,13.36,0,0,1,18.54,40a.83.83,0,0,0,.2-1.28A8.18,8.18,0,0,1,17,35.27a8.27,8.27,0,0,1,.3-4.92,8.29,8.29,0,0,1,12.45-3.88,8.29,8.29,0,0,1,1.58,12.24A.84.84,0,0,0,31.52,40a13.36,13.36,0,0,1,4.74,4.53.85.85,0,0,0,.72.4H47.39a.85.85,0,0,0,.85-.85V15.94A.85.85,0,0,0,47.39,15.08ZM44.92,40a1.65,1.65,0,0,1-.48,1.17,1.69,1.69,0,0,1-1.18.48H39.94a1.65,1.65,0,0,1-1.17-.48A1.69,1.69,0,0,1,38.29,40a1.73,1.73,0,0,1,.48-1.18,1.65,1.65,0,0,1,1.17-.48h.81a.86.86,0,0,0,.86-.85V22.56a.86.86,0,0,0-.86-.85H19.26a.86.86,0,0,0-.87.85v.81A1.64,1.64,0,0,1,16.74,25a1.73,1.73,0,0,1-1.18-.48,1.69,1.69,0,0,1-.48-1.18V20.05a1.65,1.65,0,0,1,.48-1.17,1.69,1.69,0,0,1,1.18-.48H43.26a1.69,1.69,0,0,1,1.18.48,1.65,1.65,0,0,1,.48,1.17Z"/></g></svg>