<svg id="Capa_1" data-name="Capa 1" xmlns="http://www.w3.org/2000/svg" viewBox="0 0 60 60"><defs><style>.cls-1{fill:#fff;}.cls-2{fill:#005883;}.cls-3{fill:#efb428;}</style></defs><g id="OIL"><path class="cls-1" d="M32.14,25.91l2,3H25.89l2-3A3.57,3.57,0,0,0,28.43,24V16.8h3.14V24A3.46,3.46,0,0,0,32.14,25.91Z"/><path class="cls-1" d="M25.2,30.61h9.62a1,1,0,0,1,.87.47l9.52,14.63a.44.44,0,0,1,.08.25.58.58,0,0,1-.06.26h0a.62.62,0,0,1-.18.18.59.59,0,0,1-.25.07H15.23a.49.49,0,0,1-.43-.26.4.4,0,0,1-.06-.26.44.44,0,0,1,.08-.25l9.51-14.63A1,1,0,0,1,25.2,30.61Z"/><path class="cls-1" d="M53.69,44.56a3.34,3.34,0,0,0-.51-2.24L52.29,41l-12-18.51V18a5.19,5.19,0,0,0,3-4.7V10.21A5.21,5.21,0,0,0,38,5H22a5.2,5.2,0,0,0-5.2,5.21v3.06a5.25,5.25,0,0,0,3,4.71v4.48L7.67,41.05a9,9,0,0,0-.38,9.23,9,9,0,0,0,3.3,3.45A9.07,9.07,0,0,0,15.21,55H44.79a9.06,9.06,0,0,0,7.93-4.74,9,9,0,0,0,1.07-4.66A7.18,7.18,0,0,0,53.69,44.56ZM33.54,25,46.47,44.9A1.94,1.94,0,0,1,46.8,46a2.06,2.06,0,0,1-.24,1h0a2,2,0,0,1-1.75,1H15.21a2,2,0,0,1-1-.29,2,2,0,0,1-.65-2.82L26.46,25a1.84,1.84,0,0,0,.3-1V15.34a.21.21,0,0,1,.21-.2H33a.2.2,0,0,1,.2.2V24A1.83,1.83,0,0,0,33.54,25Z"/><path d="M52,44.55a1.68,1.68,0,0,0-.22-1.32l-.89-1.36L38.59,23V16.76a3.56,3.56,0,0,0,3-3.5V10.2A3.55,3.55,0,0,0,38,6.66H22a3.55,3.55,0,0,0-3.54,3.54v3.07a3.56,3.56,0,0,0,3,3.5V23L9.06,42a7.35,7.35,0,0,0-.31,7.52,7.37,7.37,0,0,0,6.46,3.85H44.79a7.36,7.36,0,0,0,7.34-7.67A7,7,0,0,0,52,44.55Zm-6.18,3.14a2,2,0,0,1-1,.29H15.21a2,2,0,0,1-1-.29,2,2,0,0,1-.65-2.82L26.46,25a1.84,1.84,0,0,0,.3-1V15.34a.21.21,0,0,1,.21-.2H33a.2.2,0,0,1,.2.2V24a1.83,1.83,0,0,0,.31,1L46.47,44.9A1.94,1.94,0,0,1,46.8,46a2.06,2.06,0,0,1-.24,1h0A2,2,0,0,1,45.82,47.69ZM35.69,31.08a1,1,0,0,0-.87-.47H25.2a1,1,0,0,0-.87.47L14.82,45.71a.44.44,0,0,0-.08.25.4.4,0,0,0,.06.26.49.49,0,0,0,.43.26H44.8a.59.59,0,0,0,.25-.07.62.62,0,0,0,.18-.18h0a.58.58,0,0,0,.06-.26.44.44,0,0,0-.08-.25Z"/><path class="cls-2" d="M48.85,43.31,36.26,24a1,1,0,0,1-.17-.57v-8a1,1,0,0,1,1-1H38a1,1,0,0,0,1-1.05V10.2a1,1,0,0,0-1-1H22a1,1,0,0,0-1,1v3.07a1,1,0,0,0,1,1h.91a1,1,0,0,1,1,1v8a1.06,1.06,0,0,1-.17.57L11.15,43.33a4.87,4.87,0,0,0-.2,5,4.82,4.82,0,0,0,1.78,1.86,4.92,4.92,0,0,0,2.48.68H44.78a4.86,4.86,0,0,0,4.27-2.55,4.79,4.79,0,0,0,.58-2.51A4.86,4.86,0,0,0,48.85,43.31Zm-4.05,5.5H15.21a2.85,2.85,0,0,1-1.45-.4,2.75,2.75,0,0,1-1-1.09,2.84,2.84,0,0,1,.11-2.89L25.76,24.55a1.06,1.06,0,0,0,.17-.57V15.34a1,1,0,0,1,1-1H33a1,1,0,0,1,1,1V24a1,1,0,0,0,.16.57L47.16,44.43A2.81,2.81,0,0,1,47.63,46a2.9,2.9,0,0,1-.34,1.35s0,0,0,0a3,3,0,0,1-1,1.06A2.79,2.79,0,0,1,44.8,48.81Z"/><path class="cls-2" d="M47.86,44,34.93,24.1a.27.27,0,0,1,0-.12V15.34A1.87,1.87,0,0,0,33,13.47H27a1.87,1.87,0,0,0-1.87,1.87V24a.15.15,0,0,1,0,.11L12.13,44a3.68,3.68,0,0,0-.59,1.85,3.6,3.6,0,0,0,.44,1.9,3.66,3.66,0,0,0,1.35,1.41,3.75,3.75,0,0,0,1.87.51H44.8a3.75,3.75,0,0,0,1.87-.51A3.67,3.67,0,0,0,48,47.75,3.63,3.63,0,0,0,47.86,44Zm-1.3,3h0a2,2,0,0,1-1.75,1H15.21a2,2,0,0,1-1-.29,2,2,0,0,1-.65-2.82L26.46,25a1.84,1.84,0,0,0,.3-1V15.34a.21.21,0,0,1,.21-.2H33a.2.2,0,0,1,.2.2V24a1.83,1.83,0,0,0,.31,1L46.47,44.9A1.94,1.94,0,0,1,46.8,46,2.06,2.06,0,0,1,46.56,46.93Zm1.3-3L34.93,24.1a.27.27,0,0,1,0-.12V15.34A1.87,1.87,0,0,0,33,13.47H27a1.87,1.87,0,0,0-1.87,1.87V24a.15.15,0,0,1,0,.11L12.13,44a3.68,3.68,0,0,0-.59,1.85,3.6,3.6,0,0,0,.44,1.9,3.66,3.66,0,0,0,1.35,1.41,3.75,3.75,0,0,0,1.87.51H44.8a3.75,3.75,0,0,0,1.87-.51A3.67,3.67,0,0,0,48,47.75,3.63,3.63,0,0,0,47.86,44Zm-1.3,3h0a2,2,0,0,1-1.75,1H15.21a2,2,0,0,1-1-.29,2,2,0,0,1-.65-2.82L26.46,25a1.84,1.84,0,0,0,.3-1V15.34a.21.21,0,0,1,.21-.2H33a.2.2,0,0,1,.2.2V24a1.83,1.83,0,0,0,.31,1L46.47,44.9A1.94,1.94,0,0,1,46.8,46,2.06,2.06,0,0,1,46.56,46.93Zm3.61-2.78h.21l-.83-1.28h0L37,23.5a.27.27,0,0,1,0-.12v-8a.2.2,0,0,1,.2-.21H38a1.88,1.88,0,0,0,1.87-1.88V10.2A1.87,1.87,0,0,0,38,8.33H22a1.87,1.87,0,0,0-1.87,1.87v3.07A1.87,1.87,0,0,0,22,15.14h.91a.22.22,0,0,1,.21.21v8a.15.15,0,0,1,0,.11L10.46,42.87a5.65,5.65,0,0,0-.25,5.81,5.68,5.68,0,0,0,5,3H44.78a5.66,5.66,0,0,0,5.68-5.93A5.65,5.65,0,0,0,50.17,44.15ZM44.78,50H15.21a4,4,0,0,1-2.05-.57,3.91,3.91,0,0,1-1.48-1.54,4,4,0,0,1-.48-2.08,4,4,0,0,1,.65-2L24.47,24.41a1.84,1.84,0,0,0,.3-1v-8a1.87,1.87,0,0,0-1.87-1.87H22a.22.22,0,0,1-.21-.21V10.2A.21.21,0,0,1,22,10H38a.2.2,0,0,1,.2.2v3.06a.2.2,0,0,1-.2.21h-.89a1.88,1.88,0,0,0-1.87,1.88v8a1.88,1.88,0,0,0,.3,1l12.6,19.37.05.09a4,4,0,0,1,.11,4,4.08,4.08,0,0,1-1.48,1.55A4,4,0,0,1,44.78,50Zm3.68-4a3.59,3.59,0,0,0-.6-2L34.93,24.1a.27.27,0,0,1,0-.12V15.34A1.87,1.87,0,0,0,33,13.47H27a1.87,1.87,0,0,0-1.87,1.87V24a.15.15,0,0,1,0,.11L12.13,44a3.68,3.68,0,0,0-.59,1.85,3.6,3.6,0,0,0,.44,1.9,3.66,3.66,0,0,0,1.35,1.41,3.75,3.75,0,0,0,1.87.51H44.8a3.75,3.75,0,0,0,1.87-.51A3.67,3.67,0,0,0,48,47.75,3.62,3.62,0,0,0,48.46,46Zm-1.9,1h0a2,2,0,0,1-1.75,1H15.21a2,2,0,0,1-1-.29,2,2,0,0,1-.65-2.82L26.46,25a1.84,1.84,0,0,0,.3-1V15.34a.21.21,0,0,1,.21-.2H33a.2.2,0,0,1,.2.2V24a1.83,1.83,0,0,0,.31,1L46.47,44.9A1.94,1.94,0,0,1,46.8,46,2.06,2.06,0,0,1,46.56,46.93Z"/><path class="cls-1" d="M46.47,44.9,33.54,25a1.83,1.83,0,0,1-.31-1V15.34a.2.2,0,0,0-.2-.2H27a.21.21,0,0,0-.21.2V24a1.84,1.84,0,0,1-.3,1L13.53,44.87a2,2,0,0,0,.65,2.82,2,2,0,0,0,1,.29H44.8a2,2,0,0,0,1.75-1h0a2.06,2.06,0,0,0,.24-1A1.94,1.94,0,0,0,46.47,44.9Zm-18.61-19A3.57,3.57,0,0,0,28.43,24V16.8h3.14V24a3.46,3.46,0,0,0,.57,1.93l2,3H25.89ZM45.23,46.22h0a.62.62,0,0,1-.18.18.59.59,0,0,1-.25.07H15.23a.49.49,0,0,1-.43-.26.4.4,0,0,1-.06-.26.44.44,0,0,1,.08-.25l9.51-14.63a1,1,0,0,1,.87-.47h9.62a1,1,0,0,1,.87.47l9.52,14.63a.44.44,0,0,1,.08.25A.58.58,0,0,1,45.23,46.22Z"/><path class="cls-3" d="M45.29,46a.58.58,0,0,1-.06.26h0a.62.62,0,0,1-.18.18.59.59,0,0,1-.25.07H15.23a.49.49,0,0,1-.43-.26.4.4,0,0,1-.06-.26.44.44,0,0,1,.08-.25l9.51-14.63a1,1,0,0,1,.87-.47h9.62a1,1,0,0,1,.87.47l9.52,14.63A.44.44,0,0,1,45.29,46Z"/></g></svg>