<svg id="Capa_1" data-name="Capa 1" xmlns="http://www.w3.org/2000/svg" viewBox="0 0 60 60"><defs><style>.cls-1{fill:#fff;}.cls-2{fill:#f0b429;}.cls-3{fill:#005883;}</style></defs><g id="PANEL"><path class="cls-1" d="M52.11,32.86l-1.77-1.52a0,0,0,0,0,0,0c0-.27,0-.54,0-.81v-.13c0-.11,0-.22,0-.34,0-.44,0-.89,0-1.34l1.76-1.51a5,5,0,0,0,1.72-3.41c0-.06,0-.11,0-.19s0-.11,0-.15a1.49,1.49,0,0,0,0-.21,4.72,4.72,0,0,0-.28-1.53l0-.14a25,25,0,0,0-4.47-7.72L49,13.74a5,5,0,0,0-2.5-1.58A4.87,4.87,0,0,0,45.17,12a5.1,5.1,0,0,0-1.67.29L41.32,13A19.5,19.5,0,0,0,39,11.71l-.42-2.29c0-.05-.06-.28-.08-.33a1.89,1.89,0,0,0-.06-.21l0-.08a4.92,4.92,0,0,0-1.31-2.09,4.84,4.84,0,0,0-2.53-1.29l-.14,0a24.79,24.79,0,0,0-8.87,0l-.15,0a5,5,0,0,0-4,4L21,11.73a21.31,21.31,0,0,0-2.27,1.32l-2.22-.78A4.91,4.91,0,0,0,14.83,12a4.74,4.74,0,0,0-1.3.18A4.89,4.89,0,0,0,11,13.73l-.1.11a24.46,24.46,0,0,0-4.46,7.75l0,.07a5,5,0,0,0-.17,2.83,5.08,5.08,0,0,0,1.28,2.35.45.45,0,0,1,.09.07,2.64,2.64,0,0,0,.29.28l1.76,1.5c0,.44,0,.87,0,1.31s0,.87,0,1.31L7.89,32.85a5.09,5.09,0,0,0-1.58,2.51,5,5,0,0,0,.11,2.92l.06.17a25,25,0,0,0,4.45,7.7l.12.13a5,5,0,0,0,2.62,1.59l.25.06a3,3,0,0,0,.5,0,2.4,2.4,0,0,0,.46.05,5.15,5.15,0,0,0,1.67-.29L18.73,47A23.1,23.1,0,0,0,21,48.27l.44,2.3a5,5,0,0,0,1.38,2.64,5,5,0,0,0,2.63,1.37l.13,0A25.54,25.54,0,0,0,30,55h0a25.14,25.14,0,0,0,4.42-.4l.14,0a5,5,0,0,0,4-4L39,48.29A19.5,19.5,0,0,0,41.32,47l2.2.77A5,5,0,0,0,49,46.27l.1-.12a25.17,25.17,0,0,0,4.46-7.73l0-.06a4.93,4.93,0,0,0,.27-2.27A5.08,5.08,0,0,0,52.11,32.86ZM30,33.19a3.6,3.6,0,0,1-2.58-1.08,3.3,3.3,0,0,1-.8-1.18,3.54,3.54,0,0,1-.28-1.4,3.65,3.65,0,0,1,1.08-2.59,3.66,3.66,0,0,1,6.25,2.59,3.67,3.67,0,0,1-1.07,2.59,3.49,3.49,0,0,1-1.19.79A3.73,3.73,0,0,1,30,33.19Z"/><path d="M52.13,23.43s0-.07,0-.1a3.32,3.32,0,0,0-.18-1.06l0-.14A22.79,22.79,0,0,0,47.73,15l-.06-.09a3.26,3.26,0,0,0-1.64-1,3.12,3.12,0,0,0-.86-.11,3.17,3.17,0,0,0-1.09.19l-3,1.07a18.82,18.82,0,0,0-3.58-2.07L36.9,9.75s0-.09,0-.16v0a1,1,0,0,0,0-.13h0A3.07,3.07,0,0,0,35.92,8a3.27,3.27,0,0,0-1.66-.85l-.13,0a23.23,23.23,0,0,0-8.26,0l-.14,0a3.32,3.32,0,0,0-2.62,2.62l-.59,3.18A19,19,0,0,0,19,15l-3-1.07a3.13,3.13,0,0,0-1.09-.19,3,3,0,0,0-.85.11,3.2,3.2,0,0,0-1.63,1l-.1.11a23,23,0,0,0-4.14,7.19l0,.1a3.26,3.26,0,0,0,.76,3.41s0,0,0,0h0l.09.08.09.09L11.49,28a19,19,0,0,0,0,4.08L9,34.16A3.27,3.27,0,0,0,8,35.8a3.22,3.22,0,0,0,.08,1.92l0,.15A23,23,0,0,0,12.25,45l.1.12a3.31,3.31,0,0,0,1.77,1.06h.11a3.16,3.16,0,0,0,.32,0,1.86,1.86,0,0,0,.33,0A3.21,3.21,0,0,0,16,46.11L19,45a19.2,19.2,0,0,0,3.53,2l.59,3.18A3.28,3.28,0,0,0,24,52a3.16,3.16,0,0,0,1.72.9l.13,0a22.9,22.9,0,0,0,4.13.37h0a22.52,22.52,0,0,0,4.11-.37l.14,0a3.28,3.28,0,0,0,2.62-2.62l.59-3.16A18.74,18.74,0,0,0,41.06,45l3,1.07a3.07,3.07,0,0,0,1.08.19,3.56,3.56,0,0,0,.86-.11,3.24,3.24,0,0,0,1.63-1l.09-.12a23.18,23.18,0,0,0,4.15-7.17l0-.1a3.06,3.06,0,0,0,.18-1.48A3.3,3.3,0,0,0,51,34.17l-2.43-2.08a.45.45,0,0,1,0-.12c0-.25,0-.5.06-.76s0-.5,0-.75,0-.29,0-.43A18.22,18.22,0,0,0,48.55,28L51,25.87a3.22,3.22,0,0,0,1.12-2.29.43.43,0,0,1,0-.12h0ZM30,33.19a3.6,3.6,0,0,1-2.58-1.08,3.3,3.3,0,0,1-.8-1.18,3.54,3.54,0,0,1-.28-1.4,3.65,3.65,0,0,1,1.08-2.59,3.66,3.66,0,0,1,6.25,2.59,3.67,3.67,0,0,1-1.07,2.59,3.49,3.49,0,0,1-1.19.79A3.73,3.73,0,0,1,30,33.19Z"/><path class="cls-1" d="M33.67,29.53a3.67,3.67,0,0,1-1.07,2.59,3.49,3.49,0,0,1-1.19.79,3.73,3.73,0,0,1-1.41.28,3.6,3.6,0,0,1-2.58-1.08,3.3,3.3,0,0,1-.8-1.18,3.54,3.54,0,0,1-.28-1.4,3.65,3.65,0,0,1,1.08-2.59,3.66,3.66,0,0,1,6.25,2.59Z"/><path class="cls-2" d="M46.73,32.79c.05-.34.1-.69.13-1,0,.34-.08.69-.14,1ZM10.14,24.53s0-.05-.07-.06l.1.1,3.16,2.69h0ZM35.28,10.47,36,14.14h0Zm8,21.75a13.72,13.72,0,0,0,0-4.43L43,25.87l3.6-3.08a17.76,17.76,0,0,0-2-3.53l-4.47,1.58-1.51-1.25a13.4,13.4,0,0,0-3.81-2.19l-1.83-.69L32.05,12A18.64,18.64,0,0,0,28,12l-.86,4.68-1.83.69a13.2,13.2,0,0,0-3.79,2.19L20,20.84l-4.5-1.59a18.34,18.34,0,0,0-2.05,3.54l3.63,3.11-.31,1.92A13.3,13.3,0,0,0,16.57,30a14.59,14.59,0,0,0,.18,2.19l.31,1.92-3.63,3.1a19,19,0,0,0,2.05,3.55l4.5-1.6,1.5,1.24a13.46,13.46,0,0,0,3.79,2.2l1.82.7L28,48a17.57,17.57,0,0,0,4.1,0l.85-4.66,1.83-.69a13.48,13.48,0,0,0,3.82-2.2l1.51-1.24,4.47,1.58a17.59,17.59,0,0,0,2-3.54L43,34.16ZM30,38a8.24,8.24,0,0,1-3.11-.6A7.34,7.34,0,0,1,26,37,8.46,8.46,0,1,1,37.45,25.5a8.83,8.83,0,0,1,.61,1.41,7.13,7.13,0,0,1,.26,1c0,.13,0,.27.07.4a7.13,7.13,0,0,1,.09,1.23A8.45,8.45,0,0,1,30,38ZM19.29,43.08l-3.94,1.4a1.47,1.47,0,0,1-.8.05,1.51,1.51,0,0,0,.84,0l3.91-1.4A0,0,0,0,1,19.29,43.08ZM49.86,24.53l-3.14,2.69v0l3.14-2.69a1.47,1.47,0,0,0,.5-.85A1.54,1.54,0,0,1,49.86,24.53Z"/><path class="cls-3" d="M38.39,28.32c0-.13,0-.27-.07-.4a7.13,7.13,0,0,0-.26-1,8.83,8.83,0,0,0-.61-1.41A8.46,8.46,0,1,0,26,37a7.34,7.34,0,0,0,.94.44,8.48,8.48,0,0,0,11.56-7.88A8.11,8.11,0,0,0,38.39,28.32Zm-4.58,5A5.28,5.28,0,0,1,30,34.91a5.34,5.34,0,0,1-5-3.32,5.23,5.23,0,0,1-.42-2.06,5.39,5.39,0,0,1,9.2-3.81A5,5,0,0,1,35,27.47a5.2,5.2,0,0,1,.42,2.06A5.36,5.36,0,0,1,33.81,33.34Z"/><path class="cls-3" d="M46.73,32.79h0c.06-.33.1-.68.14-1s.06-.69.06-1,0-.48,0-.72a17.67,17.67,0,0,0-.17-2.42c0-.11,0-.22-.05-.32v0l3.14-2.69a1.63,1.63,0,0,0,.55-1.12,1.63,1.63,0,0,0-.1-.57l0-.13a21,21,0,0,0-3.84-6.63L46.35,16a1.7,1.7,0,0,0-.77-.49,1.61,1.61,0,0,0-.92,0l-3.91,1.39A16.77,16.77,0,0,0,36,14.14h0l-.67-3.67-.08-.42,0-.08a1.42,1.42,0,0,0-.43-.76,1.5,1.5,0,0,0-.78-.4l-.13,0a22.39,22.39,0,0,0-7.66,0l-.12,0a1.65,1.65,0,0,0-.82.42,1.63,1.63,0,0,0-.43.82l-.75,4.11a16.75,16.75,0,0,0-4.76,2.75l-3.94-1.39a1.64,1.64,0,0,0-.93,0,1.55,1.55,0,0,0-.76.49l-.09.11a21.46,21.46,0,0,0-3.84,6.63l0,.13a1.51,1.51,0,0,0,0,.87,1.61,1.61,0,0,0,.43.76s0,0,.07.06l3.19,2.72h0A15.67,15.67,0,0,0,13.11,30a15.86,15.86,0,0,0,.22,2.75l-3.19,2.72a1.54,1.54,0,0,0-.45,1.69l0,.12a21.31,21.31,0,0,0,3.84,6.64l.09.11a1.53,1.53,0,0,0,.89.5,1.47,1.47,0,0,0,.8-.05l3.94-1.4a0,0,0,0,0,0,0,16.6,16.6,0,0,0,4.75,2.75L24.8,50a1.56,1.56,0,0,0,.43.81,1.59,1.59,0,0,0,.82.43l.12,0a21.39,21.39,0,0,0,3.83.34h0a21.09,21.09,0,0,0,3.81-.34l.13,0a1.6,1.6,0,0,0,.81-.43A1.56,1.56,0,0,0,35.2,50L36,45.86a16.92,16.92,0,0,0,4.8-2.77l3.91,1.39a1.61,1.61,0,0,0,.92,0,1.65,1.65,0,0,0,.77-.49l.08-.11a21.12,21.12,0,0,0,3.84-6.64l0-.12a1.44,1.44,0,0,0,.09-.68,1.52,1.52,0,0,0-.54-1Zm-3.43-5a13.72,13.72,0,0,1,0,4.43L43,34.16l3.59,3.07a17.59,17.59,0,0,1-2,3.54l-4.47-1.58-1.51,1.24a13.48,13.48,0,0,1-3.82,2.2l-1.83.69L32.05,48A17.57,17.57,0,0,1,28,48l-.86-4.67-1.82-.7a13.46,13.46,0,0,1-3.79-2.2L20,39.17l-4.5,1.6a19,19,0,0,1-2.05-3.55l3.63-3.1-.31-1.92A14.59,14.59,0,0,1,16.57,30a13.3,13.3,0,0,1,.18-2.19l.31-1.92-3.63-3.11a18.34,18.34,0,0,1,2.05-3.54L20,20.84l1.5-1.24a13.2,13.2,0,0,1,3.79-2.19l1.83-.69L28,12a18.64,18.64,0,0,1,4.09,0l.86,4.67,1.83.69a13.4,13.4,0,0,1,3.81,2.19l1.51,1.25,4.47-1.58a17.76,17.76,0,0,1,2,3.53L43,25.87Z"/></g></svg>