<svg id="Capa_1" data-name="Capa 1" xmlns="http://www.w3.org/2000/svg" viewBox="0 0 60 60"><defs><style>.cls-1{fill:#fff;}.cls-2{fill:#efb428;}.cls-3{fill:#005883;}</style></defs><g id="PRACTICAS"><path class="cls-1" d="M19.22,53.65a6,6,0,0,1-6.1-5.38h-.63A7.49,7.49,0,0,1,5,40.78V15.18a8.83,8.83,0,0,1,8.84-8.83H46.16A8.83,8.83,0,0,1,55,15.18v25.6a7.49,7.49,0,0,1-7.49,7.49h-.63a6,6,0,0,1-6.1,5.38Z"/><path d="M51.19,10.15a7.07,7.07,0,0,0-5-2.08H13.84a7.12,7.12,0,0,0-7.12,7.11v25.6a5.77,5.77,0,0,0,5.77,5.76h1a2.76,2.76,0,0,0,1.45-.42,8.9,8.9,0,0,0-.12,1.39,4.29,4.29,0,0,0,4.41,4.42H40.78a4.29,4.29,0,0,0,4.41-4.42,8,8,0,0,0-.13-1.4,2.74,2.74,0,0,0,1.46.43h1a5.77,5.77,0,0,0,5.77-5.76V15.18A7.06,7.06,0,0,0,51.19,10.15Z"/><rect class="cls-2" x="10.6" y="11.95" width="38.79" height="32.33" rx="1.05"/><path d="M19.22,52.2a4.56,4.56,0,0,1-4.69-4.69c0-3.63,2.87-10.63,11.33-12.37a9,9,0,0,1-2-1.52,8.74,8.74,0,1,1,12.36,0,8.81,8.81,0,0,1-2,1.52c8.46,1.74,11.33,8.74,11.33,12.37a4.56,4.56,0,0,1-4.69,4.69Z"/><path class="cls-3" d="M30,36.73c-10.78,0-13.47,8.08-13.47,10.78a2.63,2.63,0,0,0,2.69,2.69H40.78a2.63,2.63,0,0,0,2.69-2.69C43.47,44.81,40.78,36.73,30,36.73Z"/><path class="cls-1" d="M36.73,27.44a6.73,6.73,0,1,1-2-4.77A6.7,6.7,0,0,1,36.73,27.44Z"/><path class="cls-3" d="M13.84,9.79a5.39,5.39,0,0,0-5.39,5.39v25.6a4,4,0,0,0,1.18,2.85,4.05,4.05,0,0,0,2.86,1.19h1a1.06,1.06,0,0,0,1-.73,14,14,0,0,1,1.44-3,1.05,1.05,0,0,0-.87-1.64H12.19a1,1,0,0,1-1-1V15.18a2.7,2.7,0,0,1,2.7-2.69H46.16a2.7,2.7,0,0,1,2.7,2.69v23.2a1,1,0,0,1-1,1H45a1,1,0,0,0-.9,1.59,14.68,14.68,0,0,1,1.47,3.06,1.07,1.07,0,0,0,1,.74h1a4.05,4.05,0,0,0,2.86-1.19,4,4,0,0,0,1.18-2.85V15.18a5.39,5.39,0,0,0-5.39-5.39Z"/></g></svg>