<svg id="Capa_1" data-name="Capa 1" xmlns="http://www.w3.org/2000/svg" viewBox="0 0 60 60"><defs><style>.cls-1{fill:#fff;}.cls-2{fill:#005883;}.cls-3{fill:#efb428;}</style></defs><path class="cls-1" d="M53.86,8.38a4.63,4.63,0,0,0-3.51-1.22l-.88,0L48,7.2a3.92,3.92,0,0,0-3.92,3.91,4,4,0,0,0,.17,1.15L43,13.52C33.93,22.43,22.77,26.76,8.92,26.76a3.92,3.92,0,1,0,0,7.83,61.24,61.24,0,0,0,17.59-2.46,4,4,0,0,0-1.39,3v2.24A4.1,4.1,0,0,0,21.7,35.6H20.2a4.11,4.11,0,0,0-4.11,4.1v2.24a4.11,4.11,0,0,0-3.41-1.83h-1.5a4.11,4.11,0,0,0-4.11,4.11v4.51a4.11,4.11,0,0,0,4.11,4.11h1.5a4.12,4.12,0,0,0,3.76-2.47,4.11,4.11,0,0,0,3.76,2.47h1.5a4.12,4.12,0,0,0,3.77-2.47,4.11,4.11,0,0,0,3.76,2.47h1.5a4.12,4.12,0,0,0,3.77-2.47,4.11,4.11,0,0,0,3.76,2.47h1.5a4.12,4.12,0,0,0,3.77-2.47,4.1,4.1,0,0,0,3.76,2.47h1.5a4.11,4.11,0,0,0,4.11-4.11V26.16a4.11,4.11,0,0,0-4.11-4.11h-1.5a4.11,4.11,0,0,0-4.11,4.11v2.23a4.11,4.11,0,0,0-3.42-1.83H39a53,53,0,0,0,9.52-7.46l1.3-1.27a3.83,3.83,0,0,0,1.26.21A3.92,3.92,0,0,0,55,14.12c0-.57,0-1,0-1.46C55,11.09,55.06,9.61,53.86,8.38ZM34.15,30.67V32.9a4.1,4.1,0,0,0-3.42-1.82H29.67q2.47-.91,4.84-2.06A3.94,3.94,0,0,0,34.15,30.67Z"/><path d="M12.68,42H11.17a2.25,2.25,0,0,0-2.25,2.26v4.51A2.26,2.26,0,0,0,11.17,51h1.51a2.27,2.27,0,0,0,2.26-2.26V44.22A2.26,2.26,0,0,0,12.68,42Zm.75,6.77a.76.76,0,0,1-.75.75H11.17a.75.75,0,0,1-.75-.75V44.22a.74.74,0,0,1,.75-.75h1.51a.75.75,0,0,1,.75.75Z"/><path d="M21.7,37.45H20.2a2.26,2.26,0,0,0-2.26,2.26v9A2.27,2.27,0,0,0,20.2,51h1.5A2.26,2.26,0,0,0,24,48.73v-9A2.25,2.25,0,0,0,21.7,37.45Zm.76,11.28a.76.76,0,0,1-.76.75H20.2a.76.76,0,0,1-.75-.75v-9A.76.76,0,0,1,20.2,39h1.5a.76.76,0,0,1,.76.76Z"/><rect class="cls-2" x="19.45" y="38.95" width="3.01" height="10.53" rx="0.75"/><rect class="cls-3" x="10.42" y="43.47" width="3.01" height="6.02" rx="0.75"/><path d="M30.73,32.93h-1.5A2.26,2.26,0,0,0,27,35.18V48.73A2.26,2.26,0,0,0,29.23,51h1.5A2.27,2.27,0,0,0,33,48.73V35.18A2.26,2.26,0,0,0,30.73,32.93Zm.76,15.8a.76.76,0,0,1-.76.75h-1.5a.76.76,0,0,1-.76-.75V35.18a.76.76,0,0,1,.76-.75h1.5a.76.76,0,0,1,.76.75Z"/><path class="cls-3" d="M31.49,35.18V48.73a.76.76,0,0,1-.76.75h-1.5a.76.76,0,0,1-.76-.75V35.18a.76.76,0,0,1,.76-.75h1.5A.76.76,0,0,1,31.49,35.18Z"/><path d="M39.76,28.41h-1.5A2.26,2.26,0,0,0,36,30.67V48.73A2.26,2.26,0,0,0,38.26,51h1.5A2.26,2.26,0,0,0,42,48.73V30.67A2.26,2.26,0,0,0,39.76,28.41Zm.76,20.32a.76.76,0,0,1-.76.75h-1.5a.75.75,0,0,1-.75-.75V30.67a.75.75,0,0,1,.75-.75h1.5a.76.76,0,0,1,.76.75Z"/><rect class="cls-3" x="37.51" y="29.92" width="3.01" height="19.56" rx="0.75"/><path d="M48.79,23.9h-1.5A2.26,2.26,0,0,0,45,26.16V48.73A2.26,2.26,0,0,0,47.29,51h1.5a2.26,2.26,0,0,0,2.26-2.26V26.16A2.26,2.26,0,0,0,48.79,23.9Zm.75,24.83a.75.75,0,0,1-.75.75h-1.5a.76.76,0,0,1-.76-.75V26.16a.76.76,0,0,1,.76-.75h1.5a.75.75,0,0,1,.75.75Z"/><rect class="cls-2" x="46.53" y="25.41" width="3.01" height="24.08" rx="0.75"/><path d="M8.92,32.74a2.07,2.07,0,1,1,0-4.13c14.36,0,25.94-4.5,35.39-13.77l2.29-2.25A2.06,2.06,0,0,1,48,9.05l1.47,0,.84,0a2.83,2.83,0,0,1,2.18.66c.66.68.64,1.53.61,2.95,0,.42,0,.91,0,1.5a2.07,2.07,0,0,1-2.06,2.07,2,2,0,0,1-1.53-.69L47.2,17.78C37.09,27.71,24.21,32.74,8.92,32.74Z"/><path class="cls-2" d="M48,10.36a.75.75,0,0,0,0,1.5H49.2l-4,3.92C35.86,25,24,29.92,8.92,29.92a.76.76,0,1,0,0,1.51c15.53,0,27.77-5.17,37.36-14.59l4-3.94v1.22a.75.75,0,1,0,1.5,0C51.8,9.7,52.49,10.36,48,10.36Z"/></svg>