<svg id="Capa_1" data-name="Capa 1" xmlns="http://www.w3.org/2000/svg" viewBox="0 0 60 60"><defs><style>.cls-1{fill:#fff;}.cls-2{fill:#efb428;}.cls-3{fill:#005883;}</style></defs><g id="SAE"><path class="cls-1" d="M51.83,19.05l-19.95-8A5,5,0,0,0,30,10.72a5.05,5.05,0,0,0-1.87.35l-19.95,8a5,5,0,0,0,0,9.37l5.89,2.35v9a5.05,5.05,0,0,0,1.5,3.59c.24.24,6.05,6,14.43,6s14.19-5.71,14.41-5.94a5,5,0,0,0,1.52-3.6V35.63a5,5,0,0,0,9.07-3V23.73A5,5,0,0,0,51.83,19.05Z"/><path d="M51.14,20.77l-20-8a3.27,3.27,0,0,0-2.36,0l-20,8a3.19,3.19,0,0,0,0,5.93l7.06,2.82V39.74a3.18,3.18,0,0,0,1,2.28c.22.22,5.58,5.41,13.12,5.41S42.9,42.24,43.12,42a3.18,3.18,0,0,0,1-2.28V29.52l2.68-1.07v4.14a3.2,3.2,0,0,0,6.39,0V23.73A3.18,3.18,0,0,0,51.14,20.77ZM37.69,38.25A13.39,13.39,0,0,1,30,41a13.48,13.48,0,0,1-7.7-2.79V32.07l6.52,2.6A3.14,3.14,0,0,0,30,34.9a3.23,3.23,0,0,0,1.19-.23l6.5-2.6Z"/><path class="cls-1" d="M37.69,32.07v6.18A13.39,13.39,0,0,1,30,41a13.48,13.48,0,0,1-7.7-2.79V32.07l6.52,2.6A3.14,3.14,0,0,0,30,34.9a3.23,3.23,0,0,0,1.19-.23Z"/><path class="cls-2" d="M10.05,23.73l20-8,20,8-20,8Z"/><path class="cls-3" d="M30,45.83c-6.89,0-11.8-4.75-12-4.95a1.58,1.58,0,0,1-.48-1.14V27.93a1.6,1.6,0,0,1,3.19,0V39A15.39,15.39,0,0,0,30,42.64,15.33,15.33,0,0,0,39.29,39V27.93a1.6,1.6,0,0,1,3.19,0V39.74A1.58,1.58,0,0,1,42,40.88C41.8,41.08,36.89,45.83,30,45.83Z"/><path d="M51.14,20.77l-20-8a3.27,3.27,0,0,0-2.36,0l-20,8a3.19,3.19,0,0,0,0,5.93l7.06,2.82,1.6.64,3.19,1.27,1.59.64,6.52,2.6A3.14,3.14,0,0,0,30,34.9a3.23,3.23,0,0,0,1.19-.23l6.5-2.6,1.6-.64,3.19-1.27,1.6-.64,2.68-1.07,1.6-.64,2.78-1.11a3.91,3.91,0,0,0,.41-.2,3.2,3.2,0,0,0,1.6-2.67v-.1A3.18,3.18,0,0,0,51.14,20.77Zm-9.79,3L30,28.27,18.65,23.73,30,19.2Z"/><path class="cls-3" d="M30,33.3a1.71,1.71,0,0,1-.59-.11l-20-8a1.6,1.6,0,0,1,0-3l20-8a1.6,1.6,0,0,1,1.18,0l20,8a1.6,1.6,0,0,1,0,3l-20,8A1.71,1.71,0,0,1,30,33.3ZM14.35,23.73,30,30l15.65-6.26L30,17.48Z"/><path class="cls-3" d="M50,34.19a1.6,1.6,0,0,1-1.6-1.6V23.84a1.6,1.6,0,1,1,3.19,0v8.75A1.6,1.6,0,0,1,50,34.19Z"/></g></svg>