<svg id="Capa_1" data-name="Capa 1" xmlns="http://www.w3.org/2000/svg" viewBox="0 0 60 60"><defs><style>.cls-1{fill:#fff;}.cls-2{fill:#005883;}.cls-3{fill:#efb428;}</style></defs><g id="SAI"><path class="cls-1" d="M16,50.69a5.63,5.63,0,0,1-4.86-2.81L5.76,38.55A5.58,5.58,0,0,1,7.81,30.9l3.66-2.12V27.59a7.76,7.76,0,0,1,3.78-6.65l4.36-2.62A3.28,3.28,0,0,1,21,17.84a5.58,5.58,0,0,1,1.7-1.65L25,14.8a7.75,7.75,0,0,1,4.11-1.18h6l6.16-3.56a5.61,5.61,0,0,1,7.66,2.06l5.39,9.33a5.62,5.62,0,0,1-2,7.64l-5.39,3.12a3.05,3.05,0,0,1-.86.35,5.07,5.07,0,0,1-1.73,2.13v1.78a5.58,5.58,0,0,1-3.92,5.34,7.8,7.8,0,0,1-7.07,4.57H25L18.8,49.94A5.62,5.62,0,0,1,16,50.69Z"/><path d="M52.76,22.31,47.37,13A3.86,3.86,0,0,0,44,11a3.93,3.93,0,0,0-1.94.51l-6.56,3.79H29.09a6.09,6.09,0,0,0-3.2.92l-2.25,1.4a3.88,3.88,0,0,0-1.61,2,1.62,1.62,0,0,0-.65-.14,1.74,1.74,0,0,0-.88.24l-4.37,2.63a6.05,6.05,0,0,0-2.94,5.17v2.19L8.67,32.39a3.87,3.87,0,0,0-1.81,2.36,3.83,3.83,0,0,0,.39,2.94L12.64,47A3.86,3.86,0,0,0,16,49a3.93,3.93,0,0,0,1.94-.51l6.56-3.79h8.74A6.05,6.05,0,0,0,39,40.32a3.88,3.88,0,0,0,3.48-3.85V33.66a3.33,3.33,0,0,0,2.12-2.77,1.82,1.82,0,0,0,.46.06,1.73,1.73,0,0,0,.86-.23l5.4-3.12A3.88,3.88,0,0,0,52.76,22.31Z"/><path class="cls-2" d="M41.32,25.69H31.08v3.77a4.85,4.85,0,0,1-9.7,0V21.27L17,23.9a4.29,4.29,0,0,0-2.09,3.69v3.18L9.53,33.89a2.15,2.15,0,0,0-.79,2.94l5.39,9.33a2.14,2.14,0,0,0,2.94.79l7-4h9.2a4.31,4.31,0,0,0,4.31-4.31h1.08a2.15,2.15,0,0,0,2.15-2.15V32.16h.54a1.62,1.62,0,0,0,1.62-1.62V27.31A1.61,1.61,0,0,0,41.32,25.69Z"/><path class="cls-3" d="M51.27,23.17l-5.39-9.33a2.15,2.15,0,0,0-2.94-.79l-7,4H29.09a4.35,4.35,0,0,0-2.28.65l-2.26,1.41a2.14,2.14,0,0,0-1,1.82v8.51a2.7,2.7,0,1,0,5.39,0V23.53H41.32a3.77,3.77,0,0,1,3.77,3.78v1.92l5.39-3.12A2.16,2.16,0,0,0,51.27,23.17Z"/></g></svg>