<svg id="Capa_1" data-name="Capa 1" xmlns="http://www.w3.org/2000/svg" viewBox="0 0 60 60"><defs><style>.cls-1{fill:#fff;}.cls-2{fill:#efb428;}.cls-3{fill:#005883;}</style></defs><g id="SC"><path class="cls-1" d="M30,5a24.79,24.79,0,0,0-8.83,1.61,7.36,7.36,0,0,0-12,5.75v3.77a25,25,0,0,0,9.93,36.38A3.47,3.47,0,0,0,22.46,55H47.93a3.46,3.46,0,0,0,3.45-3.45V42.94A25,25,0,0,0,30,5ZM12.66,12.36a3.92,3.92,0,0,1,7.52-1.55,3.8,3.8,0,0,1,.32,1.55V25.44l9.88,9.88a3.92,3.92,0,1,1-5.54,5.54l-4.38-4.38L16.93,33l-2.48-2.48c-.11-.11-.21-.23-.31-.35a3.11,3.11,0,0,1-.33-.29,3.91,3.91,0,0,1-1.15-2.77Z"/><path d="M30,6.72a23.16,23.16,0,0,0-8.94,1.79l-.27.11a5.63,5.63,0,0,0-9.85,3.74v4.3l-.28.41a23.23,23.23,0,0,0,9.8,34.15l.27.12v.21a1.72,1.72,0,0,0,1.73,1.72H47.93a1.72,1.72,0,0,0,1.72-1.72V42.44l.28-.45A23.25,23.25,0,0,0,30,6.72ZM12.66,12.36a3.92,3.92,0,0,1,7.52-1.55,3.8,3.8,0,0,1,.32,1.55V25.44l9.88,9.88a3.92,3.92,0,1,1-5.54,5.54l-4.38-4.38L16.93,33l-2.48-2.48c-.11-.11-.21-.23-.31-.35a3.11,3.11,0,0,1-.33-.29,3.91,3.91,0,0,1-1.15-2.77Z"/><path class="cls-2" d="M51.55,30a21.36,21.36,0,0,1-1.94,8.94,20.63,20.63,0,0,1-1.68,3,21.56,21.56,0,0,1-25.47,8.23,20.76,20.76,0,0,1-2-.86,21.57,21.57,0,0,1-9.8-28.85,20.68,20.68,0,0,1,2-3.28v9.86a3.91,3.91,0,0,0,1.15,2.77,3.11,3.11,0,0,0,.33.29c.1.12.2.24.31.35L16.93,33l3.53,3.53,4.38,4.38a3.92,3.92,0,1,0,5.54-5.54L20.5,25.44V12.36a3.8,3.8,0,0,0-.32-1.55A17.37,17.37,0,0,1,22,10,21.56,21.56,0,0,1,51.55,30Z"/><path d="M49.93,41.55v10a2,2,0,0,1-2,2H22.46a2,2,0,0,1-2-2V36.48l4.38,4.38a3.92,3.92,0,1,0,5.54-5.54L26,30.93H39.86A10.6,10.6,0,0,1,49.93,41.55Z"/><path class="cls-3" d="M47.93,41.55v10H22.46V38.48l2.38,2.38a3.92,3.92,0,1,0,5.54-5.54L28,32.93H39.31A8.62,8.62,0,0,1,47.93,41.55Z"/><path d="M35.19,32A10.82,10.82,0,1,1,46,21.18,10.84,10.84,0,0,1,35.19,32Z"/><circle class="cls-1" cx="35.19" cy="21.18" r="8.82"/><path d="M22,10a5.63,5.63,0,0,0-.93-1.47,5.87,5.87,0,0,0-4.48-2.07,5.93,5.93,0,0,0-5.92,5.92v14.7A5.92,5.92,0,0,0,16.58,33a2,2,0,0,0,.35,0l-2.48-2.48c-.11-.11-.21-.23-.31-.35a3.11,3.11,0,0,1-.33-.29,3.91,3.91,0,0,1-1.15-2.77V12.36a3.92,3.92,0,0,1,7.52-1.55,3.8,3.8,0,0,1,.32,1.55V25.44l2,2a2.17,2.17,0,0,0,0-.36V12.36A5.74,5.74,0,0,0,22,10Z"/><path d="M31.8,42.28a5.93,5.93,0,0,1-8.37,0l-1-1-2-2L13,31.88a4.12,4.12,0,0,1-.28-.31,5.9,5.9,0,0,1-.1-7.63v3.12a3.91,3.91,0,0,0,1.15,2.77,3.11,3.11,0,0,0,.33.29c.1.12.2.24.31.35L16.93,33l3.53,3.53,4.38,4.38a3.92,3.92,0,1,0,5.54-5.54L20.5,25.44V22.76a6.47,6.47,0,0,1,.91.75L22.5,24.6l6.32,6.33,2,2,1,1A5.92,5.92,0,0,1,31.8,42.28Z"/><path class="cls-3" d="M30.38,40.86a3.91,3.91,0,0,1-5.54,0l-4.38-4.38L16.93,33l-2.48-2.48c-.11-.11-.21-.23-.31-.35a3.11,3.11,0,0,1-.33-.29,3.91,3.91,0,0,1-1.15-2.77V12.36a3.92,3.92,0,0,1,7.52-1.55,3.8,3.8,0,0,1,.32,1.55V25.44l9.88,9.88A3.92,3.92,0,0,1,30.38,40.86Z"/></g></svg>