<svg id="Capa_1" data-name="Capa 1" xmlns="http://www.w3.org/2000/svg" viewBox="0 0 60 60"><defs><style>.cls-1{fill:#fff;}.cls-2{fill:#005883;}.cls-3{fill:#efb428;}</style></defs><g id="SIG"><path class="cls-1" d="M54.29,31.78l-1.35,1.4a23.18,23.18,0,0,1-7.08,13.7,2.59,2.59,0,0,1-1.43.66,2.49,2.49,0,0,1-.92,1.26,22.9,22.9,0,0,1-11,4.22A2.55,2.55,0,0,1,30,55a2.44,2.44,0,0,1-1.77-.74L26.8,52.92A23.15,23.15,0,0,1,7,32.46a2.53,2.53,0,0,1-1.82-1.53,2.48,2.48,0,0,1,.56-2.74l1.36-1.41A23.14,23.14,0,0,1,14.33,13a2.62,2.62,0,0,1,1.43-.66,2.5,2.5,0,0,1,.94-1.25A23.07,23.07,0,0,1,27.54,7a2.41,2.41,0,0,1,.65-1.2A2.57,2.57,0,0,1,30,5a2.51,2.51,0,0,1,1.79.75L33.2,7.08A23.16,23.16,0,0,1,53,27.56a2.53,2.53,0,0,1,1.25,4.22Z"/><path class="cls-2" d="M30.05,9.43h0A20.58,20.58,0,0,0,9.58,27.93L15,27.67a15.25,15.25,0,0,1,15-12.88h0v2.08l5.25-4.24L30,7.58V9.44"/><path class="cls-3" d="M39.67,28.76,38,28.51a7.92,7.92,0,0,0-1.26-3.06l1-1.4a.61.61,0,0,0-.06-.8l-.89-.89a.62.62,0,0,0-.8-.06l-1.4,1a8.12,8.12,0,0,0-3.05-1.27l-.26-1.72a.61.61,0,0,0-.61-.52H29.39a.62.62,0,0,0-.61.52l-.25,1.72a8.09,8.09,0,0,0-3.06,1.27l-1.4-1a.62.62,0,0,0-.8.06l-.89.89a.62.62,0,0,0-.06.8l1,1.4a8.09,8.09,0,0,0-1.27,3.06l-1.72.25a.62.62,0,0,0-.52.61v1.26a.61.61,0,0,0,.52.61l1.72.26a8.12,8.12,0,0,0,1.27,3l-1,1.4a.62.62,0,0,0,.06.8l.89.89a.61.61,0,0,0,.8.06l1.4-1a7.92,7.92,0,0,0,3.06,1.26l.25,1.72a.62.62,0,0,0,.61.53h1.26a.61.61,0,0,0,.61-.53l.26-1.72a7.94,7.94,0,0,0,3.05-1.26l1.4,1a.61.61,0,0,0,.8-.06l.89-.89a.61.61,0,0,0,.06-.8l-1-1.4a7.94,7.94,0,0,0,1.26-3l1.72-.26a.61.61,0,0,0,.53-.61V29.37a.62.62,0,0,0-.53-.61ZM30,34.08A4.08,4.08,0,1,1,34.1,30,4.08,4.08,0,0,1,30,34.08Z"/><path class="cls-3" d="M9.45,30v0A20.58,20.58,0,0,0,28,50.47L27.63,45A15.22,15.22,0,0,1,14.81,30v0h2.07l-4.25-5.25L7.58,30H9.44"/><path class="cls-2" d="M30,45.21h0a15.23,15.23,0,0,0,15-12.82L50.49,32A20.57,20.57,0,0,1,30,50.57h0v1.87l-5.25-5.06L30,43.13v2.08Z"/><path class="cls-3" d="M50.59,30v0A20.57,20.57,0,0,0,32.05,9.53l3.22,3.11L32.38,15A15.22,15.22,0,0,1,45.23,30v0h-2.1l4.24,5.25L52.42,30Z"/><path d="M30,25.24A4.77,4.77,0,0,0,25.26,30a4.84,4.84,0,0,0,.29,1.64.68.68,0,0,0,.87.4.69.69,0,0,0,.41-.87A3.32,3.32,0,0,1,26.62,30,3.4,3.4,0,1,1,30,33.4a3.36,3.36,0,0,1-1.75-.48.68.68,0,0,0-.7,1.16A4.76,4.76,0,0,0,34.78,30,4.76,4.76,0,0,0,30,25.24Z"/><path d="M39.79,28.09l-1.26-.19a8.77,8.77,0,0,0-1-2.43l.75-1a1.28,1.28,0,0,0-.12-1.68l-.89-.89a1.3,1.3,0,0,0-1.69-.13l-1,.76a8.5,8.5,0,0,0-2.43-1l-.19-1.26a1.28,1.28,0,0,0-1.28-1.1H29.39a1.28,1.28,0,0,0-1.28,1.1l-.19,1.26a8.5,8.5,0,0,0-2.43,1l-1-.76a1.28,1.28,0,0,0-1.68.13l-.89.89a1.29,1.29,0,0,0-.13,1.69l.76,1a8.5,8.5,0,0,0-1,2.43l-1.26.19a1.28,1.28,0,0,0-1.1,1.28v1.26a1.29,1.29,0,0,0,1.1,1.29l1.26.18a8.5,8.5,0,0,0,1,2.43l-.76,1a1.3,1.3,0,0,0,.13,1.69l.89.89a1.28,1.28,0,0,0,1.68.13l1-.76a8.21,8.21,0,0,0,2.43,1l.19,1.26a1.29,1.29,0,0,0,1.28,1.11h1.26a1.28,1.28,0,0,0,1.28-1.11l.19-1.26a8.21,8.21,0,0,0,2.43-1l1,.76a1.3,1.3,0,0,0,1.69-.13l.89-.89a1.29,1.29,0,0,0,.12-1.69l-.75-1a8.77,8.77,0,0,0,1-2.43l1.26-.18a1.3,1.3,0,0,0,1.11-1.29V29.37a1.3,1.3,0,0,0-1.11-1.28Zm-.25,2.49-1.67.25a.67.67,0,0,0-.57.55,7.34,7.34,0,0,1-1.16,2.8.69.69,0,0,0,0,.79l1,1.35-.82.82-1.36-1a.66.66,0,0,0-.78,0,7.41,7.41,0,0,1-2.8,1.16.68.68,0,0,0-.55.57l-.25,1.67H29.44l-.25-1.67a.68.68,0,0,0-.54-.57,7.34,7.34,0,0,1-2.8-1.16.68.68,0,0,0-.79,0l-1.36,1-.82-.82,1-1.35a.68.68,0,0,0,0-.79,7.34,7.34,0,0,1-1.16-2.8.67.67,0,0,0-.56-.55l-1.67-.25V29.43l1.67-.26a.67.67,0,0,0,.56-.54,7.34,7.34,0,0,1,1.16-2.8.68.68,0,0,0,0-.79l-1-1.36.82-.81,1.36,1a.68.68,0,0,0,.79,0,7.34,7.34,0,0,1,2.8-1.16.67.67,0,0,0,.54-.56l.25-1.67H30.6l.25,1.67a.67.67,0,0,0,.55.56,7.41,7.41,0,0,1,2.8,1.16.66.66,0,0,0,.78,0l1.36-1,.82.81-1,1.36a.69.69,0,0,0,0,.79,7.34,7.34,0,0,1,1.16,2.8.67.67,0,0,0,.57.54l1.67.26Z"/><path d="M53.09,29.76a.68.68,0,0,0-.62-.42H51.3A21.28,21.28,0,0,0,32.36,8.84L30.49,7a.69.69,0,0,0-1.15.49V8.72a21.09,21.09,0,0,0-11.57,3.87.68.68,0,1,0,.78,1.11h0A19.85,19.85,0,0,1,30,10.07a.67.67,0,0,0,.68-.68h0V9.13l3.56,3.43L30.7,15.43v-.67a.67.67,0,0,0-.68-.68h0a15.94,15.94,0,0,0-15.44,12l-1.45-1.81a.69.69,0,0,0-1,0l-1.6,1.66a19.92,19.92,0,0,1,6-10.56.68.68,0,0,0-.92-1h0A21.2,21.2,0,0,0,8.87,27.62L7,29.51a.68.68,0,0,0,.49,1.15H8.74a21.29,21.29,0,0,0,18.9,20.5L29.51,53a.68.68,0,0,0,1.15-.49V51.28a21.1,21.1,0,0,0,11.76-4,.68.68,0,0,0,.15-1,.67.67,0,0,0-.94-.15A19.78,19.78,0,0,1,30,49.93h0a.68.68,0,0,0-.68.68h0v.26l-3.56-3.42,3.56-2.87v.67a.67.67,0,0,0,.68.67h0A15.94,15.94,0,0,0,45.45,34l1.42,1.76a.68.68,0,0,0,1,0L49.54,34a20,20,0,0,1-5.88,10.5.68.68,0,0,0,0,1,.7.7,0,0,0,1,0,21.28,21.28,0,0,0,6.59-13.19L53,30.49a.66.66,0,0,0,.13-.73ZM24.29,46.88a.68.68,0,0,0,0,1l1.68,1.62A19.95,19.95,0,0,1,10.09,30v0a.68.68,0,0,0-.68-.68H9.13l3.42-3.55,2.88,3.55h-.65a.67.67,0,0,0-.68.68v0a15.94,15.94,0,0,0,12,15.43ZM39.52,41a14.48,14.48,0,0,1-8.86,3.51v-1.4a.68.68,0,0,0-1.11-.52l-2.12,1.71a14.59,14.59,0,0,1-12-13.68h1.38a.69.69,0,0,0,.53-1.11l-1.7-2.1a14.58,14.58,0,0,1,13.66-12v1.4a.69.69,0,0,0,1.11.53l2.12-1.72a14.57,14.57,0,0,1,12,13.68H43.15a.69.69,0,0,0-.53,1.11l1.73,2.14A14.53,14.53,0,0,1,39.52,41Zm7.93-6.78L44.57,30.7h.69a.67.67,0,0,0,.68-.67v0a15.92,15.92,0,0,0-12-15.43l1.78-1.44a.68.68,0,0,0,0-1l-1.69-1.63A20,20,0,0,1,50,30v0a.68.68,0,0,0,.68.68h.24Z"/></g></svg>