<svg id="Capa_1" data-name="Capa 1" xmlns="http://www.w3.org/2000/svg" viewBox="0 0 60 60"><defs><style>.cls-1{fill:#fff;}.cls-2{fill:#efb428;}.cls-3{fill:#005883;}</style></defs><path class="cls-1" d="M52.33,37.93a4.16,4.16,0,0,0,.46-1.86V32.82a4,4,0,0,0-4-4H47.4a4,4,0,0,0,.35-1.63V23.93a4,4,0,0,0-4-4H37.52a4,4,0,0,0,.35-1.63V15a4,4,0,0,0-4-4H17.47A4,4,0,0,0,14.4,12.5,5.59,5.59,0,0,0,10.64,11,5.63,5.63,0,0,0,7.18,21.11a5.62,5.62,0,0,0,0,8.89,5.61,5.61,0,0,0,0,8.88A5.64,5.64,0,0,0,10.63,49h0a5.6,5.6,0,0,0,3.72-1.44A4,4,0,0,0,17.41,49H51a4,4,0,0,0,4-4V41.71A4,4,0,0,0,52.33,37.93Z"/><circle class="cls-2" cx="10.64" cy="16.67" r="2.53"/><path class="cls-3" d="M13.16,25.56A2.53,2.53,0,1,1,10.64,23a2.52,2.52,0,0,1,2.52,2.53Z"/><path class="cls-2" d="M13.16,34.44a2.53,2.53,0,1,1-2.52-2.53h0A2.53,2.53,0,0,1,13.16,34.44Z"/><circle class="cls-3" cx="10.64" cy="43.33" r="2.53"/><path class="cls-2" d="M17.47,14.14a.9.9,0,0,0-.9.91v3.24a.9.9,0,0,0,.9.91h4.75V14.14Z"/><path class="cls-2" d="M33.85,14.14H22.22V19.2H33.85a.91.91,0,0,0,.91-.91V15.05A.91.91,0,0,0,33.85,14.14Z"/><path class="cls-3" d="M23.24,23a.9.9,0,0,0-.91.9v3.25a.9.9,0,0,0,.91.9H36.67V23Z"/><path class="cls-3" d="M43.73,23H36.67v5h7.06a.9.9,0,0,0,.91-.9V23.93a.9.9,0,0,0-.91-.9Z"/><path class="cls-2" d="M32.81,31.91a.9.9,0,0,0-.9.91v3.25a.9.9,0,0,0,.9.9h3.81V31.91Z"/><path class="cls-2" d="M48.77,31.91H36.62V37H48.77a.9.9,0,0,0,.91-.9V32.82A.91.91,0,0,0,48.77,31.91Z"/><path class="cls-3" d="M17.41,40.8a.9.9,0,0,0-.9.91V45a.9.9,0,0,0,.9.9H30.62V40.8Z"/><path class="cls-3" d="M51,40.8H30.62v5.06H51a.9.9,0,0,0,.9-.9V41.71a.9.9,0,0,0-.9-.91Z"/><path d="M17.47,20H33.85a1.7,1.7,0,0,0,1.7-1.7V15.05a1.7,1.7,0,0,0-1.7-1.7H17.47a1.7,1.7,0,0,0-1.7,1.7v3.24A1.7,1.7,0,0,0,17.47,20ZM34,15.05v3.24a.12.12,0,0,1-.12.12H23V14.93H33.85A.12.12,0,0,1,34,15.05Zm-16.61,0a.11.11,0,0,1,.11-.12h4v3.48h-4a.12.12,0,0,1-.11-.12Zm4.18,8.88v3.25a1.7,1.7,0,0,0,1.7,1.69H43.73a1.7,1.7,0,0,0,1.7-1.69V23.93a1.7,1.7,0,0,0-1.7-1.69H23.24A1.7,1.7,0,0,0,21.54,23.93Zm1.58,3.25V23.93a.11.11,0,0,1,.12-.11H35.87v3.47H23.24a.11.11,0,0,1-.12-.11Zm20.73-3.25v3.25a.11.11,0,0,1-.12.11H37.46V23.82h6.27A.11.11,0,0,1,43.85,23.93Zm-11,7.19a1.7,1.7,0,0,0-1.69,1.7v3.25a1.69,1.69,0,0,0,1.69,1.69h16a1.7,1.7,0,0,0,1.7-1.69V32.82a1.7,1.7,0,0,0-1.7-1.7Zm-.11,4.95V32.82a.11.11,0,0,1,.11-.11h3v3.47h-3A.11.11,0,0,1,32.7,36.07Zm16.19-3.25v3.25a.11.11,0,0,1-.12.11H37.41V32.71H48.77A.11.11,0,0,1,48.89,32.82ZM36.16,40H17.41a1.7,1.7,0,0,0-1.69,1.7V45a1.69,1.69,0,0,0,1.69,1.69H51A1.69,1.69,0,0,0,52.68,45V41.71A1.7,1.7,0,0,0,51,40H36.16Zm-6.34,5.06H17.41A.11.11,0,0,1,17.3,45V41.71a.12.12,0,0,1,.11-.12H51a.11.11,0,0,1,.11.12V45a.11.11,0,0,1-.11.11H29.82Z"/><path d="M43,41.59A.79.79,0,0,0,43,40H41.59a.79.79,0,1,0,0,1.58ZM10.64,20a3.32,3.32,0,1,0-3.32-3.32h0A3.32,3.32,0,0,0,10.64,20Zm0-5.06A1.74,1.74,0,1,1,8.9,16.67h0A1.74,1.74,0,0,1,10.64,14.93Zm0,14a3.32,3.32,0,1,0-3.32-3.33h0a3.32,3.32,0,0,0,3.32,3.32Zm0-5.06A1.74,1.74,0,1,1,8.9,25.56h0a1.74,1.74,0,0,1,1.74-1.74Zm0,13.94a3.32,3.32,0,1,0-3.32-3.32h0A3.31,3.31,0,0,0,10.64,37.76Zm0-5A1.74,1.74,0,1,1,8.9,34.44h0a1.73,1.73,0,0,1,1.74-1.73Zm0,13.94a3.32,3.32,0,1,0-3.32-3.32h0a3.32,3.32,0,0,0,3.32,3.32Zm0-5.06A1.74,1.74,0,1,1,8.9,43.33h0A1.74,1.74,0,0,1,10.64,41.59Z"/></svg>