<svg xmlns="http://www.w3.org/2000/svg" viewBox="0 0 60 60"><defs><style>.cls-1{fill:#fff;}.cls-2{fill:#005883;}.cls-3{fill:#efb428;}</style></defs><g id="Sistemas"><path class="cls-1" d="M14.54,39.7a13.25,13.25,0,0,1-3.28-4.11,3.9,3.9,0,0,1-.39-1.28,2.59,2.59,0,0,0,.46-1.58,2,2,0,0,0-.67-1.39,2,2,0,0,0-1.32-.48,2.7,2.7,0,0,0-2,1C6.36,33,5.47,35,6.94,38.11a17.1,17.1,0,0,0,4.23,5.41A2.06,2.06,0,0,0,12.5,44a2.65,2.65,0,0,0,2-1,3,3,0,0,0,.68-1.26A2.09,2.09,0,0,0,14.54,39.7ZM52.26,2.46a11.35,11.35,0,0,0-2.6-.24,22.9,22.9,0,0,0-9.73,2.32,1.92,1.92,0,0,0-1,.87c-.12.21-.25.42-.36.63a2.08,2.08,0,0,0-.71-.13,1.92,1.92,0,0,0-1.06.31c-.6.37-1.2.77-1.79,1.19S34,8.2,33.41,8.63s-.84.69-1.26,1.07-1.07,1-1.59,1.46l-.67.66a1.93,1.93,0,0,0-.46.74A11.61,11.61,0,0,0,29,14.12l-.24,0a2.14,2.14,0,0,0-1.58.74c-1.28,1.55-2.52,3.23-3.7,5a2.26,2.26,0,0,0-.22.44,11.44,11.44,0,0,0-.61,2.53,2.07,2.07,0,0,0-1.11.44l-1.22-.38-.16-.05-.18,0A12,12,0,0,0,18,22.46c-.23,0-.45,0-.62-.05s-.54,0-.8,0h-.15a5.32,5.32,0,0,0-4.37,2.22l-.05.09a1.4,1.4,0,0,0-.1.16l-.14.25-.06.13a2.73,2.73,0,0,0-.17,2.08,2,2,0,0,0,1,1.14,2.23,2.23,0,0,0,.67.19,2.38,2.38,0,0,0,2.14-1.16,4.44,4.44,0,0,1,1.35-.13l.41,0a11.8,11.8,0,0,1,1.76.32l-.23.46,1.54.75-1.58-.66c-.51,1-1,2-1.4,2.95a18.6,18.6,0,0,0-1.79,8.33,14.53,14.53,0,0,0,.61,3.8,1.59,1.59,0,0,0,.18.37l-.78,1.53-.44.83a2.82,2.82,0,0,0-.37.73,3.35,3.35,0,0,0-.13,1,1.51,1.51,0,0,0,.13.63,25.91,25.91,0,0,1-1.57,3.06,2.56,2.56,0,0,0-.3,2.06,3.28,3.28,0,0,1,0,1.21l-.23.5A1.67,1.67,0,0,0,12.68,57a1.72,1.72,0,0,0,1.42.78h.06A58.37,58.37,0,0,0,21.67,57a64.22,64.22,0,0,0,10-2.45A6.8,6.8,0,0,0,34,53.37a4,4,0,0,0,1.43-3.79,4.68,4.68,0,0,0-1.11-2.11,2.87,2.87,0,0,0-.59-.74.18.18,0,0,0-.07,0A2.65,2.65,0,0,0,32,46.09,2.36,2.36,0,0,0,30,47.2a2.3,2.3,0,0,0,0,2.3,6.1,6.1,0,0,0,.35.53l-.16.06a60.38,60.38,0,0,1-10.47,2.45l.57-1.91a1.6,1.6,0,0,0,.46-.25l.11-.09a2.55,2.55,0,0,0,.8-1.18l0-.11c.08-.19.16-.38.25-.56l.1-.24c.11-.28.23-.56.35-.83a1.8,1.8,0,0,0,.62.12,1.66,1.66,0,0,0,.49-.07c.6-.18,1.17-.38,1.73-.59a29.93,29.93,0,0,0,10.72-7c.5-.5,1-1,1.43-1.47a9.68,9.68,0,0,1,1.86,2.16,2.13,2.13,0,0,0,3.57.36l.37-.43a2.52,2.52,0,0,0,.13-3,16,16,0,0,0-2.62-3l-.54-.49a14.61,14.61,0,0,0,1.65-1,2.1,2.1,0,0,0,.48-.46,62.71,62.71,0,0,0,4.66-7,2,2,0,0,0-.06-2.17c.41-.19.8-.4,1.16-.61a2.32,2.32,0,0,0,.71-.68,2.12,2.12,0,0,0,.12-.2c.18-.37.36-.74.51-1.11s.43-1,.63-1.42.48-1.16.7-1.74A49.57,49.57,0,0,0,52.78,11a2,2,0,0,0,0-1.15,2.12,2.12,0,0,0,.5-1c.24-1.23.39-2.23.48-3s.11-1.2.11-1.38A2,2,0,0,0,52.26,2.46Z"/><path class="cls-1" d="M52.8.3A13.21,13.21,0,0,0,49.66,0a25,25,0,0,0-10.6,2.49,4.17,4.17,0,0,0-1.63,1.22,4.06,4.06,0,0,0-1.76.61c-.64.39-1.29.82-1.92,1.28S32.58,6.44,32,6.91s-.9.72-1.33,1.11S29.57,9,29,9.58l-.66.66a4.1,4.1,0,0,0-1,1.57c-.05.11-.09.23-.14.36a4.66,4.66,0,0,0-1.74,1.25,60.69,60.69,0,0,0-3.81,5.15,4.13,4.13,0,0,0-.42.77.77.77,0,0,0-.07.16c-.13.38-.25.78-.35,1.19a2.11,2.11,0,0,0-.41-.11,15.93,15.93,0,0,0-2.15-.34l-.59,0H16.34a7.49,7.49,0,0,0-6.13,3.25l-.18.29-.3.57a5,5,0,0,0-.25,3.8,4.23,4.23,0,0,0,.27.57c-.14,0-.27,0-.41,0a5,5,0,0,0-3.66,1.73C4.51,31.7,2.85,34.61,4.93,39a19.25,19.25,0,0,0,4.81,6.17,4.22,4.22,0,0,0,2.76,1h0a5.1,5.1,0,0,0-.23,1.65c0,.11,0,.23,0,.35a21.73,21.73,0,0,1-1.08,2.07A4.58,4.58,0,0,0,10.61,54l0,.1a.56.56,0,0,1,0,.13l-.05.1a3.92,3.92,0,0,0,.23,3.88A4,4,0,0,0,14.1,60h.13a59.83,59.83,0,0,0,7.8-.77,65.9,65.9,0,0,0,10.34-2.53,8.78,8.78,0,0,0,3.1-1.63,6.21,6.21,0,0,0,2.18-5.92,6.5,6.5,0,0,0-1.47-3,5,5,0,0,0-.92-1.11l-.17-.15a5.66,5.66,0,0,0-1-.59,32.23,32.23,0,0,0,3.19-2.78,4.27,4.27,0,0,0,3.46,2.28,2.48,2.48,0,0,0,.39,0,4.38,4.38,0,0,0,3.4-1.64l.38-.45a4.74,4.74,0,0,0,.25-5.6,15.09,15.09,0,0,0-1.51-1.9c.13-.14.27-.27.38-.41a65.89,65.89,0,0,0,4.79-7.26,4.21,4.21,0,0,0,.61-2.19,4.12,4.12,0,0,0,.61-.52,4,4,0,0,0,.53-.66,5.11,5.11,0,0,0,.28-.46c.19-.4.39-.81.52-1.15.24-.5.46-1,.67-1.5s.5-1.2.72-1.79a54,54,0,0,0,2.16-6.77,4.46,4.46,0,0,0,.13-1.2,4.91,4.91,0,0,0,.36-1.06c.21-1.07.37-2.11.51-3.16,0-.4.11-1.12.12-1.54A4.18,4.18,0,0,0,52.8.3ZM12.5,44a2.06,2.06,0,0,1-1.33-.49,17.1,17.1,0,0,1-4.23-5.41C5.47,35,6.36,33,7.36,31.82a2.7,2.7,0,0,1,2-1,2,2,0,0,1,1.32.48,2,2,0,0,1,.67,1.39,2.59,2.59,0,0,1-.46,1.58,3.9,3.9,0,0,0,.39,1.28,13.25,13.25,0,0,0,3.28,4.11,2.09,2.09,0,0,1,.61,2.07A3,3,0,0,1,14.47,43,2.65,2.65,0,0,1,12.5,44ZM53.73,5.91c-.09.73-.24,1.73-.48,3a2.12,2.12,0,0,1-.5,1,2,2,0,0,1,0,1.15,49.57,49.57,0,0,1-2.07,6.52c-.22.58-.45,1.16-.7,1.74s-.41.94-.63,1.42-.33.74-.51,1.11a2.12,2.12,0,0,1-.12.2,2.32,2.32,0,0,1-.71.68c-.36.21-.75.42-1.16.61a2,2,0,0,1,.06,2.17,62.71,62.71,0,0,1-4.66,7,2.1,2.1,0,0,1-.48.46,14.61,14.61,0,0,1-1.65,1l.54.49a16,16,0,0,1,2.62,3,2.52,2.52,0,0,1-.13,3l-.37.43a2.13,2.13,0,0,1-3.57-.36,9.68,9.68,0,0,0-1.86-2.16c-.45.48-.93,1-1.43,1.47a29.93,29.93,0,0,1-10.72,7c-.56.21-1.13.41-1.73.59a1.66,1.66,0,0,1-.49.07,1.8,1.8,0,0,1-.62-.12c-.12.27-.24.55-.35.83l-.1.24c-.09.18-.17.37-.25.56l0,.11a2.55,2.55,0,0,1-.8,1.18l-.11.09a1.6,1.6,0,0,1-.46.25l-.57,1.91a60.38,60.38,0,0,0,10.47-2.45l.16-.06A6.1,6.1,0,0,1,30,49.5a2.3,2.3,0,0,1,0-2.3A2.36,2.36,0,0,1,32,46.09a2.65,2.65,0,0,1,1.66.59.18.18,0,0,1,.07,0,2.87,2.87,0,0,1,.59.74,4.68,4.68,0,0,1,1.11,2.11A4,4,0,0,1,34,53.37a6.8,6.8,0,0,1-2.36,1.21,64.22,64.22,0,0,1-10,2.45,58.37,58.37,0,0,1-7.51.75H14.1A1.72,1.72,0,0,1,12.68,57a1.67,1.67,0,0,1-.11-1.67l.23-.5a3.28,3.28,0,0,0,0-1.21,2.56,2.56,0,0,1,.3-2.06,25.91,25.91,0,0,0,1.57-3.06,1.51,1.51,0,0,1-.13-.63,3.35,3.35,0,0,1,.13-1,2.82,2.82,0,0,1,.37-.73l.44-.83.78-1.53a1.59,1.59,0,0,1-.18-.37,14.53,14.53,0,0,1-.61-3.8,18.6,18.6,0,0,1,1.79-8.33c.42-.95.89-1.93,1.4-2.95l1.58.66-1.54-.75.23-.46a11.8,11.8,0,0,0-1.76-.32l-.41,0a4.44,4.44,0,0,0-1.35.13,2.38,2.38,0,0,1-2.14,1.16,2.23,2.23,0,0,1-.67-.19,2,2,0,0,1-1-1.14,2.73,2.73,0,0,1,.17-2.08l.06-.13.14-.25a1.4,1.4,0,0,1,.1-.16l.05-.09a5.32,5.32,0,0,1,4.37-2.22h.15c.26,0,.53,0,.8,0s.39,0,.62.05a12,12,0,0,1,1.94.31l.18,0,.16.05,1.22.38a2.07,2.07,0,0,1,1.11-.44,11.44,11.44,0,0,1,.61-2.53,2.26,2.26,0,0,1,.22-.44c1.18-1.76,2.42-3.44,3.7-5a2.14,2.14,0,0,1,1.58-.74l.24,0a11.61,11.61,0,0,1,.44-1.56,1.93,1.93,0,0,1,.46-.74l.67-.66c.52-.5,1.05-1,1.59-1.46S33,9,33.41,8.63,34.49,7.8,35,7.41s1.19-.82,1.79-1.19a1.92,1.92,0,0,1,1.06-.31A2.08,2.08,0,0,1,38.6,6c.11-.21.24-.42.36-.63a1.92,1.92,0,0,1,1-.87,22.9,22.9,0,0,1,9.73-2.32,11.35,11.35,0,0,1,2.6.24,2,2,0,0,1,1.58,2.07C53.84,4.71,53.8,5.19,53.73,5.91Z"/><path d="M18.7,46.69a1.7,1.7,0,0,1-1.43-.77,8.52,8.52,0,0,1-.61-1.09A1.72,1.72,0,0,1,18.1,42.4l.85,0a1.71,1.71,0,0,1,1.65,2.18l-.26.9A1.7,1.7,0,0,1,19,46.67Z"/><path d="M18.21,44.11c.25,0,.5,0,.74,0L18.7,45A6.92,6.92,0,0,1,18.21,44.11Z"/><path d="M53.84,4.53c0,.18,0,.66-.11,1.38s-.24,1.73-.48,3a2.12,2.12,0,0,1-.5,1,2,2,0,0,1,0,1.15,49.57,49.57,0,0,1-2.07,6.52c-.22.58-.45,1.16-.7,1.74s-.41.94-.63,1.42-.33.74-.51,1.11a2.12,2.12,0,0,1-.12.2,2.32,2.32,0,0,1-.71.68c-.36.21-.75.42-1.16.61a2,2,0,0,1,.06,2.17,62.71,62.71,0,0,1-4.66,7,2.1,2.1,0,0,1-.48.46,14.61,14.61,0,0,1-1.65,1c-.21.12-.41.22-.62.32a2.13,2.13,0,0,1,0,1.43h0a2.17,2.17,0,0,1-.41.68l-.59.66-.53.59c-.2.23-.41.45-.63.68-.45.48-.93,1-1.43,1.47a29.93,29.93,0,0,1-10.72,7c-.56.21-1.13.41-1.73.59a1.66,1.66,0,0,1-.49.07,1.8,1.8,0,0,1-.62-.12,1.72,1.72,0,0,1-1-1.06c0-.1-.08-.19-.12-.29l0-.1-.05-.09h0v0a5.78,5.78,0,0,0-.39-.75l-.25-.2s0,0,0,0-.25-.13-.41-.19a2.4,2.4,0,0,1-.39-.2,1.32,1.32,0,0,1-.34,0h-1l-.46,0a.62.62,0,0,1-.19,0h-.05a1.73,1.73,0,0,1-1.21-.5,1.33,1.33,0,0,1-.24-.33,1.59,1.59,0,0,1-.18-.37,14.53,14.53,0,0,1-.61-3.8,18.6,18.6,0,0,1,1.79-8.33c.42-.95.89-1.93,1.4-2.95l1.58.66-1.54-.75.23-.46c.17-.34.34-.66.52-1l0-.07c.08-.16.17-.33.26-.48h0c.24-.49.51-1,.78-1.46.16-.3.33-.6.5-.89a2.33,2.33,0,0,1,.5-.58,2.07,2.07,0,0,1,1.11-.44,11.44,11.44,0,0,1,.61-2.53,2.26,2.26,0,0,1,.22-.44c1.18-1.76,2.42-3.44,3.7-5a2.14,2.14,0,0,1,1.58-.74l.24,0a11.61,11.61,0,0,1,.44-1.56,1.93,1.93,0,0,1,.46-.74l.67-.66c.52-.5,1.05-1,1.59-1.46S33,9,33.41,8.63,34.49,7.8,35,7.41s1.19-.82,1.79-1.19a1.92,1.92,0,0,1,1.06-.31A2.08,2.08,0,0,1,38.6,6c.11-.21.24-.42.36-.63a1.92,1.92,0,0,1,1-.87,22.9,22.9,0,0,1,9.73-2.32,11.35,11.35,0,0,1,2.6.24A2,2,0,0,1,53.84,4.53Z"/><path class="cls-2" d="M52.13,4.45a26.57,26.57,0,0,1-.56,4.08.34.34,0,0,1-.24.26,10,10,0,0,0-3.66,1.66,14.44,14.44,0,0,1,3.15-.29.33.33,0,0,1,.25.12.34.34,0,0,1,.06.29,53,53,0,0,1-3.81,10.48.22.22,0,0,1-.12.13,27.86,27.86,0,0,1-7.12,2.54,11.51,11.51,0,0,0,5.05.37.33.33,0,0,1,.32.14.32.32,0,0,1,0,.35,60.16,60.16,0,0,1-4.54,6.89l-.07.07a17.12,17.12,0,0,1-5.16,2.29c-.94.25-1.79.41-2.47.52H33.1a1.34,1.34,0,0,0,.27.07h0a11.63,11.63,0,0,0,3.73.28h0l.46-.05a.35.35,0,0,1,.34.17.35.35,0,0,1-.05.38c-.37.42-.73.84-1.12,1.26-.65.71-1.32,1.41-2,2.09a28.5,28.5,0,0,1-10.11,6.67c-.56.21-1.1.39-1.62.55-.06-.18-.13-.35-.21-.53v0a6.73,6.73,0,0,0-.7-1.29A3.62,3.62,0,0,0,20.67,43c0-.11.07-.21.1-.31a52.86,52.86,0,0,1,5.51-11.65c.31-.48.62-.95.94-1.41a49.51,49.51,0,0,1,4.45-5.57,36.61,36.61,0,0,1,7.7-6.46.64.64,0,0,0,.34-.57.63.63,0,0,0-.09-.33.66.66,0,0,0-.89-.26C38.64,16.52,32,20.29,26,29.15c-.32.46-.63.94-.94,1.43A53,53,0,0,0,19.52,42.3c-.05.15-.11.31-.16.47h-.89c-.25,0-.51,0-.76.07a12.77,12.77,0,0,1-.53-3.35,17,17,0,0,1,1.63-7.55c.44-1,.9-2,1.37-2.9l.06-.1c.23-.49.47-1,.72-1.43a.25.25,0,0,1,0-.07c.49-1,1-1.88,1.51-2.78a.34.34,0,0,1,.33-.16.32.32,0,0,1,.27.23,13.27,13.27,0,0,0,1.2,2.86,16.25,16.25,0,0,1,.54-6.72.3.3,0,0,1,0-.08c1.18-1.77,2.39-3.4,3.59-4.86a.38.38,0,0,1,.35-.12.36.36,0,0,1,.24.25,12.71,12.71,0,0,0,1.43,3.78A16.27,16.27,0,0,1,31,13.15.35.35,0,0,1,31.1,13a35.44,35.44,0,0,1,6.63-5.36.29.29,0,0,1,.33,0,.31.31,0,0,1,.16.3,13.36,13.36,0,0,0,.25,3.65,18.39,18.39,0,0,1,2-5.38.29.29,0,0,1,.14-.13c6.47-3,11.09-2,11.28-2A.33.33,0,0,1,52.13,4.45Z"/><path d="M23.13,45.26a1.92,1.92,0,0,1-.08.51s0,0,0,.06L23,46c-.13.32-.27.63-.39.93-.07.15-.12.3-.19.45s-.24.55-.35.83l-.1.24c-.09.18-.17.37-.25.56l0,.11a2.55,2.55,0,0,1-.8,1.18l-.11.09a1.6,1.6,0,0,1-.46.25,1.51,1.51,0,0,1-.59.11,1.67,1.67,0,0,1-1.11-.42,1.07,1.07,0,0,1-.19-.18,1.83,1.83,0,0,0-1.13-.57l-.42,0a1.58,1.58,0,0,0-.38,0h-.21a.55.55,0,0,1-.18,0h0a1.71,1.71,0,0,1-.95-.42,1.57,1.57,0,0,1-.44-.64,1.51,1.51,0,0,1-.13-.63,3.35,3.35,0,0,1,.13-1,2.82,2.82,0,0,1,.37-.73l.44-.83.78-1.53.15-.31a2.08,2.08,0,0,1,.39-.52,1.62,1.62,0,0,1,.81-.42.58.58,0,0,1,.18,0h.1l.24,0,.41,0h.94a4.51,4.51,0,0,1,1.07.19.74.74,0,0,1,.24.08l.12,0a3.9,3.9,0,0,1,1.43.93l.1.1a3.47,3.47,0,0,1,.54.83A1.66,1.66,0,0,1,23.13,45.26Z"/><path class="cls-1" d="M21.42,45.25a.21.21,0,0,1,0,.07h0l-.38.92-.54,1.27c-.12.27-.25.56-.36.83a1.6,1.6,0,0,1-.32.59l-.1.08a3.59,3.59,0,0,0-2.21-1.15,4.73,4.73,0,0,0-.65,0l-.59,0a1.54,1.54,0,0,1,.06-.53,3.6,3.6,0,0,1,.29-.5c.13-.26.26-.52.4-.77.31-.63.63-1.24,1-1.86a.25.25,0,0,1,0-.07l.23,0c.25,0,.5,0,.74,0h0a4.14,4.14,0,0,1,1.12.14l.2.07a2.22,2.22,0,0,1,.83.53l0,0A1.33,1.33,0,0,1,21.42,45.25Z"/><path d="M14.57,57.3a1.68,1.68,0,0,1-1-.31,1.73,1.73,0,0,1-.74-1.39h0a1.71,1.71,0,0,1,1.71-1.71,1.73,1.73,0,0,1,1.7,1.42,1.71,1.71,0,0,1-1.1,1.9A1.69,1.69,0,0,1,14.57,57.3Z"/><polygon class="cls-1" points="14.58 55.59 14.55 55.6 14.55 55.59 14.58 55.59"/><path d="M34,53.37a6.8,6.8,0,0,1-2.36,1.21,64.22,64.22,0,0,1-10,2.45,58.37,58.37,0,0,1-7.51.75H14.1A1.72,1.72,0,0,1,12.68,57a1.67,1.67,0,0,1-.11-1.67l.23-.5a3.28,3.28,0,0,0,0-1.21,2.56,2.56,0,0,1,.3-2.06,25.91,25.91,0,0,0,1.57-3.06,1.7,1.7,0,0,1,1.34-1l.26,0a2.83,2.83,0,0,1,.58,0,4.32,4.32,0,0,1,.73.06A3.86,3.86,0,0,1,20,48.73l.1.11a1.78,1.78,0,0,1,.3,1.56l-.07.23-.57,1.91a60.38,60.38,0,0,0,10.47-2.45l.16-.06A6.1,6.1,0,0,1,30,49.5a2.3,2.3,0,0,1,0-2.3A2.36,2.36,0,0,1,32,46.09a2.65,2.65,0,0,1,1.66.59.18.18,0,0,1,.07,0,2.87,2.87,0,0,1,.59.74,4.68,4.68,0,0,1,1.11,2.11A4,4,0,0,1,34,53.37Z"/><path class="cls-3" d="M31.49,48.66a4.34,4.34,0,0,0,.52.71,2,2,0,0,1,.48.77,1.11,1.11,0,0,1-.41.92,4.12,4.12,0,0,1-1.35.64,61.17,61.17,0,0,1-14.88,3,4.26,4.26,0,0,1,1.54-1s.22-.07.27-.21l1.05-3.56a2.25,2.25,0,0,0-1.41-.72,2.32,2.32,0,0,0-.46,0,4.18,4.18,0,0,0-.61,0,27.58,27.58,0,0,1-1.78,3.42s-.09.06,0,.7a5.69,5.69,0,0,1,0,2l-.36.75a57.6,57.6,0,0,0,7.29-.72A63.25,63.25,0,0,0,31.14,53a5.3,5.3,0,0,0,1.79-.9,2.3,2.3,0,0,0,.86-2.16A3,3,0,0,0,33,48.54c-.15-.19-.17-.34-.39-.53C32,47.5,31.1,48,31.49,48.66ZM14.55,55.6h0Z"/><path d="M15.15,41.77A3,3,0,0,1,14.47,43a2.65,2.65,0,0,1-2,1,2.06,2.06,0,0,1-1.33-.49,17.1,17.1,0,0,1-4.23-5.41C5.47,35,6.36,33,7.36,31.82a2.7,2.7,0,0,1,2-1,2,2,0,0,1,1.32.48,2,2,0,0,1,.67,1.39,2.59,2.59,0,0,1-.46,1.58,3.9,3.9,0,0,0,.39,1.28,13.25,13.25,0,0,0,3.28,4.11A2.09,2.09,0,0,1,15.15,41.77Z"/><path class="cls-3" d="M12.3,42.23c.19.17.58,0,.89-.33s.4-.76.22-.92a15.1,15.1,0,0,1-3.7-4.67c-.81-1.75-.52-2.63-.4-2.77.31-.34.4-.76.22-.92s-.58,0-.89.33c-1,1.11-1,2.56-.16,4.44A15.63,15.63,0,0,0,12.3,42.23Z"/><path d="M43.18,40.4l-.37.43a2.13,2.13,0,0,1-3.57-.36,9.68,9.68,0,0,0-1.86-2.16l-.15-.14q-.52-.49-1.14-1h0c-.18-.17-.34-.3-.52-.45-.9-.72-1.9-1.44-3-2.16l-.2-.14q-1.87-1.24-3.84-2.36c-.75-.43-1.47-.81-2.16-1.18l-.5-.26c-.22-.11-.45-.23-.68-.33l-.48-.23q-1.39-.67-2.7-1.2l-.12-.05-.28-.11-.3-.12-.07,0a6.76,6.76,0,0,0-.69-.29l-.24-.1-.15-.06c-.42-.14-.84-.28-1.25-.38a11.8,11.8,0,0,0-1.76-.32l-.41,0a4.44,4.44,0,0,0-1.35.13,2.38,2.38,0,0,1-2.14,1.16,2.23,2.23,0,0,1-.67-.19,2,2,0,0,1-1-1.14,2.73,2.73,0,0,1,.17-2.08l.06-.13.14-.25a1.4,1.4,0,0,1,.1-.16l.05-.09a5.32,5.32,0,0,1,4.37-2.22h.15c.26,0,.53,0,.8,0s.39,0,.62.05a12,12,0,0,1,1.94.31l.18,0,.16.05,1.22.38.73.26.85.32.27.11c.28.1.56.21.85.34.95.39,2,.85,3,1.37l.93.47h0l.32.17.86.44c.52.27,1.08.58,1.67.91A63,63,0,0,1,36.8,31.3c.45.31.88.63,1.29.94l.12.1.5.39h0a1.46,1.46,0,0,0,.22.18l1.2,1,.54.49a16,16,0,0,1,2.62,3A2.52,2.52,0,0,1,43.18,40.4Z"/><path class="cls-3" d="M41.84,39.32l-.35.44a.44.44,0,0,1-.73-.06,11.11,11.11,0,0,0-2.37-2.8c-.53-.49-1.13-1-1.76-1.51-1-.76-2-1.54-3.18-2.31h0L33.3,33c-1.23-.82-2.54-1.63-3.91-2.41-.91-.52-1.82-1-2.73-1.46q-.6-.32-1.2-.6c-.95-.46-1.89-.87-2.8-1.23l-.08,0a3.61,3.61,0,0,0-.42-.16h0L22,27,22,27c-.35-.17-.7-.31-1-.44l-.14-.06a13.21,13.21,0,0,0-4-.84c-1.93-.07-2.63.53-2.7.71a0,0,0,0,1,0,0c-.21.41-.54.64-.76.54s-.25-.53-.05-.95c.06-.1.11-.2.17-.29h0l.05-.07a3.61,3.61,0,0,1,3.05-1.5h0c.23,0,.48,0,.74,0a12.07,12.07,0,0,1,2.28.31l.21.06c.59.17,1.22.38,1.86.61l.91.35h.05l.06,0h0c1.22.47,2.5,1,3.82,1.68q.6.28,1.2.6c.83.42,1.65.87,2.49,1.34a62.78,62.78,0,0,1,5.59,3.57c.47.33.91.66,1.34,1h0l.7.57c.61.49,1.16,1,1.67,1.44a14.75,14.75,0,0,1,2.37,2.65A.83.83,0,0,1,41.84,39.32Z"/></g></svg>