<svg id="Capa_1" data-name="Capa 1" xmlns="http://www.w3.org/2000/svg" viewBox="0 0 60 60"><defs><style>.cls-1{fill:#fff;}.cls-2{fill:#efb428;}.cls-3{fill:#005883;}</style></defs><path class="cls-1" d="M45.9,28.28h1.94a3.42,3.42,0,0,0,0-6.83H45.9a3.4,3.4,0,0,0-2.09.73,5.67,5.67,0,0,0,.1-1c0-.08,0-.16,0-.24a3.53,3.53,0,0,0,1.39-.33l.1-.05L47,19.67a3.34,3.34,0,0,0,1.69-2A3.44,3.44,0,0,0,48.45,15a3.42,3.42,0,0,0-4.61-1.39l-1.69.9a3.38,3.38,0,0,0-1.58,1.85,3.61,3.61,0,0,0-.46-.17,4.24,4.24,0,0,0-.57-1,3.39,3.39,0,0,0,1.2-1.06l.11-.16.92-1.49a3.34,3.34,0,0,0,.47-2.61,3.38,3.38,0,0,0-1.51-2.14,3.47,3.47,0,0,0-1.82-.53A3.37,3.37,0,0,0,36,8.8l-1,1.63a3.33,3.33,0,0,0-.45,1.78A4.09,4.09,0,0,0,33,11.89h0a3.42,3.42,0,0,0,.47-1.7V8.42a3.42,3.42,0,0,0-6.84,0V10.2A3.44,3.44,0,0,0,27,11.88H27a4,4,0,0,0-1.53.31v0a3.42,3.42,0,0,0-.52-1.8L24,8.8a3.46,3.46,0,0,0-2.9-1.59,3.4,3.4,0,0,0-1.81.52,3.44,3.44,0,0,0-1.08,4.71l1,1.56a3.32,3.32,0,0,0,1.29,1.18,4.77,4.77,0,0,0-.57,1c-.16,0-.32.12-.47.18a3.44,3.44,0,0,0-1.59-1.85l-1.66-.88a3.41,3.41,0,1,0-3.23,6l1.66.89a3.24,3.24,0,0,0,1.5.4c0,.08,0,.15,0,.22a5.69,5.69,0,0,0,.1,1,3.35,3.35,0,0,0-2.08-.73H12.15a3.42,3.42,0,0,0,0,6.83H14.1a3.29,3.29,0,0,0,1.09-.2,6.86,6.86,0,0,0,.35.78,3.18,3.18,0,0,0-.91.32l-1.69.9a3.48,3.48,0,0,0-1.38,4.67,3.43,3.43,0,0,0,3,1.75,3.63,3.63,0,0,0,1.53-.35l.09,0,1.51-.81A12,12,0,0,0,18.85,37c2,2.38,2.94,3.93,3.13,6.15a2.5,2.5,0,0,0-.31,1.21v4.48A3.54,3.54,0,0,0,23.59,52a5.83,5.83,0,0,0,5.26,3h2.3a5.78,5.78,0,0,0,5.25-3,3.57,3.57,0,0,0,1.92-3.14V44.4A2.46,2.46,0,0,0,38,43.2c.2-2.22,1.18-3.77,3.14-6.17a13.89,13.89,0,0,0,1.17-1.74l1.49.8a3.41,3.41,0,0,0,1.64.41,3.45,3.45,0,0,0,3-1.78,3.42,3.42,0,0,0-1.4-4.65l-1.65-.88a3.25,3.25,0,0,0-.95-.33,6,6,0,0,0,.36-.77A3.51,3.51,0,0,0,45.9,28.28Z"/><path d="M31.15,51.8h-2.3a2.74,2.74,0,0,1-2.38-1.17h7.05A2.71,2.71,0,0,1,31.15,51.8Zm4-2.91h0a.37.37,0,0,1-.37.36h-9.5a.37.37,0,0,1-.37-.36v-1H35.13Zm0-2.41H24.88v-1.4H35.13ZM43.36,26a4.1,4.1,0,0,0-1.66-3.3,3.19,3.19,0,0,0,.39-1.55,3.43,3.43,0,0,0-3.48-3.36h0A2.59,2.59,0,0,0,36,15.21a2.63,2.63,0,0,0-.92.17,2.07,2.07,0,0,0-.57-1.07,2.22,2.22,0,0,0-1.5-.6,2.12,2.12,0,0,0-2.12,2.13V28.45H29.13V15.82A2.14,2.14,0,0,0,25.5,14.3a2,2,0,0,0-.58,1.06A2.53,2.53,0,0,0,24,15.2a2.59,2.59,0,0,0-2.6,2.59h0a3.43,3.43,0,0,0-3.48,3.36,3.12,3.12,0,0,0,.39,1.54A4.16,4.16,0,0,0,16.63,26a4,4,0,0,0,1,2.72.61.61,0,0,0-.12.47,13.86,13.86,0,0,0,2.72,6.67c2.37,2.88,3.52,4.86,3.59,7.94a.67.67,0,0,0-.35.58v4.48A1.74,1.74,0,0,0,25,50.59a3.85,3.85,0,0,0,3.87,2.59h2.3A3.83,3.83,0,0,0,35,50.6a1.75,1.75,0,0,0,1.49-1.71V44.4a.69.69,0,0,0-.35-.58c.08-3.07,1.23-5,3.59-7.94a14,14,0,0,0,2.72-6.66.73.73,0,0,0-.11-.48A4.06,4.06,0,0,0,43.36,26ZM18,26a2.73,2.73,0,0,1,1.19-2.26,7,7,0,0,0,1.17.66.87.87,0,0,0,.28,0,.66.66,0,0,0,.63-.41.69.69,0,0,0-.35-.91,3.67,3.67,0,0,1-1.15-.7,1.86,1.86,0,0,1-.49-1.28,2.05,2.05,0,0,1,2.1-2,2.11,2.11,0,0,1,.68.11.66.66,0,0,0,.74-.18.7.7,0,0,0,.12-.77,1.21,1.21,0,0,1-.14-.55A1.23,1.23,0,0,1,24,16.59a1.21,1.21,0,0,1,1,.52.71.71,0,0,0,.77.26.69.69,0,0,0,.48-.66v-.89a.84.84,0,0,1,.21-.53.82.82,0,0,1,.55-.22.76.76,0,0,1,.75.75v2a3,3,0,0,0-1.69,1.3.68.68,0,0,0,.24.94.62.62,0,0,0,.34.09.68.68,0,0,0,.6-.33,1.24,1.24,0,0,1,.5-.49v3.8a3.69,3.69,0,0,0-2.69,2,.68.68,0,0,0,.27.93.57.57,0,0,0,.33.09.68.68,0,0,0,.61-.34,2.54,2.54,0,0,1,1.48-1.26v3.87H21a4.56,4.56,0,0,1,.38-.31A.69.69,0,0,0,20.5,27a10.91,10.91,0,0,0-1.37,1.2A2.7,2.7,0,0,1,18,26Zm20.66,9c-2.14,2.61-3.79,4.94-3.89,8.7H25.22c-.11-3.76-1.76-6.08-3.89-8.7a12.35,12.35,0,0,1-2.3-5.2H41A12.45,12.45,0,0,1,38.67,35Zm2.85-7.46a2.55,2.55,0,0,1-.64.67A12.63,12.63,0,0,0,39.51,27a.69.69,0,0,0-.83,1.1l.39.31H32.25V24.55a2.51,2.51,0,0,1,1.49,1.26.63.63,0,0,0,.59.34.69.69,0,0,0,.7-.69.72.72,0,0,0-.08-.32,3.79,3.79,0,0,0-2.7-2V19.35a1.25,1.25,0,0,1,.49.48.69.69,0,0,0,.6.34.71.71,0,0,0,.69-.71,1,1,0,0,0-.09-.33,3,3,0,0,0-1.69-1.3v-2a.75.75,0,0,1,.74-.75.76.76,0,0,1,.54.22.79.79,0,0,1,.22.53v.87a.68.68,0,0,0,1.25.4,1.19,1.19,0,0,1,1-.52,1.23,1.23,0,0,1,1.23,1.22,1.63,1.63,0,0,1-.13.56.69.69,0,0,0,.11.75.68.68,0,0,0,.75.19,1.74,1.74,0,0,1,.67-.12,2.06,2.06,0,0,1,2.1,2,1.89,1.89,0,0,1-.5,1.29,4.72,4.72,0,0,1-1.15.7.68.68,0,0,0,.28,1.3.58.58,0,0,0,.29-.05,6.93,6.93,0,0,0,1.16-.65A2.73,2.73,0,0,1,41.52,27.55Z"/><path class="cls-2" d="M33.52,50.63a2.71,2.71,0,0,1-2.37,1.17h-2.3a2.74,2.74,0,0,1-2.38-1.17Z"/><path class="cls-3" d="M35.13,47.86v1h0a.37.37,0,0,1-.37.36h-9.5a.37.37,0,0,1-.37-.36v-1Z"/><rect class="cls-3" x="24.88" y="45.08" width="10.25" height="1.4"/><path class="cls-3" d="M41.52,27.55a2.55,2.55,0,0,1-.64.67A12.63,12.63,0,0,0,39.51,27a.69.69,0,0,0-.83,1.1l.39.31H32.25V24.55a2.51,2.51,0,0,1,1.49,1.26.63.63,0,0,0,.59.34.69.69,0,0,0,.7-.69.72.72,0,0,0-.08-.32,3.79,3.79,0,0,0-2.7-2V19.35a1.25,1.25,0,0,1,.49.48.69.69,0,0,0,.6.34.71.71,0,0,0,.69-.71,1,1,0,0,0-.09-.33,3,3,0,0,0-1.69-1.3v-2a.75.75,0,0,1,.74-.75.76.76,0,0,1,.54.22.79.79,0,0,1,.22.53v.87a.68.68,0,0,0,1.25.4,1.19,1.19,0,0,1,1-.52,1.23,1.23,0,0,1,1.23,1.22,1.63,1.63,0,0,1-.13.56.69.69,0,0,0,.11.75.68.68,0,0,0,.75.19,1.74,1.74,0,0,1,.67-.12,2.06,2.06,0,0,1,2.1,2,1.89,1.89,0,0,1-.5,1.29,4.72,4.72,0,0,1-1.15.7.68.68,0,0,0,.28,1.3.58.58,0,0,0,.29-.05,6.93,6.93,0,0,0,1.16-.65A2.73,2.73,0,0,1,41.52,27.55Z"/><path class="cls-2" d="M41,29.81A12.45,12.45,0,0,1,38.67,35c-2.14,2.61-3.79,4.94-3.89,8.7H25.22c-.11-3.76-1.76-6.08-3.89-8.7a12.35,12.35,0,0,1-2.3-5.2Z"/><path class="cls-3" d="M26.08,19.14a.68.68,0,0,0,.24.94.62.62,0,0,0,.34.09.68.68,0,0,0,.6-.33,1.24,1.24,0,0,1,.5-.49v3.8a3.69,3.69,0,0,0-2.69,2,.68.68,0,0,0,.27.93.57.57,0,0,0,.33.09.68.68,0,0,0,.61-.34,2.54,2.54,0,0,1,1.48-1.26v3.87H21a4.56,4.56,0,0,1,.38-.31A.69.69,0,0,0,20.5,27a10.91,10.91,0,0,0-1.37,1.2A2.7,2.7,0,0,1,18,26a2.73,2.73,0,0,1,1.19-2.26,7,7,0,0,0,1.17.66.87.87,0,0,0,.28,0,.66.66,0,0,0,.63-.41.69.69,0,0,0-.35-.91,3.67,3.67,0,0,1-1.15-.7,1.86,1.86,0,0,1-.49-1.28,2.05,2.05,0,0,1,2.1-2,2.11,2.11,0,0,1,.68.11.66.66,0,0,0,.74-.18.7.7,0,0,0,.12-.77,1.21,1.21,0,0,1-.14-.55A1.23,1.23,0,0,1,24,16.59a1.21,1.21,0,0,1,1,.52.71.71,0,0,0,.77.26.69.69,0,0,0,.48-.66v-.89a.84.84,0,0,1,.21-.53.82.82,0,0,1,.55-.22.76.76,0,0,1,.75.75v2A3,3,0,0,0,26.08,19.14Z"/><path d="M45.45,34.68a1.58,1.58,0,0,1-.76-.18L43,33.6a1.59,1.59,0,0,1,.75-3,1.53,1.53,0,0,1,.76.19l1.67.89a1.59,1.59,0,0,1-.75,3Zm-30.9,0a1.59,1.59,0,0,1-1.4-.82,1.63,1.63,0,0,1,.65-2.18l1.68-.89a1.53,1.53,0,0,1,.76-.19,1.61,1.61,0,0,1,1.52,2.07,1.6,1.6,0,0,1-.79.94l-1.66.89A1.69,1.69,0,0,1,14.55,34.68ZM45.9,26.46a1.6,1.6,0,1,1,0-3.2h1.94a1.6,1.6,0,0,1,0,3.2Zm-33.75,0a1.6,1.6,0,0,1,0-3.2H14.1a1.6,1.6,0,0,1,0,3.2Zm31.62-7.33a1.58,1.58,0,0,1-1.41-.85,1.56,1.56,0,0,1-.12-1.2,1.59,1.59,0,0,1,.77-.95l1.68-.9a1.64,1.64,0,0,1,.75-.19,1.61,1.61,0,0,1,1.41.85,1.59,1.59,0,0,1-.67,2.16l-1.66.9A1.86,1.86,0,0,1,43.77,19.13Zm-27.55,0a1.5,1.5,0,0,1-.75-.19l-1.67-.89a1.6,1.6,0,0,1-.67-2.15A1.62,1.62,0,0,1,14.55,15a1.6,1.6,0,0,1,.76.2l1.66.88a1.62,1.62,0,0,1,.78,1,1.59,1.59,0,0,1-1.53,2.05Zm5.83-5.36A1.6,1.6,0,0,1,20.71,13l-1-1.56a1.61,1.61,0,0,1,.51-2.2A1.56,1.56,0,0,1,21.07,9a1.62,1.62,0,0,1,1.36.75l1,1.54a1.71,1.71,0,0,1,.24.84,1.58,1.58,0,0,1-.45,1.13,1.6,1.6,0,0,1-1.12.49Zm15.9,0a1.59,1.59,0,0,1-.85-.25,1.62,1.62,0,0,1-.53-2.18l1-1.57A1.56,1.56,0,0,1,38.91,9a1.62,1.62,0,0,1,.85.25,1.57,1.57,0,0,1,.71,1,1.53,1.53,0,0,1-.22,1.21L39.3,13l0,.07a1.58,1.58,0,0,1-1.3.68Zm-8-2a1.6,1.6,0,0,1-1.6-1.6V8.42a1.6,1.6,0,0,1,3.2,0V10.2A1.6,1.6,0,0,1,30,11.8Z"/><path class="cls-2" d="M39.27,10a.68.68,0,0,0-.94.21l-1,1.55a.7.7,0,0,0,.23.95.69.69,0,0,0,.94-.2,0,0,0,0,0,0,0l1-1.56A.67.67,0,0,0,39.27,10Zm6.78,6.28a.67.67,0,0,0-.93-.28l-1.67.89a.68.68,0,0,0,.32,1.29.92.92,0,0,0,.32-.07l1.67-.9A.69.69,0,0,0,46.05,16.32Zm1.79,7.85H45.9a.69.69,0,1,0,0,1.38h1.94a.68.68,0,0,0,.69-.69A.7.7,0,0,0,47.84,24.17Zm-2.07,8.31-1.67-.89a.69.69,0,1,0-.65,1.21l1.68.9a.71.71,0,0,0,.32.07.67.67,0,0,0,.6-.35A.68.68,0,0,0,45.77,32.48Zm-28.93-.61a.69.69,0,0,0-.93-.28l-1.67.89a.69.69,0,0,0-.29.94.67.67,0,0,0,.6.35.75.75,0,0,0,.33-.07l1.67-.9A.68.68,0,0,0,16.84,31.87Zm-2.74-7.7H12.15a.69.69,0,0,0,0,1.38H14.1a.69.69,0,0,0,0-1.38Zm2.45-7.24L14.87,16a.67.67,0,0,0-.93.28.69.69,0,0,0,.29.93l1.67.9a.74.74,0,0,0,.32.07.69.69,0,0,0,.33-1.29Zm6.09-5.13-1-1.55a.7.7,0,0,0-.95-.21.68.68,0,0,0-.22.94l1,1.56a.71.71,0,0,0,.58.32.7.7,0,0,0,.69-.71A.74.74,0,0,0,22.64,11.8ZM30,7.73a.69.69,0,0,0-.69.69V10.2a.69.69,0,1,0,1.38,0V8.42A.69.69,0,0,0,30,7.73Z"/></svg>