<svg id="Iconos" xmlns="http://www.w3.org/2000/svg" viewBox="0 0 50 50"><g id="_1" data-name="1"><g id="_3" data-name="3"><g id="_5" data-name="5"><path d="M25,0A25,25,0,0,0,5,40a24.52,24.52,0,0,0,2.71,3A25,25,0,1,0,25,0Z" style="fill:#f0b429"/></g></g><g id="Operation_risk_trouble" data-name="Operation risk trouble"><path d="M39.89,22.94l-3-.57a1.36,1.36,0,0,1-1-.87c-.06-.16-.13-.31-.2-.47a7.55,7.55,0,0,1-6.53-6.69c-.24-.11-.49-.22-.74-.31a1.36,1.36,0,0,1-.87-1l-.57-3a1.36,1.36,0,0,0-1.35-1.12H22.94A1.38,1.38,0,0,0,21.59,10L21,13a1.33,1.33,0,0,1-.86,1,12.39,12.39,0,0,0-1.19.49,1.34,1.34,0,0,1-1.34-.12l-2.55-1.74a1.39,1.39,0,0,0-1.75.16l-1.85,1.86a1.36,1.36,0,0,0-.16,1.74L13.06,19a1.35,1.35,0,0,1,.12,1.34,12.39,12.39,0,0,0-.49,1.19,1.36,1.36,0,0,1-1,.87l-3,.57A1.36,1.36,0,0,0,7.5,24.28v2.63a1.38,1.38,0,0,0,1.12,1.35l3,.57a1.35,1.35,0,0,1,1,.86,12.39,12.39,0,0,0,.49,1.19,1.34,1.34,0,0,1-.12,1.34l-1.74,2.55a1.36,1.36,0,0,0,.16,1.74l1.85,1.86a1.38,1.38,0,0,0,1.75.16l2.55-1.74A1.34,1.34,0,0,1,19,36.67a12.39,12.39,0,0,0,1.19.49,1.33,1.33,0,0,1,.86,1l.57,3a1.38,1.38,0,0,0,1.35,1.12h2.62a1.37,1.37,0,0,0,1.35-1.12l.57-3a1.36,1.36,0,0,1,.87-1c.4-.14.8-.31,1.19-.49a1.35,1.35,0,0,1,1.34.12l2.55,1.74a1.36,1.36,0,0,0,1.74-.16L37,36.51a1.38,1.38,0,0,0,.16-1.74l-1.74-2.55a1.35,1.35,0,0,1-.12-1.34c.18-.39.34-.78.49-1.19a1.36,1.36,0,0,1,1-.87l3-.56A1.38,1.38,0,0,0,41,26.91V24.28a1.36,1.36,0,0,0-1.12-1.34ZM24.25,31.69a6.1,6.1,0,1,1,6.1-6.09h0a6.1,6.1,0,0,1-6.1,6.09Z" style="fill:#1d5481"/><path d="M36.58,7.65a5.92,5.92,0,1,0,5.92,5.92h0a5.92,5.92,0,0,0-5.92-5.92Zm-.06,2a.91.91,0,0,1,1,.84v.12l-.2,3a.71.71,0,0,1-.74.65.7.7,0,0,1-.65-.65l-.2-3a.9.9,0,0,1,.83-1Zm1,6.78a.9.9,0,0,1-1.79,0v-.1a.9.9,0,0,1,1.79,0Z" style="fill:#1d5481"/></g></g></svg>