<svg id="Iconos" xmlns="http://www.w3.org/2000/svg" viewBox="0 0 50 50"><g id="_10" data-name="10"><g id="_8" data-name="8"><g id="_6" data-name="6"><path d="M25,0A25,25,0,0,0,5,40a24.52,24.52,0,0,0,2.71,3A25,25,0,1,0,25,0Z" style="fill:#f0b429"/></g></g><path d="M22.12,32.21a9.74,9.74,0,0,1,3.41-7.42,12.5,12.5,0,0,0-4-.66c-6.37,0-11.54,4.59-11.54,11v3.46H24.45A9.79,9.79,0,0,1,22.12,32.21Z" style="fill:#1d5481"/><path d="M21.54,22.4a6.35,6.35,0,1,0-6.35-6.34A6.34,6.34,0,0,0,21.54,22.4Z" style="fill:#1d5481"/><path d="M31.92,24.13A8.08,8.08,0,1,0,40,32.21h0a8.08,8.08,0,0,0-8.08-8.08Zm-.08,2.69A1.22,1.22,0,0,1,33.15,28v.16l-.28,4.09a1,1,0,0,1-1,.89,1,1,0,0,1-.89-.89l-.27-4.09a1.22,1.22,0,0,1,1.14-1.3Zm1.33,9.24a1.23,1.23,0,0,1-2.45,0v-.13a1.23,1.23,0,0,1,2.45,0Z" style="fill:#1d5481"/></g></svg>