<svg id="Iconos" xmlns="http://www.w3.org/2000/svg" viewBox="0 0 50 50"><g id="_2" data-name="2"><g id="_3" data-name="3"><g id="_5" data-name="5"><path d="M25,0A25,25,0,0,0,5,40a24.52,24.52,0,0,0,2.71,3A25,25,0,1,0,25,0Z" style="fill:#f0b429"/></g></g><path d="M11.42,36.07a5.88,5.88,0,0,1-1.5,2.56,1,1,0,0,0,.72,1.75H12.7a5.06,5.06,0,0,0,4.12-2.12,8.12,8.12,0,0,0,1,.07,10.23,10.23,0,0,0,9.7-7.07,12.42,12.42,0,0,1-4.6-3.32.58.58,0,0,1,0,.14,1,1,0,1,1-1-1,1,1,0,0,1,.35.07,12.22,12.22,0,0,1-2.4-7.25,11.92,11.92,0,0,1,.15-1.8,10.59,10.59,0,0,0-2.2-.25,10.21,10.21,0,0,0-6.4,18.25Zm6.4-9a1,1,0,1,1-1,1A1,1,0,0,1,17.82,27.05Zm-4.1,0a1,1,0,1,1,0,2.05,1,1,0,0,1,0-2.05Z" style="fill:#1d5481"/><path d="M32.18,9.62a10.26,10.26,0,1,0,0,20.51,8.12,8.12,0,0,0,1-.07,5.08,5.08,0,0,0,4.12,2.12h2.06a1,1,0,0,0,.72-1.75,5.93,5.93,0,0,1-1.5-2.56,10.21,10.21,0,0,0-6.4-18.25Zm0,15.38a1,1,0,1,1,1-1A1,1,0,0,1,32.18,25ZM34,19.27a2,2,0,0,0-.8,1.58,1,1,0,0,1-1,1,1,1,0,0,1-1-1,4.06,4.06,0,0,1,1.63-3.28,1,1,0,0,0,.42-.82,1,1,0,1,0-2.05,0,1,1,0,0,1-2,0A3.08,3.08,0,1,1,34,19.27Z" style="fill:#1d5481"/></g></svg>