<svg id="Iconos" xmlns="http://www.w3.org/2000/svg" viewBox="0 0 50 50"><g id="_3" data-name="3"><g id="_5" data-name="5"><path d="M25,0A25,25,0,0,0,5,40a24.52,24.52,0,0,0,2.71,3A25,25,0,1,0,25,0Z" style="fill:#f0b429"/></g><path d="M39.42,27.83H35.3a1,1,0,0,0-1,1V34h6.17V28.86A1,1,0,0,0,39.42,27.83Z" style="fill:#1d5481"/><path d="M14.7,15.48H10.58a1,1,0,0,0-1,1V34h6.17V16.5a1,1,0,0,0-1-1Z" style="fill:#1d5481"/><path d="M22.94,19.59H18.82a1,1,0,0,0-1,1V34H24V20.62a1,1,0,0,0-1-1Z" style="fill:#1d5481"/><path d="M31.18,23.71H27.06a1,1,0,0,0-1,1V34H32.2V24.74a1,1,0,0,0-1-1Z" style="fill:#1d5481"/><path d="M41.47,38.12H8.53a1,1,0,1,1,0-2H41.47a1,1,0,1,1,0,2Z" style="fill:#1d5481"/><path d="M38.32,20.24l-1-2.74a1,1,0,0,0-1.93.69l.15.41L17.2,10a1,1,0,0,0-1.37.49,1,1,0,0,0,.5,1.36l18.35,8.63-.41.15a1,1,0,0,0,.35,2,1,1,0,0,0,.34-.06l2.74-1a1,1,0,0,0,.58-.53,1,1,0,0,0,0-.78Z" style="fill:#1d5481"/></g></svg>