<svg id="Iconos" xmlns="http://www.w3.org/2000/svg" viewBox="0 0 50 50"><g id="_4" data-name="4"><g id="_5" data-name="5"><path d="M25,0A25,25,0,0,0,5,40a24.52,24.52,0,0,0,2.71,3A25,25,0,1,0,25,0Z" style="fill:#f0b429"/></g><path d="M24.56,11.44a12.49,12.49,0,0,1,7.92,3.28l3.5-3.5A17.45,17.45,0,0,0,24.56,6.49Zm6.82,26.24a.92.92,0,1,0,.93.92A.92.92,0,0,0,31.38,37.68ZM23.44,6.49A17.45,17.45,0,0,0,12,11.22l3.5,3.5a12.49,12.49,0,0,1,7.92-3.28ZM11.22,12l3.5,3.49a12.53,12.53,0,0,0-3.27,7.82.7.7,0,0,1-.71.66H7.21a.69.69,0,0,1-.51-.21.68.68,0,0,1-.2-.52A17.44,17.44,0,0,1,11.22,12ZM39.78,37.39,33.76,27A2.74,2.74,0,0,0,29,27L23,37.39a2.75,2.75,0,0,0,2.38,4.12h12a2.75,2.75,0,0,0,2.38-4.12Zm-7.68-2a.72.72,0,0,1-1.43,0l-.19-5a.7.7,0,0,1,.21-.53.67.67,0,0,1,.51-.22h.37a.7.7,0,0,1,.51.22.69.69,0,0,1,.2.53ZM36.78,12l-3.5,3.49a12.53,12.53,0,0,1,3.27,7.82.7.7,0,0,0,.71.66h3.53a.69.69,0,0,0,.51-.21.68.68,0,0,0,.2-.52A17.44,17.44,0,0,0,36.78,12Z" style="fill:#1d5481;fill-rule:evenodd"/><path d="M14,20.9a.57.57,0,0,0,.32.74l7.15,2.75a2.59,2.59,0,1,0,.73-1.45,4.12,4.12,0,0,0-.33.4l-7.14-2.76A.57.57,0,0,0,14,20.9Zm10.67,3.25a.89.89,0,0,1,0,1.26.89.89,0,1,1,0-1.26Z" style="fill:#1d5481;fill-rule:evenodd"/></g></svg>