<svg id="Iconos" xmlns="http://www.w3.org/2000/svg" viewBox="0 0 50 50"><g id="_5" data-name="5"><path d="M25,0A25,25,0,0,0,5,40a24.52,24.52,0,0,0,2.71,3A25,25,0,1,0,25,0Z" style="fill:#f0b429"/><path d="M18.53,15.93V13.8a.53.53,0,0,0-.53-.53H10.53a.53.53,0,0,0-.53.53v2.13Z" style="fill:#1d5481"/><path d="M10,17V34.6h8.53V17Zm6.4,6.93H12.13a.53.53,0,0,1-.53-.53V19.13a.53.53,0,0,1,.53-.53H16.4a.53.53,0,0,1,.53.53V23.4A.53.53,0,0,1,16.4,23.93Z" style="fill:#1d5481"/><path d="M10,37.8v2.67a.53.53,0,0,0,.53.53H18a.53.53,0,0,0,.53-.53V37.8Z" style="fill:#1d5481"/><path d="M10,35.67h8.53v1.06H10Z" style="fill:#1d5481"/><path d="M19.6,35.67h6.93v1.06H19.6Z" style="fill:#1d5481"/><path d="M26.53,11.13V9.53A.53.53,0,0,0,26,9H20.13a.53.53,0,0,0-.53.53v1.6Z" style="fill:#1d5481"/><path d="M19.6,14.87h6.93V34.6H19.6Z" style="fill:#1d5481"/><path d="M19.6,37.8v2.67a.53.53,0,0,0,.53.53H26a.53.53,0,0,0,.53-.53V37.8Z" style="fill:#1d5481"/><path d="M19.6,12.2h6.93v1.6H19.6Z" style="fill:#1d5481"/><path d="M27.59,20l.28,1.1,9-2.41-.28-1.09Z" style="fill:#1d5481"/><path d="M32,37.13l9-2.41-.58-2.19-9,2.41Z" style="fill:#1d5481"/><path d="M40.23,31.5,37.17,19.76l-9,2.41L31.2,33.9Z" style="fill:#1d5481"/><path d="M27.32,19l9-2.41-.77-2.93a.54.54,0,0,0-.65-.39l-8,2.14a.53.53,0,0,0-.38.65Z" style="fill:#1d5481"/><path d="M41.34,35.75l-9,2.41L33,40.6a.59.59,0,0,0,.25.33.6.6,0,0,0,.27.07l.13,0,8-2.13A.53.53,0,0,0,42,38.2Z" style="fill:#1d5481"/></g></svg>