<svg id="Iconos" xmlns="http://www.w3.org/2000/svg" viewBox="0 0 50 50"><g id="_6" data-name="6"><path d="M25,0A25,25,0,0,0,5,40a24.52,24.52,0,0,0,2.71,3A25,25,0,1,0,25,0Z" style="fill:#f0b429"/><g id="Layer_1"><g id="_289918128" data-name=" 289918128"><path d="M12.43,29.48H17a.57.57,0,1,1,0,1.13H12a.88.88,0,0,1-.27-.06,10.53,10.53,0,0,0-.94,1.94H17a.57.57,0,1,1,0,1.13H10.41a10.77,10.77,0,0,0-.32,1.9h8.22V25.35A12,12,0,0,0,12.43,29.48ZM34,33.62H27.43a.57.57,0,1,1,0-1.13h6.16a11.76,11.76,0,0,0-.92-1.93.58.58,0,0,1-.21.05h-5a.57.57,0,1,1,0-1.13h4.49A12.12,12.12,0,0,0,26,25.38V35.52h8.22A10.61,10.61,0,0,0,34,33.62Z" style="fill:#1d5481"/><path d="M34.46,41.21H9.93a2.32,2.32,0,1,1,0-4.64H34.46a2.32,2.32,0,1,1,0,4.64Z" style="fill:#1d5481"/><path d="M19.42,35.52V25.46a2.76,2.76,0,0,1,5.52,0V35.52Z" style="fill:#1d5481"/></g><path d="M39.8,22.11a.51.51,0,0,1,.52-.51H42.5A13.4,13.4,0,0,0,39,13.07l-1.53,1.52a.51.51,0,0,1-.37.17.5.5,0,0,1-.34-.86l1.53-1.54A13.25,13.25,0,0,0,29.7,8.8V11a.51.51,0,0,1-.48.51A.51.51,0,0,1,28.7,11V8.79a13.28,13.28,0,0,0-8.56,3.56L21.7,13.9a.53.53,0,0,1,0,.72.57.57,0,0,1-.38.14.47.47,0,0,1-.33-.14l-1.56-1.56a13.28,13.28,0,0,0-3.56,8.54h2.21a.5.5,0,0,1,.51.51.53.53,0,0,1-.51.52H15.87a12.84,12.84,0,0,0,.35,2.53A12.87,12.87,0,0,1,18,24.44l.66-.22a3.75,3.75,0,0,1,7,0l.66.21a13,13,0,0,1,6.34,4.42,14.23,14.23,0,0,1,1,1.54,12.26,12.26,0,0,1,.79,1.73l.19.49h0l0,.11.25.68h-.08c.06.22.1.44.15.67a13.33,13.33,0,0,0,3.24-2.23l-1.55-1.54a.48.48,0,0,1,0-.71.5.5,0,0,1,.71,0L39,31.18a13.39,13.39,0,0,0,3.51-8.55H40.32A.52.52,0,0,1,39.8,22.11Zm-6.6,4a.59.59,0,0,1-.37.15.46.46,0,0,1-.34-.15l-2.35-2.34a1.94,1.94,0,0,1-.92.24,1.85,1.85,0,0,1-1.88-1.88A1.88,1.88,0,0,1,28.7,20.3v-6a.52.52,0,0,1,1,0v6A1.87,1.87,0,0,1,30.84,23l2.36,2.35A.51.51,0,0,1,33.2,26.09Z" style="fill:#1d5481"/><path d="M33.2,25.38,30.84,23a1.87,1.87,0,0,0-1.11-2.73v-6a.52.52,0,0,0-1,0v6a1.88,1.88,0,0,0-1.36,1.81A1.85,1.85,0,0,0,29.22,24a1.94,1.94,0,0,0,.92-.24l2.35,2.34a.46.46,0,0,0,.34.15.59.59,0,0,0,.37-.15A.51.51,0,0,0,33.2,25.38Zm-4-2.39a.88.88,0,1,1,.87-.88A.88.88,0,0,1,29.22,23Z" style="fill:#f0b429"/><path d="M30.09,22.11a.88.88,0,0,1-.87.88.88.88,0,1,1,.87-.88Z" style="fill:#1d5481"/></g></g></svg>