<svg id="Iconos" xmlns="http://www.w3.org/2000/svg" viewBox="0 0 50 50"><g id="_7" data-name="7"><g id="_6" data-name="6"><path d="M25,0A25,25,0,0,0,5,40a24.52,24.52,0,0,0,2.71,3A25,25,0,1,0,25,0Z" style="fill:#f0b429"/></g><path d="M26.59,42.52a17.53,17.53,0,0,0,12.24-6.74l-9.34-6a4.77,4.77,0,0,1-2.9,2.92h0v1.88H23.41V32.75a4.76,4.76,0,0,1-3.18-4.48h3.18a1.59,1.59,0,0,0,3.18,0c0-1-.2-1.21-2-1.63-1.2-.29-3-.73-3.85-2.35L9.46,17.08a17.31,17.31,0,0,0-2,8A17.53,17.53,0,0,0,23.41,42.52" style="fill:#1d5481"/><path d="M25,7.48A17.6,17.6,0,0,0,11.17,14.4l9.34,6a4.75,4.75,0,0,1,2.9-2.92V15.54h3.18v1.89a4.76,4.76,0,0,1,3.18,4.48H26.59a1.59,1.59,0,0,0-3.18,0c0,1,.2,1.21,2,1.63,1.2.29,3,.73,3.85,2.35l11.32,7.2a17.27,17.27,0,0,0,2-8A17.61,17.61,0,0,0,25,7.48Z" style="fill:#1d5481"/></g></svg>