<svg id="Iconos" xmlns="http://www.w3.org/2000/svg" viewBox="0 0 50 50"><g id="_8" data-name="8"><g id="_6" data-name="6"><path d="M25,0A25,25,0,0,0,5,40a24.52,24.52,0,0,0,2.71,3A25,25,0,1,0,25,0Z" style="fill:#f0b429"/></g><path d="M40.31,33.39H40.2V16.18a2.45,2.45,0,0,0-2.44-2.45H12.28a2.45,2.45,0,0,0-2.44,2.45V33.39H7.5V35a2.68,2.68,0,0,0,2.69,2.69H39.73A2.73,2.73,0,0,0,42.5,35V33.39Zm-3.45,0H28.27v.18a1,1,0,0,1-.93.93H22.66a.94.94,0,0,1-.93-.93v-.18H13.17V17.08H36.86Z" style="fill:#1d5481"/><g id="Page-1"><g id="_023---QA-Testing-Laptop" data-name="023---QA-Testing-Laptop"><path id="Shape" d="M25,31.45a6,6,0,1,0-6-6A6,6,0,0,0,25,31.45Zm-3.18-8a.86.86,0,0,1,0-1.2.85.85,0,0,1,1.2,0l2,2,2-2a.86.86,0,0,1,1.22,1.22l-2,2,2,2a.86.86,0,0,1-.38,1.44.87.87,0,0,1-.84-.23l-2-2-2,2a.86.86,0,0,1-1.21-1.21l2-2Z" style="fill:#1d5481"/></g></g></g></svg>