<svg id="Iconos" xmlns="http://www.w3.org/2000/svg" viewBox="0 0 50 50"><g id="_9" data-name="9"><g id="_8" data-name="8"><g id="_6" data-name="6"><path d="M25,0A25,25,0,0,0,5,40a24.52,24.52,0,0,0,2.71,3A25,25,0,1,0,25,0Z" style="fill:#f0b429"/></g></g><path d="M36.21,12,31,11a2.21,2.21,0,0,1-.7-.27L27.46,9a4.73,4.73,0,0,0-4.92,0L19.7,10.73A2.16,2.16,0,0,1,19,11l-5.22,1A4.73,4.73,0,0,0,10,16.67V23A19.22,19.22,0,0,0,24.56,41.64h0a1.83,1.83,0,0,0,.87,0h0A19.23,19.23,0,0,0,40,23V16.67A4.73,4.73,0,0,0,36.21,12ZM20.66,29.34a1.29,1.29,0,0,1,0-1.82L23.18,25l-2.52-2.52a1.29,1.29,0,0,1,1.82-1.82L25,23.18l2.52-2.52a1.29,1.29,0,0,1,1.82,1.82L26.82,25l2.52,2.52a1.29,1.29,0,0,1-1.82,1.82L25,26.82l-2.52,2.52a1.29,1.29,0,0,1-1.82,0Z" style="fill:#1d5481"/></g></svg>