<svg xmlns="http://www.w3.org/2000/svg" viewBox="0 0 50 50"><path d="M29.32,38.43a4,4,0,1,1-8.08,0,4,4,0,0,1,8.08,0Z" style="fill:#f2f2f2"/><path d="M37.18,16.76V17c0,5.05-2.92,7.37-6.81,9.13l-.93.42A2.21,2.21,0,0,0,28,29a1.33,1.33,0,0,1-1.34,1.34H23.94A1.35,1.35,0,0,1,22.59,29v-.32c0-3.15,1-5,3.76-6.17l.92-.4c3.24-1.5,4.54-2.66,4.54-5.15,0-2.65-2.31-4.49-5.84-4.49s-6.3,1.84-6.3,5.31a1.33,1.33,0,0,1-1.35,1.35H15.64a1.34,1.34,0,0,1-1.34-1.35v-.26c0-6.21,5-10.06,11.67-10.06S37.18,11.44,37.18,16.76Z" style="fill:#f2f2f2"/></svg>