<svg xmlns="http://www.w3.org/2000/svg" height="24" viewBox="0 -960 960 960" width="24"><path d="M460.244-72Q365-72 298.5-138.327 232-204.655 232-300v-424q0-69 48.5-117.5T398-890q69 0 117.5 48.5T564-724v382q0 43-30.5 73.5T460-238q-43 0-73.5-30.5T356-342v-382h66v382q0 16.15 10.895 27.075 10.894 10.925 27 10.925Q476-304 487-314.925T498-342v-382q0-42-29-71t-71-29q-42 0-71 29t-29 71v424.345q0 66.683 47.624 114.169Q393.248-138 460.124-138T574.5-185.486Q622-232.972 622-299.655V-724h66v424q0 95.345-66.256 161.673Q555.487-72 460.244-72Z"/></svg>